%TF.GenerationSoftware,KiCad,Pcbnew,9.0.2+dfsg-1*%
%TF.CreationDate,2026-01-07T10:29:14+01:00*%
%TF.ProjectId,binaryclock,62696e61-7279-4636-9c6f-636b2e6b6963,V 1*%
%TF.SameCoordinates,Original*%
%TF.FileFunction,Copper,L2,Bot*%
%TF.FilePolarity,Positive*%
%FSLAX46Y46*%
G04 Gerber Fmt 4.6, Leading zero omitted, Abs format (unit mm)*
G04 Created by KiCad (PCBNEW 9.0.2+dfsg-1) date 2026-01-07 10:29:14*
%MOMM*%
%LPD*%
G01*
G04 APERTURE LIST*
G04 Aperture macros list*
%AMRoundRect*
0 Rectangle with rounded corners*
0 $1 Rounding radius*
0 $2 $3 $4 $5 $6 $7 $8 $9 X,Y pos of 4 corners*
0 Add a 4 corners polygon primitive as box body*
4,1,4,$2,$3,$4,$5,$6,$7,$8,$9,$2,$3,0*
0 Add four circle primitives for the rounded corners*
1,1,$1+$1,$2,$3*
1,1,$1+$1,$4,$5*
1,1,$1+$1,$6,$7*
1,1,$1+$1,$8,$9*
0 Add four rect primitives between the rounded corners*
20,1,$1+$1,$2,$3,$4,$5,0*
20,1,$1+$1,$4,$5,$6,$7,0*
20,1,$1+$1,$6,$7,$8,$9,0*
20,1,$1+$1,$8,$9,$2,$3,0*%
G04 Aperture macros list end*
%TA.AperFunction,ComponentPad*%
%ADD10C,2.000000*%
%TD*%
%TA.AperFunction,ComponentPad*%
%ADD11R,1.800000X1.800000*%
%TD*%
%TA.AperFunction,ComponentPad*%
%ADD12C,1.800000*%
%TD*%
%TA.AperFunction,ComponentPad*%
%ADD13R,3.000000X3.000000*%
%TD*%
%TA.AperFunction,ComponentPad*%
%ADD14C,3.000000*%
%TD*%
%TA.AperFunction,ComponentPad*%
%ADD15RoundRect,0.250000X0.950000X0.550000X-0.950000X0.550000X-0.950000X-0.550000X0.950000X-0.550000X0*%
%TD*%
%TA.AperFunction,ComponentPad*%
%ADD16O,2.400000X1.600000*%
%TD*%
%TA.AperFunction,ComponentPad*%
%ADD17RoundRect,0.250000X0.600000X-0.600000X0.600000X0.600000X-0.600000X0.600000X-0.600000X-0.600000X0*%
%TD*%
%TA.AperFunction,ComponentPad*%
%ADD18C,1.700000*%
%TD*%
%TA.AperFunction,ComponentPad*%
%ADD19R,1.700000X1.700000*%
%TD*%
%TA.AperFunction,ComponentPad*%
%ADD20C,1.000000*%
%TD*%
%TA.AperFunction,ViaPad*%
%ADD21C,2.000000*%
%TD*%
%TA.AperFunction,Conductor*%
%ADD22C,0.800000*%
%TD*%
G04 APERTURE END LIST*
D10*
%TO.P,SW1,2,2*%
%TO.N,/INT0*%
X67750000Y-105750000D03*
X67750000Y-112250000D03*
%TO.P,SW1,1,1*%
%TO.N,-BATT*%
X63250000Y-105750000D03*
X63250000Y-112250000D03*
%TD*%
%TO.P,SW3,2,2*%
%TO.N,/MISO{slash}PCINT4*%
X90250000Y-105750000D03*
X90250000Y-112250000D03*
%TO.P,SW3,1,1*%
%TO.N,-BATT*%
X85750000Y-105750000D03*
X85750000Y-112250000D03*
%TD*%
D11*
%TO.P,D8,1,K*%
%TO.N,/OC1B*%
X75767420Y-82901000D03*
D12*
%TO.P,D8,2,A*%
%TO.N,/PC2*%
X78307420Y-82901000D03*
%TD*%
D11*
%TO.P,D5,1,K*%
%TO.N,/OC1A*%
X87997420Y-64401000D03*
D12*
%TO.P,D5,2,A*%
%TO.N,/PD7*%
X90537420Y-64401000D03*
%TD*%
D11*
%TO.P,D2,1,K*%
%TO.N,/OC1A*%
X70727420Y-64401000D03*
D12*
%TO.P,D2,2,A*%
%TO.N,/PD4*%
X73267420Y-64401000D03*
%TD*%
D13*
%TO.P,BT1,1,+*%
%TO.N,+BATT*%
X125250000Y-52749999D03*
D14*
%TO.P,BT1,2,-*%
%TO.N,-BATT*%
X145740000Y-52749999D03*
%TD*%
D11*
%TO.P,D9,1,K*%
%TO.N,/OC1B*%
X81497420Y-82901000D03*
D12*
%TO.P,D9,2,A*%
%TO.N,/PC3*%
X84037420Y-82901000D03*
%TD*%
D11*
%TO.P,D11,1,K*%
%TO.N,/OC1B*%
X93017420Y-82901000D03*
D12*
%TO.P,D11,2,A*%
%TO.N,/PC5*%
X95557420Y-82901000D03*
%TD*%
D15*
%TO.P,U1,1,~{RESET}/PC6*%
%TO.N,/{slash}RST*%
X143870000Y-101080000D03*
D16*
%TO.P,U1,2,PD0*%
%TO.N,/RXD*%
X143870000Y-98540000D03*
%TO.P,U1,3,PD1*%
%TO.N,/TXD*%
X143870000Y-96000000D03*
%TO.P,U1,4,PD2*%
%TO.N,/INT0*%
X143870000Y-93460000D03*
%TO.P,U1,5,PD3*%
%TO.N,/PD3*%
X143870000Y-90920000D03*
%TO.P,U1,6,PD4*%
%TO.N,/PD4*%
X143870000Y-88380000D03*
%TO.P,U1,7,VCC*%
%TO.N,+BATT*%
X143870000Y-85840000D03*
%TO.P,U1,8,GND*%
%TO.N,-BATT*%
X143870000Y-83300000D03*
%TO.P,U1,9,XTAL1/PB6*%
%TO.N,/TOSC1*%
X143870000Y-80760000D03*
%TO.P,U1,10,XTAL2/PB7*%
%TO.N,/TOSC2*%
X143870000Y-78220000D03*
%TO.P,U1,11,PD5*%
%TO.N,/PD5*%
X143870000Y-75680000D03*
%TO.P,U1,12,PD6*%
%TO.N,/PD6*%
X143870000Y-73140000D03*
%TO.P,U1,13,PD7*%
%TO.N,/PD7*%
X143870000Y-70600000D03*
%TO.P,U1,14,PB0*%
%TO.N,unconnected-(U1-PB0-Pad14)*%
X143870000Y-68060000D03*
%TO.P,U1,15,PB1*%
%TO.N,/OC1A*%
X136250000Y-68060000D03*
%TO.P,U1,16,PB2*%
%TO.N,/OC1B*%
X136250000Y-70600000D03*
%TO.P,U1,17,PB3*%
%TO.N,/MOSI{slash}PCINT3*%
X136250000Y-73140000D03*
%TO.P,U1,18,PB4*%
%TO.N,/MISO{slash}PCINT4*%
X136250000Y-75680000D03*
%TO.P,U1,19,PB5*%
%TO.N,/SCK*%
X136250000Y-78220000D03*
%TO.P,U1,20,AVCC*%
%TO.N,+BATT*%
X136250000Y-80760000D03*
%TO.P,U1,21,AREF*%
%TO.N,unconnected-(U1-AREF-Pad21)*%
X136250000Y-83300000D03*
%TO.P,U1,22,GND*%
%TO.N,-BATT*%
X136250000Y-85840000D03*
%TO.P,U1,23,PC0*%
%TO.N,/PC0*%
X136250000Y-88380000D03*
%TO.P,U1,24,PC1*%
%TO.N,/PC1*%
X136250000Y-90920000D03*
%TO.P,U1,25,PC2*%
%TO.N,/PC2*%
X136250000Y-93460000D03*
%TO.P,U1,26,PC3*%
%TO.N,/PC3*%
X136250000Y-96000000D03*
%TO.P,U1,27,PC4*%
%TO.N,/PC4*%
X136250000Y-98540000D03*
%TO.P,U1,28,PC5*%
%TO.N,/PC5*%
X136250000Y-101080000D03*
%TD*%
D17*
%TO.P,J2,1,MISO*%
%TO.N,/MISO{slash}PCINT4*%
X139000000Y-111790000D03*
D18*
%TO.P,J2,2,VCC*%
%TO.N,+BATT*%
X139000000Y-109250000D03*
%TO.P,J2,3,SCK*%
%TO.N,/SCK*%
X141540000Y-111790000D03*
%TO.P,J2,4,MOSI*%
%TO.N,/MOSI{slash}PCINT3*%
X141540000Y-109250000D03*
%TO.P,J2,5,~{RST}*%
%TO.N,/{slash}RST*%
X144080000Y-111790000D03*
%TO.P,J2,6,GND*%
%TO.N,-BATT*%
X144080000Y-109250000D03*
%TD*%
D11*
%TO.P,D10,1,K*%
%TO.N,/OC1B*%
X87267420Y-82901000D03*
D12*
%TO.P,D10,2,A*%
%TO.N,/PC4*%
X89807420Y-82901000D03*
%TD*%
D11*
%TO.P,D7,1,K*%
%TO.N,/OC1B*%
X70037420Y-82901000D03*
D12*
%TO.P,D7,2,A*%
%TO.N,/PC1*%
X72577420Y-82901000D03*
%TD*%
D11*
%TO.P,D3,1,K*%
%TO.N,/OC1A*%
X76477420Y-64401000D03*
D12*
%TO.P,D3,2,A*%
%TO.N,/PD5*%
X79017420Y-64401000D03*
%TD*%
D10*
%TO.P,SW2,1,1*%
%TO.N,-BATT*%
X74500000Y-112250000D03*
X74500000Y-105750000D03*
%TO.P,SW2,2,2*%
%TO.N,/MOSI{slash}PCINT3*%
X79000000Y-112250000D03*
X79000000Y-105750000D03*
%TD*%
D11*
%TO.P,D6,1,K*%
%TO.N,/OC1B*%
X64287420Y-82901000D03*
D12*
%TO.P,D6,2,A*%
%TO.N,/PC0*%
X66827420Y-82901000D03*
%TD*%
D19*
%TO.P,J1,1,Pin_1*%
%TO.N,-BATT*%
X151250000Y-93420000D03*
D18*
%TO.P,J1,2,Pin_2*%
%TO.N,/TXD*%
X151250000Y-95960000D03*
%TO.P,J1,3,Pin_3*%
%TO.N,/RXD*%
X151250000Y-98500000D03*
%TD*%
D11*
%TO.P,D4,1,K*%
%TO.N,/OC1A*%
X82247420Y-64401000D03*
D12*
%TO.P,D4,2,A*%
%TO.N,/PD6*%
X84787420Y-64401000D03*
%TD*%
D11*
%TO.P,D1,1,K*%
%TO.N,/OC1A*%
X64957420Y-64401000D03*
D12*
%TO.P,D1,2,A*%
%TO.N,/PD3*%
X67497420Y-64401000D03*
%TD*%
D20*
%TO.P,Y1,1,1*%
%TO.N,/TOSC1*%
X148370000Y-80510000D03*
%TO.P,Y1,2,2*%
%TO.N,/TOSC2*%
X148370000Y-78610000D03*
%TD*%
D21*
%TO.N,-BATT*%
X133000000Y-83250000D03*
X147250000Y-83000000D03*
%TO.N,+BATT*%
X132000000Y-80750000D03*
X117500000Y-52632055D03*
%TO.N,/OC1A*%
X110072491Y-67920075D03*
%TO.N,/PC0*%
X73000000Y-97750000D03*
%TO.N,/PC1*%
X76000000Y-97750000D03*
%TO.N,/PC2*%
X79000000Y-97750000D03*
%TO.N,/PC3*%
X81920158Y-97750000D03*
%TO.N,/PC4*%
X84520161Y-97750000D03*
%TO.N,/PC5*%
X87500000Y-97750000D03*
%TO.N,/PD3*%
X73817414Y-73750000D03*
%TO.N,/OC1B*%
X113500000Y-76500000D03*
%TO.N,/PD4*%
X76417417Y-73750000D03*
%TO.N,/PD5*%
X79017420Y-73750000D03*
%TO.N,/PD6*%
X81617423Y-73750000D03*
%TO.N,/PD7*%
X84217426Y-73750000D03*
%TO.N,/MOSI{slash}PCINT3*%
X127128686Y-73140000D03*
X141500000Y-104250000D03*
%TO.N,/SCK*%
X130000000Y-114750000D03*
X124110000Y-82968428D03*
%TO.N,/MISO{slash}PCINT4*%
X121250000Y-83000000D03*
X124250000Y-103250000D03*
%TO.N,/INT0*%
X147250000Y-93500000D03*
X120250000Y-116750000D03*
%TD*%
D22*
%TO.N,/INT0*%
X67750000Y-112250000D02*
X72250000Y-116750000D01*
X72250000Y-116750000D02*
X120250000Y-116750000D01*
X67750000Y-105750000D02*
X67750000Y-112250000D01*
%TO.N,/MISO{slash}PCINT4*%
X90250000Y-105750000D02*
X90250000Y-112250000D01*
X90250000Y-112250000D02*
X138540000Y-112250000D01*
X138540000Y-112250000D02*
X139000000Y-111790000D01*
%TO.N,+BATT*%
X143870000Y-85840000D02*
X141736999Y-85840000D01*
X139000000Y-109250000D02*
X139689000Y-108561000D01*
X117617944Y-52749999D02*
X117500000Y-52632055D01*
X139499000Y-103421158D02*
X140000000Y-102920158D01*
X139499000Y-105078842D02*
X139499000Y-103421158D01*
X141736999Y-85840000D02*
X136656999Y-80760000D01*
X125250000Y-52749999D02*
X117617944Y-52749999D01*
X141160000Y-85840000D02*
X141736999Y-85840000D01*
X132010000Y-80760000D02*
X132000000Y-80750000D01*
X140000000Y-102920158D02*
X140000000Y-87000000D01*
X139689000Y-108483290D02*
X140000000Y-108172290D01*
X136656999Y-80760000D02*
X136250000Y-80760000D01*
X139689000Y-108561000D02*
X139689000Y-108483290D01*
X136250000Y-80760000D02*
X132010000Y-80760000D01*
X140000000Y-105579842D02*
X139499000Y-105078842D01*
X140000000Y-108172290D02*
X140000000Y-105579842D01*
X140000000Y-87000000D02*
X141160000Y-85840000D01*
%TO.N,/OC1A*%
X70727420Y-64252580D02*
X72480000Y-62500000D01*
X70727420Y-64401000D02*
X70727420Y-64252580D01*
X72480000Y-62500000D02*
X74576420Y-62500000D01*
X80346420Y-62500000D02*
X82247420Y-64401000D01*
X68826420Y-62500000D02*
X70727420Y-64401000D01*
X82247420Y-64401000D02*
X82247420Y-64252580D01*
X76477420Y-64401000D02*
X76477420Y-64252580D01*
X66710000Y-62500000D02*
X68826420Y-62500000D01*
X74576420Y-62500000D02*
X76477420Y-64401000D01*
X70707420Y-64401000D02*
X70707420Y-64252580D01*
X110212416Y-68060000D02*
X136250000Y-68060000D01*
X110072491Y-67920075D02*
X110212416Y-68060000D01*
X64957420Y-64401000D02*
X64957420Y-64252580D01*
X82247420Y-64252580D02*
X84000000Y-62500000D01*
X78230000Y-62500000D02*
X80346420Y-62500000D01*
X86096420Y-62500000D02*
X87997420Y-64401000D01*
X76477420Y-64252580D02*
X78230000Y-62500000D01*
X84000000Y-62500000D02*
X86096420Y-62500000D01*
X64957420Y-64252580D02*
X66710000Y-62500000D01*
%TO.N,/PC0*%
X73000000Y-97750000D02*
X75000000Y-95750000D01*
X131000000Y-85000000D02*
X134380000Y-88380000D01*
X136129000Y-88501000D02*
X136250000Y-88380000D01*
X75000000Y-95750000D02*
X75000000Y-91000000D01*
X134380000Y-88380000D02*
X136250000Y-88380000D01*
X75000000Y-91000000D02*
X81000000Y-85000000D01*
X81000000Y-85000000D02*
X131000000Y-85000000D01*
%TO.N,/PC1*%
X130151000Y-86401000D02*
X134670000Y-90920000D01*
X77250000Y-96500000D02*
X77250000Y-91500000D01*
X77250000Y-91500000D02*
X82349000Y-86401000D01*
X134670000Y-90920000D02*
X136250000Y-90920000D01*
X82349000Y-86401000D02*
X130151000Y-86401000D01*
X76000000Y-97750000D02*
X77250000Y-96500000D01*
%TO.N,/PC2*%
X134960000Y-93460000D02*
X136250000Y-93460000D01*
X136039000Y-93249000D02*
X136250000Y-93460000D01*
X83250000Y-88000000D02*
X129500000Y-88000000D01*
X79000000Y-97750000D02*
X79000000Y-92250000D01*
X129500000Y-88000000D02*
X134960000Y-93460000D01*
X79000000Y-92250000D02*
X83250000Y-88000000D01*
%TO.N,/PC3*%
X84349000Y-89401000D02*
X128401000Y-89401000D01*
X135000000Y-96000000D02*
X136250000Y-96000000D01*
X81920158Y-97750000D02*
X80750000Y-96579842D01*
X128401000Y-89401000D02*
X135000000Y-96000000D01*
X80750000Y-93000000D02*
X84349000Y-89401000D01*
X80750000Y-96579842D02*
X80750000Y-93000000D01*
%TO.N,/PC4*%
X83250000Y-96250000D02*
X83250000Y-94000000D01*
X127052000Y-90802000D02*
X134790000Y-98540000D01*
X83921158Y-97150997D02*
X83921158Y-96921158D01*
X84520161Y-97750000D02*
X83921158Y-97150997D01*
X134790000Y-98540000D02*
X136250000Y-98540000D01*
X86448000Y-90802000D02*
X127052000Y-90802000D01*
X83250000Y-94000000D02*
X86448000Y-90802000D01*
X83921158Y-96921158D02*
X83250000Y-96250000D01*
%TO.N,/PC5*%
X134330000Y-101080000D02*
X136250000Y-101080000D01*
X87500000Y-97750000D02*
X85750000Y-96000000D01*
X85750000Y-96000000D02*
X85750000Y-94250000D01*
X85750000Y-94250000D02*
X87500000Y-92500000D01*
X87500000Y-92500000D02*
X125750000Y-92500000D01*
X125750000Y-92500000D02*
X134330000Y-101080000D01*
%TO.N,/PD3*%
X106604000Y-58146000D02*
X142976313Y-58146000D01*
X145070000Y-90920000D02*
X143870000Y-90920000D01*
X98448000Y-66302000D02*
X106604000Y-58146000D01*
X153000000Y-82990000D02*
X145070000Y-90920000D01*
X73817414Y-73520161D02*
X81035575Y-66302000D01*
X153000000Y-68169687D02*
X153000000Y-82990000D01*
X81035575Y-66302000D02*
X98448000Y-66302000D01*
X142976313Y-58146000D02*
X153000000Y-68169687D01*
X73817414Y-73750000D02*
X73817414Y-73520161D01*
%TO.N,/OC1B*%
X79596420Y-81000000D02*
X81497420Y-82901000D01*
X75767420Y-82901000D02*
X75767420Y-82752580D01*
X81497420Y-82901000D02*
X81497420Y-82752580D01*
X89020000Y-81000000D02*
X91116420Y-81000000D01*
X71790000Y-81000000D02*
X73866420Y-81000000D01*
X75767420Y-82752580D02*
X77520000Y-81000000D01*
X66040000Y-81000000D02*
X68136420Y-81000000D01*
X113500000Y-76500000D02*
X119400000Y-70600000D01*
X87267420Y-82901000D02*
X87267420Y-82752580D01*
X68136420Y-81000000D02*
X70037420Y-82901000D01*
X77520000Y-81000000D02*
X79596420Y-81000000D01*
X119400000Y-70600000D02*
X136250000Y-70600000D01*
X83250000Y-81000000D02*
X85366420Y-81000000D01*
X81497420Y-82752580D02*
X83250000Y-81000000D01*
X64287420Y-82901000D02*
X64287420Y-82752580D01*
X91116420Y-81000000D02*
X93017420Y-82901000D01*
X73866420Y-81000000D02*
X75767420Y-82901000D01*
X64287420Y-82752580D02*
X66040000Y-81000000D01*
X70037420Y-82752580D02*
X71790000Y-81000000D01*
X70037420Y-82901000D02*
X70037420Y-82752580D01*
X87267420Y-82752580D02*
X89020000Y-81000000D01*
X85366420Y-81000000D02*
X87267420Y-82901000D01*
%TO.N,/PD4*%
X107453000Y-59547000D02*
X142396000Y-59547000D01*
X82234578Y-67703000D02*
X99297000Y-67703000D01*
X76417417Y-73520161D02*
X82234578Y-67703000D01*
X99297000Y-67703000D02*
X107453000Y-59547000D01*
X151500000Y-81950000D02*
X145070000Y-88380000D01*
X151500000Y-68651000D02*
X151500000Y-81950000D01*
X76417417Y-73750000D02*
X76417417Y-73520161D01*
X142396000Y-59547000D02*
X151500000Y-68651000D01*
X145070000Y-88380000D02*
X143870000Y-88380000D01*
%TO.N,/PD5*%
X144511314Y-75680000D02*
X143870000Y-75680000D01*
X108302000Y-60948000D02*
X141686313Y-60948000D01*
X79017420Y-73520161D02*
X83433581Y-69104000D01*
X141686313Y-60948000D02*
X147472000Y-66733688D01*
X79017420Y-73750000D02*
X79017420Y-73520161D01*
X83433581Y-69104000D02*
X100146000Y-69104000D01*
X147472000Y-66733688D02*
X147472000Y-72719314D01*
X100146000Y-69104000D02*
X108302000Y-60948000D01*
X147472000Y-72719314D02*
X144511314Y-75680000D01*
%TO.N,/PD6*%
X84632584Y-70505000D02*
X100995000Y-70505000D01*
X146071000Y-72139000D02*
X145070000Y-73140000D01*
X146071000Y-67314001D02*
X146071000Y-72139000D01*
X141105999Y-62349000D02*
X146071000Y-67314001D01*
X145070000Y-73140000D02*
X143870000Y-73140000D01*
X109151000Y-62349000D02*
X141105999Y-62349000D01*
X81617423Y-73750000D02*
X81617423Y-73520161D01*
X81617423Y-73520161D02*
X84632584Y-70505000D01*
X100995000Y-70505000D02*
X109151000Y-62349000D01*
%TO.N,/PD7*%
X110000000Y-63750000D02*
X138250000Y-63750000D01*
X141669000Y-67314001D02*
X141669000Y-68805999D01*
X141669000Y-68805999D02*
X142724001Y-69861000D01*
X142724001Y-69861000D02*
X143870000Y-69861000D01*
X86061426Y-71906000D02*
X101844000Y-71906000D01*
X84217426Y-73750000D02*
X86061426Y-71906000D01*
X138250000Y-63750000D02*
X141741501Y-67241501D01*
X141741501Y-67241501D02*
X141669000Y-67314001D01*
X143870000Y-69861000D02*
X143870000Y-70600000D01*
X101844000Y-71906000D02*
X110000000Y-63750000D01*
%TO.N,/TXD*%
X143920000Y-96050000D02*
X143870000Y-96000000D01*
X143910000Y-95960000D02*
X143870000Y-96000000D01*
X151250000Y-95960000D02*
X143910000Y-95960000D01*
%TO.N,/RXD*%
X151250000Y-98500000D02*
X143910000Y-98500000D01*
X143910000Y-98500000D02*
X143870000Y-98540000D01*
X143920000Y-98590000D02*
X143870000Y-98540000D01*
%TO.N,/{slash}RST*%
X143870000Y-101080000D02*
X148500000Y-105710000D01*
X148500000Y-105710000D02*
X148500000Y-109500000D01*
X148500000Y-109500000D02*
X146210000Y-111790000D01*
X146210000Y-111790000D02*
X144080000Y-111790000D01*
%TO.N,/MOSI{slash}PCINT3*%
X77585787Y-105750000D02*
X60000000Y-88164213D01*
X141500000Y-104250000D02*
X141500000Y-109210000D01*
X127128686Y-73140000D02*
X136250000Y-73140000D01*
X63033840Y-79511000D02*
X120757686Y-79511000D01*
X141500000Y-109210000D02*
X141540000Y-109250000D01*
X79000000Y-105750000D02*
X77585787Y-105750000D01*
X79000000Y-105750000D02*
X79000000Y-112250000D01*
X120757686Y-79511000D02*
X127128686Y-73140000D01*
X60000000Y-88164213D02*
X60000000Y-82544840D01*
X60000000Y-82544840D02*
X63033840Y-79511000D01*
%TO.N,/SCK*%
X128734966Y-77081000D02*
X133911000Y-77081000D01*
X127563808Y-78252158D02*
X128734966Y-77081000D01*
X127563808Y-79514620D02*
X127563808Y-78252158D01*
X133911000Y-77081000D02*
X135050000Y-78220000D01*
X141540000Y-112226108D02*
X141540000Y-111790000D01*
X135050000Y-78220000D02*
X136250000Y-78220000D01*
X130000000Y-114750000D02*
X139016108Y-114750000D01*
X124110000Y-82968428D02*
X127563808Y-79514620D01*
X139016108Y-114750000D02*
X141540000Y-112226108D01*
%TO.N,/MISO{slash}PCINT4*%
X132790000Y-111790000D02*
X139000000Y-111790000D01*
X124250000Y-78000000D02*
X126570000Y-75680000D01*
X124250000Y-80000000D02*
X124250000Y-78000000D01*
X126570000Y-75680000D02*
X136250000Y-75680000D01*
X124250000Y-103250000D02*
X132790000Y-111790000D01*
X121250000Y-83000000D02*
X124250000Y-80000000D01*
%TO.N,/INT0*%
X143910000Y-93500000D02*
X143870000Y-93460000D01*
X147250000Y-93500000D02*
X143910000Y-93500000D01*
%TO.N,/TOSC2*%
X144260000Y-78610000D02*
X143870000Y-78220000D01*
X148370000Y-78610000D02*
X144260000Y-78610000D01*
%TO.N,/TOSC1*%
X144120000Y-80510000D02*
X143870000Y-80760000D01*
X148370000Y-80510000D02*
X144120000Y-80510000D01*
%TD*%
%TA.AperFunction,Conductor*%
%TO.N,-BATT*%
G36*
X143614075Y-109442993D02*
G01*
X143679901Y-109557007D01*
X143772993Y-109650099D01*
X143887007Y-109715925D01*
X143950590Y-109732962D01*
X143318282Y-110365269D01*
X143318812Y-110372003D01*
X143350347Y-110412898D01*
X143356326Y-110482511D01*
X143323721Y-110544307D01*
X143307682Y-110558205D01*
X143135061Y-110683622D01*
X142973623Y-110845060D01*
X142973616Y-110845069D01*
X142910317Y-110932191D01*
X142854987Y-110974857D01*
X142785373Y-110980835D01*
X142723579Y-110948228D01*
X142709683Y-110932191D01*
X142646383Y-110845069D01*
X142646379Y-110845063D01*
X142484937Y-110683621D01*
X142397807Y-110620317D01*
X142355143Y-110564988D01*
X142349164Y-110495374D01*
X142381770Y-110433579D01*
X142397807Y-110419683D01*
X142484937Y-110356379D01*
X142646379Y-110194937D01*
X142771796Y-110022316D01*
X142827124Y-109979653D01*
X142896738Y-109973674D01*
X142958532Y-110006280D01*
X142963134Y-110011591D01*
X142964728Y-110011716D01*
X143597037Y-109379408D01*
X143614075Y-109442993D01*
G37*
%TD.AperFunction*%
%TA.AperFunction,Conductor*%
G36*
X142461027Y-86847105D02*
G01*
X142484370Y-86849284D01*
X142501019Y-86858848D01*
X142505570Y-86860185D01*
X142511094Y-86864636D01*
X142514973Y-86866865D01*
X142520893Y-86871500D01*
X142557635Y-86908242D01*
X142699035Y-87010974D01*
X142700811Y-87012365D01*
X142719897Y-87039046D01*
X142739920Y-87065012D01*
X142740117Y-87067312D01*
X142741462Y-87069192D01*
X142743093Y-87101955D01*
X142745899Y-87134625D01*
X142744821Y-87136667D01*
X142744936Y-87138975D01*
X142728597Y-87167415D01*
X142713293Y-87196420D01*
X142711281Y-87197555D01*
X142710131Y-87199559D01*
X142697254Y-87210318D01*
X142557641Y-87311752D01*
X142557636Y-87311756D01*
X142401756Y-87467636D01*
X142401752Y-87467641D01*
X142272187Y-87645974D01*
X142172104Y-87842393D01*
X142172103Y-87842396D01*
X142103985Y-88052047D01*
X142069500Y-88269778D01*
X142069500Y-88490221D01*
X142103985Y-88707952D01*
X142172103Y-88917603D01*
X142172104Y-88917606D01*
X142272187Y-89114025D01*
X142401752Y-89292358D01*
X142401756Y-89292363D01*
X142557636Y-89448243D01*
X142557641Y-89448247D01*
X142697254Y-89549682D01*
X142739920Y-89605012D01*
X142745899Y-89674625D01*
X142713293Y-89736420D01*
X142697254Y-89750318D01*
X142557641Y-89851752D01*
X142557636Y-89851756D01*
X142401756Y-90007636D01*
X142401752Y-90007641D01*
X142272187Y-90185974D01*
X142172104Y-90382393D01*
X142172103Y-90382396D01*
X142103985Y-90592047D01*
X142069500Y-90809778D01*
X142069500Y-91030221D01*
X142103985Y-91247952D01*
X142172103Y-91457603D01*
X142172104Y-91457606D01*
X142272187Y-91654025D01*
X142401752Y-91832358D01*
X142401756Y-91832363D01*
X142557636Y-91988243D01*
X142557641Y-91988247D01*
X142697254Y-92089682D01*
X142739920Y-92145012D01*
X142745899Y-92214625D01*
X142713293Y-92276420D01*
X142697254Y-92290318D01*
X142557641Y-92391752D01*
X142557636Y-92391756D01*
X142401756Y-92547636D01*
X142401752Y-92547641D01*
X142272187Y-92725974D01*
X142172104Y-92922393D01*
X142172103Y-92922396D01*
X142103985Y-93132047D01*
X142069500Y-93349778D01*
X142069500Y-93570221D01*
X142103985Y-93787952D01*
X142172103Y-93997603D01*
X142172104Y-93997606D01*
X142272187Y-94194025D01*
X142401752Y-94372358D01*
X142401756Y-94372363D01*
X142557636Y-94528243D01*
X142557641Y-94528247D01*
X142697254Y-94629682D01*
X142739920Y-94685012D01*
X142745899Y-94754625D01*
X142713293Y-94816420D01*
X142697254Y-94830318D01*
X142557641Y-94931752D01*
X142557636Y-94931756D01*
X142401756Y-95087636D01*
X142401752Y-95087641D01*
X142272187Y-95265974D01*
X142172104Y-95462393D01*
X142172103Y-95462396D01*
X142103985Y-95672047D01*
X142078084Y-95835579D01*
X142069500Y-95889778D01*
X142069500Y-96110222D01*
X142075311Y-96146912D01*
X142103985Y-96327952D01*
X142172103Y-96537603D01*
X142172104Y-96537606D01*
X142240122Y-96671096D01*
X142258592Y-96707345D01*
X142272187Y-96734025D01*
X142401752Y-96912358D01*
X142401756Y-96912363D01*
X142557636Y-97068243D01*
X142557641Y-97068247D01*
X142697254Y-97169682D01*
X142739920Y-97225012D01*
X142745899Y-97294625D01*
X142713293Y-97356420D01*
X142697254Y-97370318D01*
X142557641Y-97471752D01*
X142557636Y-97471756D01*
X142401756Y-97627636D01*
X142401752Y-97627641D01*
X142272187Y-97805974D01*
X142172104Y-98002393D01*
X142172103Y-98002396D01*
X142103985Y-98212047D01*
X142069500Y-98429778D01*
X142069500Y-98650221D01*
X142103985Y-98867952D01*
X142172103Y-99077603D01*
X142172104Y-99077606D01*
X142272187Y-99274025D01*
X142401752Y-99452358D01*
X142401756Y-99452363D01*
X142537254Y-99587861D01*
X142570739Y-99649184D01*
X142565755Y-99718876D01*
X142523883Y-99774809D01*
X142504670Y-99786629D01*
X142459248Y-99809157D01*
X142315059Y-99925059D01*
X142199156Y-100069249D01*
X142116964Y-100234976D01*
X142116963Y-100234978D01*
X142072317Y-100414500D01*
X142069500Y-100456048D01*
X142069500Y-101703951D01*
X142072317Y-101745499D01*
X142116963Y-101925021D01*
X142116964Y-101925023D01*
X142199156Y-102090750D01*
X142315059Y-102234940D01*
X142368398Y-102277815D01*
X142459247Y-102350842D01*
X142624979Y-102433037D01*
X142804501Y-102477682D01*
X142804502Y-102477682D01*
X142804505Y-102477683D01*
X142846046Y-102480500D01*
X143804218Y-102480500D01*
X143871257Y-102500185D01*
X143891899Y-102516819D01*
X147463181Y-106088101D01*
X147496666Y-106149424D01*
X147499500Y-106175782D01*
X147499500Y-109034218D01*
X147479815Y-109101257D01*
X147463181Y-109121899D01*
X145831899Y-110753181D01*
X145770576Y-110786666D01*
X145744218Y-110789500D01*
X145182178Y-110789500D01*
X145115139Y-110769815D01*
X145094497Y-110753181D01*
X145024938Y-110683622D01*
X144852317Y-110558204D01*
X144809652Y-110502873D01*
X144803673Y-110433260D01*
X144836279Y-110371465D01*
X144841591Y-110366861D01*
X144841717Y-110365270D01*
X144209408Y-109732962D01*
X144272993Y-109715925D01*
X144387007Y-109650099D01*
X144480099Y-109557007D01*
X144545925Y-109442993D01*
X144562962Y-109379409D01*
X145195270Y-110011717D01*
X145195270Y-110011716D01*
X145234622Y-109957554D01*
X145331095Y-109768217D01*
X145396757Y-109566130D01*
X145396757Y-109566127D01*
X145430000Y-109356246D01*
X145430000Y-109143753D01*
X145396757Y-108933872D01*
X145396757Y-108933869D01*
X145331095Y-108731782D01*
X145234624Y-108542449D01*
X145195270Y-108488282D01*
X145195269Y-108488282D01*
X144562962Y-109120590D01*
X144545925Y-109057007D01*
X144480099Y-108942993D01*
X144387007Y-108849901D01*
X144272993Y-108784075D01*
X144209409Y-108767037D01*
X144841716Y-108134728D01*
X144787550Y-108095375D01*
X144598217Y-107998904D01*
X144396129Y-107933242D01*
X144186246Y-107900000D01*
X143973754Y-107900000D01*
X143763872Y-107933242D01*
X143763869Y-107933242D01*
X143561782Y-107998904D01*
X143372439Y-108095380D01*
X143318282Y-108134727D01*
X143318282Y-108134728D01*
X143950591Y-108767037D01*
X143887007Y-108784075D01*
X143772993Y-108849901D01*
X143679901Y-108942993D01*
X143614075Y-109057007D01*
X143597037Y-109120591D01*
X142964728Y-108488282D01*
X142957992Y-108488812D01*
X142917100Y-108520345D01*
X142847487Y-108526324D01*
X142785692Y-108493718D01*
X142771794Y-108477680D01*
X142717213Y-108402557D01*
X142646379Y-108305063D01*
X142536819Y-108195503D01*
X142503334Y-108134180D01*
X142500500Y-108107822D01*
X142500500Y-105563962D01*
X142520185Y-105496923D01*
X142539623Y-105474650D01*
X142539211Y-105474238D01*
X142617003Y-105396446D01*
X142720793Y-105292656D01*
X142868870Y-105088845D01*
X142983241Y-104864379D01*
X143061090Y-104624785D01*
X143100500Y-104375962D01*
X143100500Y-104124038D01*
X143061090Y-103875215D01*
X142983241Y-103635621D01*
X142983239Y-103635618D01*
X142983239Y-103635616D01*
X142877161Y-103427428D01*
X142868870Y-103411155D01*
X142804544Y-103322617D01*
X142720798Y-103207350D01*
X142720794Y-103207345D01*
X142542654Y-103029205D01*
X142542649Y-103029201D01*
X142338848Y-102881132D01*
X142338847Y-102881131D01*
X142338845Y-102881130D01*
X142268747Y-102845413D01*
X142114383Y-102766760D01*
X141874785Y-102688910D01*
X141799557Y-102676995D01*
X141625962Y-102649500D01*
X141374038Y-102649500D01*
X141143897Y-102685950D01*
X141074604Y-102676995D01*
X141021152Y-102631999D01*
X141000513Y-102565247D01*
X141000500Y-102563477D01*
X141000500Y-87465782D01*
X141020185Y-87398743D01*
X141036819Y-87378101D01*
X141538102Y-86876819D01*
X141599425Y-86843334D01*
X141625783Y-86840500D01*
X141638458Y-86840500D01*
X141638459Y-86840500D01*
X141835539Y-86840500D01*
X142438531Y-86840500D01*
X142461027Y-86847105D01*
G37*
%TD.AperFunction*%
%TA.AperFunction,Conductor*%
G36*
X133512257Y-78101185D02*
G01*
X133532898Y-78117818D01*
X134272860Y-78857781D01*
X134272861Y-78857782D01*
X134369101Y-78954022D01*
X134412219Y-78997140D01*
X134576079Y-79106628D01*
X134576086Y-79106632D01*
X134686006Y-79152162D01*
X134758164Y-79182051D01*
X134819579Y-79194266D01*
X134826207Y-79196379D01*
X134849621Y-79212196D01*
X134874657Y-79225292D01*
X134876237Y-79226844D01*
X134937636Y-79288243D01*
X134937641Y-79288247D01*
X135077254Y-79389682D01*
X135093120Y-79410258D01*
X135111889Y-79428231D01*
X135114111Y-79437479D01*
X135119920Y-79445012D01*
X135122143Y-79470898D01*
X135128216Y-79496166D01*
X135125085Y-79505149D01*
X135125899Y-79514625D01*
X135113774Y-79537602D01*
X135105222Y-79562144D01*
X135095837Y-79571597D01*
X135093293Y-79576420D01*
X135080811Y-79587635D01*
X135079035Y-79589025D01*
X134937635Y-79691758D01*
X134900893Y-79728499D01*
X134894973Y-79733135D01*
X134869214Y-79743383D01*
X134844889Y-79756666D01*
X134832473Y-79758000D01*
X134830053Y-79758964D01*
X134827729Y-79758510D01*
X134818531Y-79759500D01*
X133321868Y-79759500D01*
X133254829Y-79739815D01*
X133224175Y-79710866D01*
X133223959Y-79711051D01*
X133222241Y-79709040D01*
X133221553Y-79708390D01*
X133220797Y-79707350D01*
X133220793Y-79707344D01*
X133042656Y-79529207D01*
X133042654Y-79529205D01*
X133042649Y-79529201D01*
X132838848Y-79381132D01*
X132838847Y-79381131D01*
X132838845Y-79381130D01*
X132768747Y-79345413D01*
X132614383Y-79266760D01*
X132374785Y-79188910D01*
X132331479Y-79182051D01*
X132125962Y-79149500D01*
X131874038Y-79149500D01*
X131749626Y-79169205D01*
X131625214Y-79188910D01*
X131385616Y-79266760D01*
X131161151Y-79381132D01*
X130957350Y-79529201D01*
X130957345Y-79529205D01*
X130779205Y-79707345D01*
X130779201Y-79707350D01*
X130631132Y-79911151D01*
X130516760Y-80135616D01*
X130438910Y-80375214D01*
X130414207Y-80531185D01*
X130399500Y-80624038D01*
X130399500Y-80875962D01*
X130432892Y-81086788D01*
X130438910Y-81124785D01*
X130516760Y-81364383D01*
X130573869Y-81476464D01*
X130611977Y-81551256D01*
X130631132Y-81588848D01*
X130779201Y-81792649D01*
X130779205Y-81792654D01*
X130957345Y-81970794D01*
X130957350Y-81970798D01*
X131095174Y-82070932D01*
X131161155Y-82118870D01*
X131289025Y-82184023D01*
X131385616Y-82233239D01*
X131385618Y-82233239D01*
X131385621Y-82233241D01*
X131625215Y-82311090D01*
X131874038Y-82350500D01*
X131874039Y-82350500D01*
X132125961Y-82350500D01*
X132125962Y-82350500D01*
X132374785Y-82311090D01*
X132614379Y-82233241D01*
X132617294Y-82231756D01*
X132620048Y-82230352D01*
X132838845Y-82118870D01*
X133042656Y-81970793D01*
X133216630Y-81796819D01*
X133277953Y-81763334D01*
X133304311Y-81760500D01*
X134818531Y-81760500D01*
X134841027Y-81767105D01*
X134864370Y-81769284D01*
X134877200Y-81777727D01*
X134885570Y-81780185D01*
X134894973Y-81786865D01*
X134900893Y-81791500D01*
X134937635Y-81828242D01*
X135079035Y-81930974D01*
X135080811Y-81932365D01*
X135099897Y-81959046D01*
X135119920Y-81985012D01*
X135120117Y-81987312D01*
X135121462Y-81989192D01*
X135123093Y-82021955D01*
X135125899Y-82054625D01*
X135124821Y-82056667D01*
X135124936Y-82058975D01*
X135108597Y-82087415D01*
X135093293Y-82116420D01*
X135090587Y-82118764D01*
X135090131Y-82119559D01*
X135088985Y-82120152D01*
X135077254Y-82130318D01*
X134937641Y-82231752D01*
X134937636Y-82231756D01*
X134781756Y-82387636D01*
X134781752Y-82387641D01*
X134652187Y-82565974D01*
X134552104Y-82762393D01*
X134552103Y-82762396D01*
X134483985Y-82972047D01*
X134449500Y-83189778D01*
X134449500Y-83410221D01*
X134483985Y-83627952D01*
X134552103Y-83837603D01*
X134552104Y-83837606D01*
X134613328Y-83957762D01*
X134640011Y-84010130D01*
X134652187Y-84034025D01*
X134781752Y-84212358D01*
X134781756Y-84212363D01*
X134937636Y-84368243D01*
X134937641Y-84368247D01*
X135115976Y-84497814D01*
X135115978Y-84497815D01*
X135135054Y-84507535D01*
X135152979Y-84516668D01*
X135203775Y-84564642D01*
X135220571Y-84632463D01*
X135198034Y-84698598D01*
X135169571Y-84727471D01*
X135003105Y-84848416D01*
X134858417Y-84993104D01*
X134858417Y-84993105D01*
X134738140Y-85158650D01*
X134645244Y-85340970D01*
X134582009Y-85535586D01*
X134573391Y-85590000D01*
X135934314Y-85590000D01*
X135929920Y-85594394D01*
X135877259Y-85685606D01*
X135850000Y-85787339D01*
X135850000Y-85892661D01*
X135877259Y-85994394D01*
X135929920Y-86085606D01*
X135934314Y-86090000D01*
X134573391Y-86090000D01*
X134582009Y-86144413D01*
X134645244Y-86339029D01*
X134738140Y-86521349D01*
X134858417Y-86686894D01*
X134858417Y-86686895D01*
X135003104Y-86831582D01*
X135169571Y-86952528D01*
X135212236Y-87007858D01*
X135218215Y-87077471D01*
X135185609Y-87139266D01*
X135152981Y-87163330D01*
X135115976Y-87182185D01*
X134937641Y-87311752D01*
X134937635Y-87311757D01*
X134919835Y-87329557D01*
X134858511Y-87363041D01*
X134788820Y-87358055D01*
X134744475Y-87329555D01*
X131781479Y-84366559D01*
X131781459Y-84366537D01*
X131637785Y-84222863D01*
X131637781Y-84222860D01*
X131473920Y-84113371D01*
X131473907Y-84113364D01*
X131330873Y-84054118D01*
X131330867Y-84054116D01*
X131322136Y-84050500D01*
X131291836Y-84037949D01*
X131151981Y-84010130D01*
X131149309Y-84009598D01*
X131149307Y-84009598D01*
X131098542Y-83999500D01*
X131098541Y-83999500D01*
X125582491Y-83999500D01*
X125515452Y-83979815D01*
X125469697Y-83927011D01*
X125459753Y-83857853D01*
X125476765Y-83810708D01*
X125478865Y-83807279D01*
X125478870Y-83807273D01*
X125593241Y-83582807D01*
X125671090Y-83343213D01*
X125710500Y-83094390D01*
X125710500Y-82842466D01*
X125710500Y-82837594D01*
X125712028Y-82837594D01*
X125724979Y-82775843D01*
X125746568Y-82746778D01*
X128201586Y-80291761D01*
X128201590Y-80291759D01*
X128340947Y-80152402D01*
X128450440Y-79988534D01*
X128473355Y-79933212D01*
X128508802Y-79847636D01*
X128508802Y-79847635D01*
X128525859Y-79806456D01*
X128564308Y-79613160D01*
X128564308Y-79416080D01*
X128564308Y-78717940D01*
X128583993Y-78650901D01*
X128600627Y-78630259D01*
X129113068Y-78117819D01*
X129174391Y-78084334D01*
X129200749Y-78081500D01*
X133445218Y-78081500D01*
X133512257Y-78101185D01*
G37*
%TD.AperFunction*%
%TA.AperFunction,Conductor*%
G36*
X148677703Y-67244069D02*
G01*
X148684181Y-67250101D01*
X150463181Y-69029101D01*
X150496666Y-69090424D01*
X150499500Y-69116782D01*
X150499500Y-81484217D01*
X150479815Y-81551256D01*
X150463181Y-81571898D01*
X145862376Y-86172703D01*
X145801053Y-86206188D01*
X145731361Y-86201204D01*
X145675428Y-86159332D01*
X145651011Y-86093868D01*
X145652222Y-86065624D01*
X145670500Y-85950221D01*
X145670500Y-85729778D01*
X145656151Y-85639181D01*
X145636015Y-85512049D01*
X145567895Y-85302394D01*
X145567895Y-85302393D01*
X145533237Y-85234375D01*
X145467815Y-85105978D01*
X145451260Y-85083192D01*
X145338247Y-84927641D01*
X145338243Y-84927636D01*
X145182363Y-84771756D01*
X145182358Y-84771752D01*
X145004025Y-84642187D01*
X145004024Y-84642186D01*
X145004022Y-84642185D01*
X144967018Y-84623330D01*
X144916223Y-84575356D01*
X144899428Y-84507535D01*
X144921966Y-84441400D01*
X144950429Y-84412528D01*
X145116889Y-84291587D01*
X145116895Y-84291582D01*
X145261582Y-84146895D01*
X145261582Y-84146894D01*
X145381859Y-83981349D01*
X145474755Y-83799029D01*
X145537990Y-83604413D01*
X145546609Y-83550000D01*
X144185686Y-83550000D01*
X144190080Y-83545606D01*
X144242741Y-83454394D01*
X144270000Y-83352661D01*
X144270000Y-83247339D01*
X144242741Y-83145606D01*
X144190080Y-83054394D01*
X144185686Y-83050000D01*
X145546609Y-83050000D01*
X145537990Y-82995586D01*
X145474755Y-82800970D01*
X145381859Y-82618650D01*
X145261582Y-82453105D01*
X145261582Y-82453104D01*
X145116895Y-82308417D01*
X144950428Y-82187471D01*
X144907763Y-82132141D01*
X144901784Y-82062527D01*
X144934390Y-82000732D01*
X144967015Y-81976670D01*
X145004022Y-81957815D01*
X145182365Y-81828242D01*
X145338242Y-81672365D01*
X145418705Y-81561615D01*
X145474035Y-81518949D01*
X145519024Y-81510500D01*
X147879763Y-81510500D01*
X147936059Y-81524016D01*
X147947550Y-81529871D01*
X147947552Y-81529871D01*
X147947555Y-81529873D01*
X148112299Y-81583402D01*
X148283389Y-81610500D01*
X148283390Y-81610500D01*
X148456610Y-81610500D01*
X148456611Y-81610500D01*
X148627701Y-81583402D01*
X148792445Y-81529873D01*
X148946788Y-81451232D01*
X149086928Y-81349414D01*
X149209414Y-81226928D01*
X149311232Y-81086788D01*
X149389873Y-80932445D01*
X149443402Y-80767701D01*
X149470500Y-80596611D01*
X149470500Y-80423389D01*
X149443402Y-80252299D01*
X149389873Y-80087555D01*
X149311232Y-79933212D01*
X149209414Y-79793072D01*
X149086928Y-79670586D01*
X149072795Y-79660317D01*
X149030129Y-79604989D01*
X149024150Y-79535376D01*
X149056755Y-79473581D01*
X149072792Y-79459684D01*
X149086928Y-79449414D01*
X149209414Y-79326928D01*
X149311232Y-79186788D01*
X149389873Y-79032445D01*
X149443402Y-78867701D01*
X149470500Y-78696611D01*
X149470500Y-78523389D01*
X149443402Y-78352299D01*
X149389873Y-78187555D01*
X149311232Y-78033212D01*
X149209414Y-77893072D01*
X149086928Y-77770586D01*
X148946788Y-77668768D01*
X148792445Y-77590127D01*
X148627701Y-77536598D01*
X148627699Y-77536597D01*
X148627698Y-77536597D01*
X148496271Y-77515781D01*
X148456611Y-77509500D01*
X148283389Y-77509500D01*
X148243728Y-77515781D01*
X148112302Y-77536597D01*
X147947550Y-77590128D01*
X147936059Y-77595984D01*
X147879763Y-77609500D01*
X145606740Y-77609500D01*
X145539701Y-77589815D01*
X145496255Y-77541795D01*
X145493607Y-77536598D01*
X145467815Y-77485978D01*
X145467813Y-77485975D01*
X145467812Y-77485973D01*
X145338247Y-77307641D01*
X145338243Y-77307636D01*
X145182363Y-77151756D01*
X145182358Y-77151752D01*
X145042745Y-77050318D01*
X145000079Y-76994989D01*
X144994100Y-76925375D01*
X145026705Y-76863580D01*
X145042745Y-76849682D01*
X145182358Y-76748247D01*
X145182356Y-76748247D01*
X145182365Y-76748242D01*
X145338242Y-76592365D01*
X145467815Y-76414022D01*
X145567895Y-76217606D01*
X145636015Y-76007951D01*
X145636813Y-76002914D01*
X145666740Y-75939778D01*
X145671588Y-75934644D01*
X148249139Y-73357096D01*
X148275645Y-73317427D01*
X148303268Y-73276087D01*
X148303268Y-73276086D01*
X148320550Y-73250221D01*
X148358632Y-73193228D01*
X148428052Y-73025632D01*
X148434051Y-73011150D01*
X148469372Y-72833580D01*
X148472500Y-72817855D01*
X148472500Y-67337782D01*
X148492185Y-67270743D01*
X148544989Y-67224988D01*
X148614147Y-67215044D01*
X148677703Y-67244069D01*
G37*
%TD.AperFunction*%
%TA.AperFunction,Conductor*%
G36*
X154442539Y-40520185D02*
G01*
X154488294Y-40572989D01*
X154499500Y-40624500D01*
X154499500Y-119375500D01*
X154479815Y-119442539D01*
X154427011Y-119488294D01*
X154375500Y-119499500D01*
X55624500Y-119499500D01*
X55557461Y-119479815D01*
X55511706Y-119427011D01*
X55500500Y-119375500D01*
X55500500Y-112131947D01*
X61750000Y-112131947D01*
X61750000Y-112368052D01*
X61786934Y-112601247D01*
X61859897Y-112825802D01*
X61967087Y-113036174D01*
X62027338Y-113119104D01*
X62027340Y-113119105D01*
X62726212Y-112420233D01*
X62737482Y-112462292D01*
X62809890Y-112587708D01*
X62912292Y-112690110D01*
X63037708Y-112762518D01*
X63079765Y-112773787D01*
X62380893Y-113472658D01*
X62463828Y-113532914D01*
X62674197Y-113640102D01*
X62898752Y-113713065D01*
X62898751Y-113713065D01*
X63131948Y-113750000D01*
X63368052Y-113750000D01*
X63601247Y-113713065D01*
X63825802Y-113640102D01*
X64036163Y-113532918D01*
X64036169Y-113532914D01*
X64119104Y-113472658D01*
X64119105Y-113472658D01*
X63420233Y-112773787D01*
X63462292Y-112762518D01*
X63587708Y-112690110D01*
X63690110Y-112587708D01*
X63762518Y-112462292D01*
X63773787Y-112420234D01*
X64472658Y-113119105D01*
X64472658Y-113119104D01*
X64532914Y-113036169D01*
X64532918Y-113036163D01*
X64640102Y-112825802D01*
X64713065Y-112601247D01*
X64750000Y-112368052D01*
X64750000Y-112131947D01*
X64713065Y-111898752D01*
X64640102Y-111674197D01*
X64532914Y-111463828D01*
X64472658Y-111380894D01*
X64472658Y-111380893D01*
X63773787Y-112079765D01*
X63762518Y-112037708D01*
X63690110Y-111912292D01*
X63587708Y-111809890D01*
X63462292Y-111737482D01*
X63420234Y-111726212D01*
X64119105Y-111027340D01*
X64119104Y-111027338D01*
X64036174Y-110967087D01*
X63825802Y-110859897D01*
X63601247Y-110786934D01*
X63601248Y-110786934D01*
X63368052Y-110750000D01*
X63131948Y-110750000D01*
X62898752Y-110786934D01*
X62674197Y-110859897D01*
X62463830Y-110967084D01*
X62380894Y-111027340D01*
X63079766Y-111726212D01*
X63037708Y-111737482D01*
X62912292Y-111809890D01*
X62809890Y-111912292D01*
X62737482Y-112037708D01*
X62726212Y-112079766D01*
X62027340Y-111380894D01*
X61967084Y-111463830D01*
X61859897Y-111674197D01*
X61786934Y-111898752D01*
X61750000Y-112131947D01*
X55500500Y-112131947D01*
X55500500Y-105631947D01*
X61750000Y-105631947D01*
X61750000Y-105868052D01*
X61786934Y-106101247D01*
X61859897Y-106325802D01*
X61967087Y-106536174D01*
X62027338Y-106619104D01*
X62027340Y-106619105D01*
X62726212Y-105920233D01*
X62737482Y-105962292D01*
X62809890Y-106087708D01*
X62912292Y-106190110D01*
X63037708Y-106262518D01*
X63079765Y-106273787D01*
X62380893Y-106972658D01*
X62463828Y-107032914D01*
X62674197Y-107140102D01*
X62898752Y-107213065D01*
X62898751Y-107213065D01*
X63131948Y-107250000D01*
X63368052Y-107250000D01*
X63601247Y-107213065D01*
X63825802Y-107140102D01*
X64036163Y-107032918D01*
X64036169Y-107032914D01*
X64119104Y-106972658D01*
X64119105Y-106972658D01*
X63420233Y-106273787D01*
X63462292Y-106262518D01*
X63587708Y-106190110D01*
X63690110Y-106087708D01*
X63762518Y-105962292D01*
X63773787Y-105920234D01*
X64472658Y-106619105D01*
X64472658Y-106619104D01*
X64532914Y-106536169D01*
X64532918Y-106536163D01*
X64640102Y-106325802D01*
X64713065Y-106101247D01*
X64750000Y-105868052D01*
X64750000Y-105631949D01*
X64749999Y-105631946D01*
X64748747Y-105624038D01*
X66149500Y-105624038D01*
X66149500Y-105875962D01*
X66168237Y-105994262D01*
X66188910Y-106124785D01*
X66266760Y-106364383D01*
X66381132Y-106588848D01*
X66529201Y-106792649D01*
X66529205Y-106792654D01*
X66710789Y-106974238D01*
X66709714Y-106975312D01*
X66744225Y-107028180D01*
X66749500Y-107063962D01*
X66749500Y-110936037D01*
X66729815Y-111003076D01*
X66710376Y-111025350D01*
X66710788Y-111025762D01*
X66529205Y-111207345D01*
X66529201Y-111207350D01*
X66381132Y-111411151D01*
X66266760Y-111635616D01*
X66188910Y-111875214D01*
X66163173Y-112037708D01*
X66149500Y-112124038D01*
X66149500Y-112375962D01*
X66164656Y-112471651D01*
X66188910Y-112624785D01*
X66266760Y-112864383D01*
X66381132Y-113088848D01*
X66529201Y-113292649D01*
X66529205Y-113292654D01*
X66707345Y-113470794D01*
X66707350Y-113470798D01*
X66885117Y-113599952D01*
X66911155Y-113618870D01*
X67054184Y-113691747D01*
X67135616Y-113733239D01*
X67135618Y-113733239D01*
X67135621Y-113733241D01*
X67375215Y-113811090D01*
X67624038Y-113850500D01*
X67624039Y-113850500D01*
X67880834Y-113850500D01*
X67880834Y-113852030D01*
X67942577Y-113864976D01*
X67971651Y-113886571D01*
X71469735Y-117384655D01*
X71469764Y-117384686D01*
X71612214Y-117527136D01*
X71612218Y-117527139D01*
X71776079Y-117636628D01*
X71776092Y-117636635D01*
X71904833Y-117689961D01*
X71947744Y-117707735D01*
X71958164Y-117712051D01*
X72054812Y-117731275D01*
X72103135Y-117740887D01*
X72151458Y-117750500D01*
X72151459Y-117750500D01*
X72151460Y-117750500D01*
X72348540Y-117750500D01*
X118936038Y-117750500D01*
X119003077Y-117770185D01*
X119025349Y-117789623D01*
X119025762Y-117789211D01*
X119207345Y-117970794D01*
X119207350Y-117970798D01*
X119385117Y-118099952D01*
X119411155Y-118118870D01*
X119554184Y-118191747D01*
X119635616Y-118233239D01*
X119635618Y-118233239D01*
X119635621Y-118233241D01*
X119875215Y-118311090D01*
X120124038Y-118350500D01*
X120124039Y-118350500D01*
X120375961Y-118350500D01*
X120375962Y-118350500D01*
X120624785Y-118311090D01*
X120864379Y-118233241D01*
X121088845Y-118118870D01*
X121292656Y-117970793D01*
X121470793Y-117792656D01*
X121618870Y-117588845D01*
X121733241Y-117364379D01*
X121811090Y-117124785D01*
X121850500Y-116875962D01*
X121850500Y-116624038D01*
X121811090Y-116375215D01*
X121733241Y-116135621D01*
X121733239Y-116135618D01*
X121733239Y-116135616D01*
X121691747Y-116054184D01*
X121618870Y-115911155D01*
X121532776Y-115792656D01*
X121470798Y-115707350D01*
X121470794Y-115707345D01*
X121292654Y-115529205D01*
X121292649Y-115529201D01*
X121088848Y-115381132D01*
X121088847Y-115381131D01*
X121088845Y-115381130D01*
X121018747Y-115345413D01*
X120864383Y-115266760D01*
X120624785Y-115188910D01*
X120375962Y-115149500D01*
X120124038Y-115149500D01*
X119999626Y-115169205D01*
X119875214Y-115188910D01*
X119635616Y-115266760D01*
X119411151Y-115381132D01*
X119207350Y-115529201D01*
X119207345Y-115529205D01*
X119025762Y-115710789D01*
X119024687Y-115709714D01*
X118971820Y-115744225D01*
X118936038Y-115749500D01*
X72715782Y-115749500D01*
X72648743Y-115729815D01*
X72628101Y-115713181D01*
X69386571Y-112471651D01*
X69353086Y-112410328D01*
X69351088Y-112380834D01*
X69350500Y-112380834D01*
X69350500Y-112131947D01*
X73000000Y-112131947D01*
X73000000Y-112368052D01*
X73036934Y-112601247D01*
X73109897Y-112825802D01*
X73217087Y-113036174D01*
X73277338Y-113119104D01*
X73277340Y-113119105D01*
X73976212Y-112420233D01*
X73987482Y-112462292D01*
X74059890Y-112587708D01*
X74162292Y-112690110D01*
X74287708Y-112762518D01*
X74329765Y-112773787D01*
X73630893Y-113472658D01*
X73713828Y-113532914D01*
X73924197Y-113640102D01*
X74148752Y-113713065D01*
X74148751Y-113713065D01*
X74381948Y-113750000D01*
X74618052Y-113750000D01*
X74851247Y-113713065D01*
X75075802Y-113640102D01*
X75286163Y-113532918D01*
X75286169Y-113532914D01*
X75369104Y-113472658D01*
X75369105Y-113472658D01*
X74670233Y-112773787D01*
X74712292Y-112762518D01*
X74837708Y-112690110D01*
X74940110Y-112587708D01*
X75012518Y-112462292D01*
X75023787Y-112420233D01*
X75722658Y-113119105D01*
X75722658Y-113119104D01*
X75782914Y-113036169D01*
X75782918Y-113036163D01*
X75890102Y-112825802D01*
X75963065Y-112601247D01*
X76000000Y-112368052D01*
X76000000Y-112131947D01*
X75963065Y-111898752D01*
X75890102Y-111674197D01*
X75782914Y-111463828D01*
X75722658Y-111380894D01*
X75722658Y-111380893D01*
X75023787Y-112079765D01*
X75012518Y-112037708D01*
X74940110Y-111912292D01*
X74837708Y-111809890D01*
X74712292Y-111737482D01*
X74670234Y-111726212D01*
X75369105Y-111027340D01*
X75369104Y-111027338D01*
X75286174Y-110967087D01*
X75075802Y-110859897D01*
X74851247Y-110786934D01*
X74851248Y-110786934D01*
X74618052Y-110750000D01*
X74381948Y-110750000D01*
X74148752Y-110786934D01*
X73924197Y-110859897D01*
X73713830Y-110967084D01*
X73630894Y-111027340D01*
X74329766Y-111726212D01*
X74287708Y-111737482D01*
X74162292Y-111809890D01*
X74059890Y-111912292D01*
X73987482Y-112037708D01*
X73976212Y-112079766D01*
X73277340Y-111380894D01*
X73217084Y-111463830D01*
X73109897Y-111674197D01*
X73036934Y-111898752D01*
X73000000Y-112131947D01*
X69350500Y-112131947D01*
X69350500Y-112124038D01*
X69311090Y-111875215D01*
X69233241Y-111635621D01*
X69233239Y-111635618D01*
X69233239Y-111635616D01*
X69145708Y-111463828D01*
X69118870Y-111411155D01*
X69096883Y-111380893D01*
X68970798Y-111207350D01*
X68970794Y-111207345D01*
X68925839Y-111162390D01*
X68792656Y-111029207D01*
X68791424Y-111028312D01*
X68786929Y-111023828D01*
X68772357Y-110997221D01*
X68755774Y-110971815D01*
X68754791Y-110965147D01*
X68753367Y-110962547D01*
X68753702Y-110957765D01*
X68750500Y-110936037D01*
X68750500Y-107063962D01*
X68770185Y-106996923D01*
X68789623Y-106974650D01*
X68789211Y-106974238D01*
X68925731Y-106837718D01*
X68970793Y-106792656D01*
X69118870Y-106588845D01*
X69233241Y-106364379D01*
X69311090Y-106124785D01*
X69350500Y-105875962D01*
X69350500Y-105624038D01*
X69311090Y-105375215D01*
X69233241Y-105135621D01*
X69233239Y-105135618D01*
X69233239Y-105135616D01*
X69145708Y-104963828D01*
X69118870Y-104911155D01*
X69046168Y-104811089D01*
X68970798Y-104707350D01*
X68970794Y-104707345D01*
X68792654Y-104529205D01*
X68792649Y-104529201D01*
X68588848Y-104381132D01*
X68588847Y-104381131D01*
X68588845Y-104381130D01*
X68518747Y-104345413D01*
X68364383Y-104266760D01*
X68124785Y-104188910D01*
X68003751Y-104169740D01*
X67875962Y-104149500D01*
X67624038Y-104149500D01*
X67499626Y-104169205D01*
X67375214Y-104188910D01*
X67135616Y-104266760D01*
X66911151Y-104381132D01*
X66707350Y-104529201D01*
X66707345Y-104529205D01*
X66529205Y-104707345D01*
X66529201Y-104707350D01*
X66381132Y-104911151D01*
X66266760Y-105135616D01*
X66188910Y-105375214D01*
X66182107Y-105418164D01*
X66149500Y-105624038D01*
X64748747Y-105624038D01*
X64713065Y-105398752D01*
X64640102Y-105174197D01*
X64532914Y-104963828D01*
X64472658Y-104880894D01*
X64472658Y-104880893D01*
X63773787Y-105579765D01*
X63762518Y-105537708D01*
X63690110Y-105412292D01*
X63587708Y-105309890D01*
X63462292Y-105237482D01*
X63420234Y-105226212D01*
X64119105Y-104527340D01*
X64119104Y-104527338D01*
X64036174Y-104467087D01*
X63825802Y-104359897D01*
X63601247Y-104286934D01*
X63601248Y-104286934D01*
X63368052Y-104250000D01*
X63131948Y-104250000D01*
X62898752Y-104286934D01*
X62674197Y-104359897D01*
X62463830Y-104467084D01*
X62380894Y-104527340D01*
X63079766Y-105226212D01*
X63037708Y-105237482D01*
X62912292Y-105309890D01*
X62809890Y-105412292D01*
X62737482Y-105537708D01*
X62726212Y-105579766D01*
X62027340Y-104880894D01*
X61967084Y-104963830D01*
X61859897Y-105174197D01*
X61786934Y-105398752D01*
X61750000Y-105631947D01*
X55500500Y-105631947D01*
X55500500Y-82446294D01*
X58999500Y-82446294D01*
X58999500Y-88262757D01*
X59034546Y-88438945D01*
X59037948Y-88456044D01*
X59037949Y-88456050D01*
X59113364Y-88638120D01*
X59113371Y-88638133D01*
X59222859Y-88801993D01*
X59222860Y-88801994D01*
X59222861Y-88801995D01*
X59362218Y-88941352D01*
X59362219Y-88941352D01*
X59369286Y-88948419D01*
X59369285Y-88948419D01*
X59369288Y-88948421D01*
X74459593Y-104038726D01*
X74493077Y-104100048D01*
X74488093Y-104169740D01*
X74446221Y-104225673D01*
X74386588Y-104248164D01*
X74386759Y-104249238D01*
X74148752Y-104286934D01*
X73924197Y-104359897D01*
X73713830Y-104467084D01*
X73630894Y-104527340D01*
X74329766Y-105226212D01*
X74287708Y-105237482D01*
X74162292Y-105309890D01*
X74059890Y-105412292D01*
X73987482Y-105537708D01*
X73976212Y-105579766D01*
X73277340Y-104880894D01*
X73217084Y-104963830D01*
X73109897Y-105174197D01*
X73036934Y-105398752D01*
X73000000Y-105631947D01*
X73000000Y-105868052D01*
X73036934Y-106101247D01*
X73109897Y-106325802D01*
X73217087Y-106536174D01*
X73277338Y-106619104D01*
X73277340Y-106619105D01*
X73976212Y-105920233D01*
X73987482Y-105962292D01*
X74059890Y-106087708D01*
X74162292Y-106190110D01*
X74287708Y-106262518D01*
X74329765Y-106273787D01*
X73630893Y-106972658D01*
X73713828Y-107032914D01*
X73924197Y-107140102D01*
X74148752Y-107213065D01*
X74148751Y-107213065D01*
X74381948Y-107250000D01*
X74618052Y-107250000D01*
X74851247Y-107213065D01*
X75075802Y-107140102D01*
X75286163Y-107032918D01*
X75286169Y-107032914D01*
X75369104Y-106972658D01*
X75369105Y-106972658D01*
X74670233Y-106273787D01*
X74712292Y-106262518D01*
X74837708Y-106190110D01*
X74940110Y-106087708D01*
X75012518Y-105962292D01*
X75023787Y-105920233D01*
X75722658Y-106619105D01*
X75722658Y-106619104D01*
X75782914Y-106536169D01*
X75782918Y-106536163D01*
X75890102Y-106325802D01*
X75963065Y-106101247D01*
X76000762Y-105863241D01*
X76001860Y-105863415D01*
X76024856Y-105803074D01*
X76081086Y-105761601D01*
X76150811Y-105757112D01*
X76211271Y-105790405D01*
X76808647Y-106387781D01*
X76808648Y-106387782D01*
X76948005Y-106527139D01*
X76948006Y-106527140D01*
X77040359Y-106588848D01*
X77111873Y-106636632D01*
X77197383Y-106672051D01*
X77293951Y-106712051D01*
X77487241Y-106750499D01*
X77487244Y-106750500D01*
X77487246Y-106750500D01*
X77686038Y-106750500D01*
X77753077Y-106770185D01*
X77775349Y-106789623D01*
X77775762Y-106789211D01*
X77960789Y-106974238D01*
X77959714Y-106975312D01*
X77994225Y-107028180D01*
X77999500Y-107063962D01*
X77999500Y-110936037D01*
X77979815Y-111003076D01*
X77960376Y-111025350D01*
X77960788Y-111025762D01*
X77779205Y-111207345D01*
X77779201Y-111207350D01*
X77631132Y-111411151D01*
X77516760Y-111635616D01*
X77438910Y-111875214D01*
X77413173Y-112037708D01*
X77399500Y-112124038D01*
X77399500Y-112375962D01*
X77414656Y-112471651D01*
X77438910Y-112624785D01*
X77516760Y-112864383D01*
X77631132Y-113088848D01*
X77779201Y-113292649D01*
X77779205Y-113292654D01*
X77957345Y-113470794D01*
X77957350Y-113470798D01*
X78135117Y-113599952D01*
X78161155Y-113618870D01*
X78304184Y-113691747D01*
X78385616Y-113733239D01*
X78385618Y-113733239D01*
X78385621Y-113733241D01*
X78625215Y-113811090D01*
X78874038Y-113850500D01*
X78874039Y-113850500D01*
X79125961Y-113850500D01*
X79125962Y-113850500D01*
X79374785Y-113811090D01*
X79614379Y-113733241D01*
X79838845Y-113618870D01*
X80042656Y-113470793D01*
X80220793Y-113292656D01*
X80368870Y-113088845D01*
X80483241Y-112864379D01*
X80561090Y-112624785D01*
X80600500Y-112375962D01*
X80600500Y-112131947D01*
X84250000Y-112131947D01*
X84250000Y-112368052D01*
X84286934Y-112601247D01*
X84359897Y-112825802D01*
X84467087Y-113036174D01*
X84527338Y-113119104D01*
X84527340Y-113119105D01*
X85226212Y-112420233D01*
X85237482Y-112462292D01*
X85309890Y-112587708D01*
X85412292Y-112690110D01*
X85537708Y-112762518D01*
X85579765Y-112773787D01*
X84880893Y-113472658D01*
X84963828Y-113532914D01*
X85174197Y-113640102D01*
X85398752Y-113713065D01*
X85398751Y-113713065D01*
X85631948Y-113750000D01*
X85868052Y-113750000D01*
X86101247Y-113713065D01*
X86325802Y-113640102D01*
X86536163Y-113532918D01*
X86536169Y-113532914D01*
X86619104Y-113472658D01*
X86619105Y-113472658D01*
X85920233Y-112773787D01*
X85962292Y-112762518D01*
X86087708Y-112690110D01*
X86190110Y-112587708D01*
X86262518Y-112462292D01*
X86273787Y-112420234D01*
X86972658Y-113119105D01*
X86972658Y-113119104D01*
X87032914Y-113036169D01*
X87032918Y-113036163D01*
X87140102Y-112825802D01*
X87213065Y-112601247D01*
X87250000Y-112368052D01*
X87250000Y-112131947D01*
X87213065Y-111898752D01*
X87140102Y-111674197D01*
X87032914Y-111463828D01*
X86972658Y-111380894D01*
X86972658Y-111380893D01*
X86273787Y-112079765D01*
X86262518Y-112037708D01*
X86190110Y-111912292D01*
X86087708Y-111809890D01*
X85962292Y-111737482D01*
X85920234Y-111726212D01*
X86619105Y-111027340D01*
X86619104Y-111027338D01*
X86536174Y-110967087D01*
X86325802Y-110859897D01*
X86101247Y-110786934D01*
X86101248Y-110786934D01*
X85868052Y-110750000D01*
X85631948Y-110750000D01*
X85398752Y-110786934D01*
X85174197Y-110859897D01*
X84963830Y-110967084D01*
X84880894Y-111027340D01*
X85579766Y-111726212D01*
X85537708Y-111737482D01*
X85412292Y-111809890D01*
X85309890Y-111912292D01*
X85237482Y-112037708D01*
X85226212Y-112079766D01*
X84527340Y-111380894D01*
X84467084Y-111463830D01*
X84359897Y-111674197D01*
X84286934Y-111898752D01*
X84250000Y-112131947D01*
X80600500Y-112131947D01*
X80600500Y-112124038D01*
X80561090Y-111875215D01*
X80483241Y-111635621D01*
X80483239Y-111635618D01*
X80483239Y-111635616D01*
X80395708Y-111463828D01*
X80368870Y-111411155D01*
X80346883Y-111380893D01*
X80220798Y-111207350D01*
X80220794Y-111207345D01*
X80175839Y-111162390D01*
X80042656Y-111029207D01*
X80041424Y-111028312D01*
X80036929Y-111023828D01*
X80022357Y-110997221D01*
X80005774Y-110971815D01*
X80004791Y-110965147D01*
X80003367Y-110962547D01*
X80003702Y-110957765D01*
X80000500Y-110936037D01*
X80000500Y-107063962D01*
X80020185Y-106996923D01*
X80039623Y-106974650D01*
X80039211Y-106974238D01*
X80175731Y-106837718D01*
X80220793Y-106792656D01*
X80368870Y-106588845D01*
X80483241Y-106364379D01*
X80561090Y-106124785D01*
X80600500Y-105875962D01*
X80600500Y-105631947D01*
X84250000Y-105631947D01*
X84250000Y-105868052D01*
X84286934Y-106101247D01*
X84359897Y-106325802D01*
X84467087Y-106536174D01*
X84527338Y-106619104D01*
X84527340Y-106619105D01*
X85226212Y-105920233D01*
X85237482Y-105962292D01*
X85309890Y-106087708D01*
X85412292Y-106190110D01*
X85537708Y-106262518D01*
X85579765Y-106273787D01*
X84880893Y-106972658D01*
X84963828Y-107032914D01*
X85174197Y-107140102D01*
X85398752Y-107213065D01*
X85398751Y-107213065D01*
X85631948Y-107250000D01*
X85868052Y-107250000D01*
X86101247Y-107213065D01*
X86325802Y-107140102D01*
X86536163Y-107032918D01*
X86536169Y-107032914D01*
X86619104Y-106972658D01*
X86619105Y-106972658D01*
X85920233Y-106273787D01*
X85962292Y-106262518D01*
X86087708Y-106190110D01*
X86190110Y-106087708D01*
X86262518Y-105962292D01*
X86273787Y-105920234D01*
X86972658Y-106619105D01*
X86972658Y-106619104D01*
X87032914Y-106536169D01*
X87032918Y-106536163D01*
X87140102Y-106325802D01*
X87213065Y-106101247D01*
X87250000Y-105868052D01*
X87250000Y-105631947D01*
X87213065Y-105398752D01*
X87140102Y-105174197D01*
X87032914Y-104963828D01*
X86972658Y-104880894D01*
X86972658Y-104880893D01*
X86273787Y-105579765D01*
X86262518Y-105537708D01*
X86190110Y-105412292D01*
X86087708Y-105309890D01*
X85962292Y-105237482D01*
X85920234Y-105226212D01*
X86619105Y-104527340D01*
X86619104Y-104527338D01*
X86536174Y-104467087D01*
X86325802Y-104359897D01*
X86101247Y-104286934D01*
X86101248Y-104286934D01*
X85868052Y-104250000D01*
X85631948Y-104250000D01*
X85398752Y-104286934D01*
X85174197Y-104359897D01*
X84963830Y-104467084D01*
X84880894Y-104527340D01*
X85579766Y-105226212D01*
X85537708Y-105237482D01*
X85412292Y-105309890D01*
X85309890Y-105412292D01*
X85237482Y-105537708D01*
X85226212Y-105579766D01*
X84527340Y-104880894D01*
X84467084Y-104963830D01*
X84359897Y-105174197D01*
X84286934Y-105398752D01*
X84250000Y-105631947D01*
X80600500Y-105631947D01*
X80600500Y-105624038D01*
X80561090Y-105375215D01*
X80483241Y-105135621D01*
X80483239Y-105135618D01*
X80483239Y-105135616D01*
X80395708Y-104963828D01*
X80368870Y-104911155D01*
X80296168Y-104811089D01*
X80220798Y-104707350D01*
X80220794Y-104707345D01*
X80042654Y-104529205D01*
X80042649Y-104529201D01*
X79838848Y-104381132D01*
X79838847Y-104381131D01*
X79838845Y-104381130D01*
X79768747Y-104345413D01*
X79614383Y-104266760D01*
X79374785Y-104188910D01*
X79253751Y-104169740D01*
X79125962Y-104149500D01*
X78874038Y-104149500D01*
X78749626Y-104169205D01*
X78625214Y-104188910D01*
X78385616Y-104266760D01*
X78161151Y-104381132D01*
X77957347Y-104529203D01*
X77957337Y-104529212D01*
X77956290Y-104530259D01*
X77955795Y-104530528D01*
X77953640Y-104532370D01*
X77953252Y-104531916D01*
X77894959Y-104563730D01*
X77825269Y-104558730D01*
X77780947Y-104530239D01*
X72812889Y-99562181D01*
X72779404Y-99500858D01*
X72784388Y-99431166D01*
X72826260Y-99375233D01*
X72891724Y-99350816D01*
X72900570Y-99350500D01*
X73125961Y-99350500D01*
X73125962Y-99350500D01*
X73374785Y-99311090D01*
X73614379Y-99233241D01*
X73838845Y-99118870D01*
X74042656Y-98970793D01*
X74220793Y-98792656D01*
X74368870Y-98588845D01*
X74389515Y-98548327D01*
X74437489Y-98497531D01*
X74505310Y-98480735D01*
X74571445Y-98503272D01*
X74610485Y-98548327D01*
X74631130Y-98588846D01*
X74779201Y-98792649D01*
X74779205Y-98792654D01*
X74957345Y-98970794D01*
X74957350Y-98970798D01*
X75075721Y-99056799D01*
X75161155Y-99118870D01*
X75304184Y-99191747D01*
X75385616Y-99233239D01*
X75385618Y-99233239D01*
X75385621Y-99233241D01*
X75625215Y-99311090D01*
X75874038Y-99350500D01*
X75874039Y-99350500D01*
X76125961Y-99350500D01*
X76125962Y-99350500D01*
X76374785Y-99311090D01*
X76614379Y-99233241D01*
X76838845Y-99118870D01*
X77042656Y-98970793D01*
X77220793Y-98792656D01*
X77368870Y-98588845D01*
X77389515Y-98548327D01*
X77437489Y-98497531D01*
X77505310Y-98480735D01*
X77571445Y-98503272D01*
X77610485Y-98548327D01*
X77631130Y-98588846D01*
X77779201Y-98792649D01*
X77779205Y-98792654D01*
X77957345Y-98970794D01*
X77957350Y-98970798D01*
X78075721Y-99056799D01*
X78161155Y-99118870D01*
X78304184Y-99191747D01*
X78385616Y-99233239D01*
X78385618Y-99233239D01*
X78385621Y-99233241D01*
X78625215Y-99311090D01*
X78874038Y-99350500D01*
X78874039Y-99350500D01*
X79125961Y-99350500D01*
X79125962Y-99350500D01*
X79374785Y-99311090D01*
X79614379Y-99233241D01*
X79838845Y-99118870D01*
X80042656Y-98970793D01*
X80220793Y-98792656D01*
X80324278Y-98650221D01*
X80359761Y-98601383D01*
X80415090Y-98558717D01*
X80484704Y-98552738D01*
X80546499Y-98585343D01*
X80560397Y-98601383D01*
X80699359Y-98792649D01*
X80699363Y-98792654D01*
X80877503Y-98970794D01*
X80877508Y-98970798D01*
X80995879Y-99056799D01*
X81081313Y-99118870D01*
X81224342Y-99191747D01*
X81305774Y-99233239D01*
X81305776Y-99233239D01*
X81305779Y-99233241D01*
X81545373Y-99311090D01*
X81794196Y-99350500D01*
X81794197Y-99350500D01*
X82046119Y-99350500D01*
X82046120Y-99350500D01*
X82294943Y-99311090D01*
X82534537Y-99233241D01*
X82759003Y-99118870D01*
X82962814Y-98970793D01*
X83132480Y-98801126D01*
X83193801Y-98767643D01*
X83263492Y-98772627D01*
X83307840Y-98801128D01*
X83477506Y-98970794D01*
X83477511Y-98970798D01*
X83595882Y-99056799D01*
X83681316Y-99118870D01*
X83824345Y-99191747D01*
X83905777Y-99233239D01*
X83905779Y-99233239D01*
X83905782Y-99233241D01*
X84145376Y-99311090D01*
X84394199Y-99350500D01*
X84394200Y-99350500D01*
X84646122Y-99350500D01*
X84646123Y-99350500D01*
X84894946Y-99311090D01*
X85134540Y-99233241D01*
X85359006Y-99118870D01*
X85562817Y-98970793D01*
X85740954Y-98792656D01*
X85844439Y-98650221D01*
X85889030Y-98588847D01*
X85899594Y-98568113D01*
X85947567Y-98517316D01*
X86015387Y-98500519D01*
X86081523Y-98523054D01*
X86120565Y-98568110D01*
X86131132Y-98588848D01*
X86279201Y-98792649D01*
X86279205Y-98792654D01*
X86457345Y-98970794D01*
X86457350Y-98970798D01*
X86575721Y-99056799D01*
X86661155Y-99118870D01*
X86804184Y-99191747D01*
X86885616Y-99233239D01*
X86885618Y-99233239D01*
X86885621Y-99233241D01*
X87125215Y-99311090D01*
X87374038Y-99350500D01*
X87374039Y-99350500D01*
X87625961Y-99350500D01*
X87625962Y-99350500D01*
X87874785Y-99311090D01*
X88114379Y-99233241D01*
X88338845Y-99118870D01*
X88542656Y-98970793D01*
X88720793Y-98792656D01*
X88868870Y-98588845D01*
X88983241Y-98364379D01*
X89061090Y-98124785D01*
X89100500Y-97875962D01*
X89100500Y-97624038D01*
X89061090Y-97375215D01*
X88983241Y-97135621D01*
X88983239Y-97135618D01*
X88983239Y-97135616D01*
X88904042Y-96980185D01*
X88868870Y-96911155D01*
X88730154Y-96720228D01*
X88720798Y-96707350D01*
X88720794Y-96707345D01*
X88542654Y-96529205D01*
X88542649Y-96529201D01*
X88338848Y-96381132D01*
X88338847Y-96381131D01*
X88338845Y-96381130D01*
X88268747Y-96345413D01*
X88114383Y-96266760D01*
X87874785Y-96188910D01*
X87743163Y-96168063D01*
X87625962Y-96149500D01*
X87374038Y-96149500D01*
X87369166Y-96149500D01*
X87369166Y-96147988D01*
X87307346Y-96134982D01*
X87278347Y-96113427D01*
X86786819Y-95621898D01*
X86753334Y-95560575D01*
X86750500Y-95534217D01*
X86750500Y-94715782D01*
X86770185Y-94648743D01*
X86786819Y-94628101D01*
X87878102Y-93536819D01*
X87939425Y-93503334D01*
X87965783Y-93500500D01*
X125284218Y-93500500D01*
X125351257Y-93520185D01*
X125371898Y-93536818D01*
X133552860Y-101717781D01*
X133552861Y-101717782D01*
X133649101Y-101814022D01*
X133692219Y-101857140D01*
X133856080Y-101966628D01*
X133856086Y-101966632D01*
X133962745Y-102010811D01*
X134038164Y-102042051D01*
X134231454Y-102080499D01*
X134231457Y-102080500D01*
X134231459Y-102080500D01*
X134428540Y-102080500D01*
X134818531Y-102080500D01*
X134885570Y-102100185D01*
X134906212Y-102116819D01*
X134937636Y-102148243D01*
X134937641Y-102148247D01*
X135056965Y-102234940D01*
X135115978Y-102277815D01*
X135244375Y-102343237D01*
X135312393Y-102377895D01*
X135312396Y-102377896D01*
X135414747Y-102411151D01*
X135522049Y-102446015D01*
X135739778Y-102480500D01*
X135739779Y-102480500D01*
X136760221Y-102480500D01*
X136760222Y-102480500D01*
X136977951Y-102446015D01*
X137187606Y-102377895D01*
X137384022Y-102277815D01*
X137562365Y-102148242D01*
X137718242Y-101992365D01*
X137847815Y-101814022D01*
X137947895Y-101617606D01*
X138016015Y-101407951D01*
X138050500Y-101190222D01*
X138050500Y-100969778D01*
X138016015Y-100752049D01*
X137947895Y-100542394D01*
X137947895Y-100542393D01*
X137903898Y-100456046D01*
X137847815Y-100345978D01*
X137767170Y-100234979D01*
X137718247Y-100167641D01*
X137718243Y-100167636D01*
X137562363Y-100011756D01*
X137562358Y-100011752D01*
X137422745Y-99910318D01*
X137380079Y-99854989D01*
X137374100Y-99785375D01*
X137406705Y-99723580D01*
X137422745Y-99709682D01*
X137562358Y-99608247D01*
X137562356Y-99608247D01*
X137562365Y-99608242D01*
X137718242Y-99452365D01*
X137847815Y-99274022D01*
X137947895Y-99077606D01*
X138016015Y-98867951D01*
X138050500Y-98650222D01*
X138050500Y-98429778D01*
X138016015Y-98212049D01*
X137947895Y-98002394D01*
X137947895Y-98002393D01*
X137913237Y-97934375D01*
X137847815Y-97805978D01*
X137799713Y-97739771D01*
X137718247Y-97627641D01*
X137718243Y-97627636D01*
X137562363Y-97471756D01*
X137562358Y-97471752D01*
X137422745Y-97370318D01*
X137380079Y-97314989D01*
X137374100Y-97245375D01*
X137406705Y-97183580D01*
X137422745Y-97169682D01*
X137562358Y-97068247D01*
X137562356Y-97068247D01*
X137562365Y-97068242D01*
X137718242Y-96912365D01*
X137847815Y-96734022D01*
X137947895Y-96537606D01*
X138016015Y-96327951D01*
X138050500Y-96110222D01*
X138050500Y-95889778D01*
X138016015Y-95672049D01*
X137947895Y-95462394D01*
X137947895Y-95462393D01*
X137913237Y-95394375D01*
X137847815Y-95265978D01*
X137799713Y-95199771D01*
X137718247Y-95087641D01*
X137718243Y-95087636D01*
X137562363Y-94931756D01*
X137562358Y-94931752D01*
X137422745Y-94830318D01*
X137380079Y-94774989D01*
X137374100Y-94705375D01*
X137406705Y-94643580D01*
X137422745Y-94629682D01*
X137562358Y-94528247D01*
X137562356Y-94528247D01*
X137562365Y-94528242D01*
X137718242Y-94372365D01*
X137847815Y-94194022D01*
X137947895Y-93997606D01*
X138016015Y-93787951D01*
X138050500Y-93570222D01*
X138050500Y-93349778D01*
X138016015Y-93132049D01*
X137947895Y-92922394D01*
X137947895Y-92922393D01*
X137913237Y-92854375D01*
X137847815Y-92725978D01*
X137800716Y-92661151D01*
X137718247Y-92547641D01*
X137718243Y-92547636D01*
X137562363Y-92391756D01*
X137562358Y-92391752D01*
X137422745Y-92290318D01*
X137380079Y-92234989D01*
X137374100Y-92165375D01*
X137406705Y-92103580D01*
X137422745Y-92089682D01*
X137562358Y-91988247D01*
X137562356Y-91988247D01*
X137562365Y-91988242D01*
X137718242Y-91832365D01*
X137847815Y-91654022D01*
X137947895Y-91457606D01*
X138016015Y-91247951D01*
X138050500Y-91030222D01*
X138050500Y-90809778D01*
X138016015Y-90592049D01*
X137977656Y-90473989D01*
X137947896Y-90382396D01*
X137947895Y-90382393D01*
X137913237Y-90314375D01*
X137847815Y-90185978D01*
X137831260Y-90163192D01*
X137718247Y-90007641D01*
X137718243Y-90007636D01*
X137562363Y-89851756D01*
X137562358Y-89851752D01*
X137422745Y-89750318D01*
X137380079Y-89694989D01*
X137374100Y-89625375D01*
X137406705Y-89563580D01*
X137422745Y-89549682D01*
X137562358Y-89448247D01*
X137562356Y-89448247D01*
X137562365Y-89448242D01*
X137718242Y-89292365D01*
X137847815Y-89114022D01*
X137947895Y-88917606D01*
X138016015Y-88707951D01*
X138050500Y-88490222D01*
X138050500Y-88269778D01*
X138016015Y-88052049D01*
X137947895Y-87842394D01*
X137947895Y-87842393D01*
X137887971Y-87724788D01*
X137847815Y-87645978D01*
X137831260Y-87623192D01*
X137718247Y-87467641D01*
X137718243Y-87467636D01*
X137562363Y-87311756D01*
X137562358Y-87311752D01*
X137384025Y-87182187D01*
X137384024Y-87182186D01*
X137384022Y-87182185D01*
X137347018Y-87163330D01*
X137296223Y-87115356D01*
X137279428Y-87047535D01*
X137301966Y-86981400D01*
X137330429Y-86952528D01*
X137496889Y-86831587D01*
X137496895Y-86831582D01*
X137641582Y-86686895D01*
X137641582Y-86686894D01*
X137761859Y-86521349D01*
X137854755Y-86339029D01*
X137917990Y-86144413D01*
X137926609Y-86090000D01*
X136565686Y-86090000D01*
X136570080Y-86085606D01*
X136622741Y-85994394D01*
X136650000Y-85892661D01*
X136650000Y-85787339D01*
X136622741Y-85685606D01*
X136570080Y-85594394D01*
X136565686Y-85590000D01*
X137926609Y-85590000D01*
X137917990Y-85535586D01*
X137854755Y-85340970D01*
X137761859Y-85158650D01*
X137641582Y-84993105D01*
X137641582Y-84993104D01*
X137496895Y-84848417D01*
X137330428Y-84727471D01*
X137287763Y-84672141D01*
X137281784Y-84602527D01*
X137314390Y-84540732D01*
X137347015Y-84516670D01*
X137384022Y-84497815D01*
X137562365Y-84368242D01*
X137718242Y-84212365D01*
X137847815Y-84034022D01*
X137947895Y-83837606D01*
X137957751Y-83807273D01*
X137976542Y-83749439D01*
X138015979Y-83691763D01*
X138080337Y-83664564D01*
X138149183Y-83676478D01*
X138182154Y-83700075D01*
X139945898Y-85463819D01*
X139979383Y-85525142D01*
X139974399Y-85594834D01*
X139945898Y-85639181D01*
X139362220Y-86222859D01*
X139362218Y-86222861D01*
X139292538Y-86292540D01*
X139222859Y-86362219D01*
X139113371Y-86526080D01*
X139113366Y-86526089D01*
X139077239Y-86613309D01*
X139075653Y-86617139D01*
X139037949Y-86708164D01*
X139029157Y-86752365D01*
X139027588Y-86760250D01*
X139027588Y-86760252D01*
X138999500Y-86901456D01*
X138999500Y-102454375D01*
X138990855Y-102483815D01*
X138984332Y-102513802D01*
X138980577Y-102518817D01*
X138979815Y-102521414D01*
X138963181Y-102542056D01*
X138873238Y-102631999D01*
X138861221Y-102644016D01*
X138861218Y-102644019D01*
X138819287Y-102685950D01*
X138721859Y-102783377D01*
X138612371Y-102947237D01*
X138612364Y-102947250D01*
X138584579Y-103014331D01*
X138584575Y-103014340D01*
X138582771Y-103018698D01*
X138536949Y-103129322D01*
X138522990Y-103199500D01*
X138521536Y-103206805D01*
X138521534Y-103206814D01*
X138498500Y-103322614D01*
X138498500Y-105177386D01*
X138536947Y-105370671D01*
X138536948Y-105370675D01*
X138536949Y-105370678D01*
X138547623Y-105396446D01*
X138556619Y-105418164D01*
X138556618Y-105418164D01*
X138556619Y-105418165D01*
X138612364Y-105552748D01*
X138612371Y-105552761D01*
X138721860Y-105716624D01*
X138865537Y-105860301D01*
X138865559Y-105860321D01*
X138963181Y-105957943D01*
X138996666Y-106019266D01*
X138999500Y-106045624D01*
X138999500Y-107675930D01*
X138979815Y-107742969D01*
X138927011Y-107788724D01*
X138890564Y-107798166D01*
X138890655Y-107798737D01*
X138660339Y-107835215D01*
X138443196Y-107905770D01*
X138239771Y-108009421D01*
X138055061Y-108143622D01*
X137893622Y-108305061D01*
X137759421Y-108489771D01*
X137655770Y-108693196D01*
X137585215Y-108910339D01*
X137549500Y-109135837D01*
X137549500Y-109364162D01*
X137585215Y-109589660D01*
X137655770Y-109806803D01*
X137759421Y-110010228D01*
X137893622Y-110194938D01*
X137969987Y-110271303D01*
X138003472Y-110332626D01*
X137998488Y-110402318D01*
X137956616Y-110458251D01*
X137944872Y-110465477D01*
X137944911Y-110465537D01*
X137939251Y-110469154D01*
X137795059Y-110585059D01*
X137679155Y-110729249D01*
X137677215Y-110732286D01*
X137675549Y-110733736D01*
X137674946Y-110734487D01*
X137674811Y-110734378D01*
X137624522Y-110778169D01*
X137572737Y-110789500D01*
X133255782Y-110789500D01*
X133188743Y-110769815D01*
X133168101Y-110753181D01*
X125886571Y-103471651D01*
X125853086Y-103410328D01*
X125851088Y-103380834D01*
X125850500Y-103380834D01*
X125850500Y-103124038D01*
X125835480Y-103029207D01*
X125811090Y-102875215D01*
X125733241Y-102635621D01*
X125733239Y-102635618D01*
X125733239Y-102635616D01*
X125685567Y-102542056D01*
X125618870Y-102411155D01*
X125490843Y-102234940D01*
X125470798Y-102207350D01*
X125470794Y-102207345D01*
X125292654Y-102029205D01*
X125292649Y-102029201D01*
X125088848Y-101881132D01*
X125088847Y-101881131D01*
X125088845Y-101881130D01*
X125018747Y-101845413D01*
X124864383Y-101766760D01*
X124624785Y-101688910D01*
X124375962Y-101649500D01*
X124124038Y-101649500D01*
X123999626Y-101669205D01*
X123875214Y-101688910D01*
X123635616Y-101766760D01*
X123411151Y-101881132D01*
X123207350Y-102029201D01*
X123207345Y-102029205D01*
X123029205Y-102207345D01*
X123029201Y-102207350D01*
X122881132Y-102411151D01*
X122766760Y-102635616D01*
X122724149Y-102766760D01*
X122688910Y-102875215D01*
X122649500Y-103124038D01*
X122649500Y-103375962D01*
X122664656Y-103471651D01*
X122688910Y-103624785D01*
X122766760Y-103864383D01*
X122881132Y-104088848D01*
X123029201Y-104292649D01*
X123029205Y-104292654D01*
X123207345Y-104470794D01*
X123207350Y-104470798D01*
X123328379Y-104558730D01*
X123411155Y-104618870D01*
X123554184Y-104691747D01*
X123635616Y-104733239D01*
X123635618Y-104733239D01*
X123635621Y-104733241D01*
X123875215Y-104811090D01*
X124124038Y-104850500D01*
X124124039Y-104850500D01*
X124380834Y-104850500D01*
X124380834Y-104852030D01*
X124442577Y-104864976D01*
X124471651Y-104886571D01*
X130622899Y-111037819D01*
X130656384Y-111099142D01*
X130651400Y-111168834D01*
X130609528Y-111224767D01*
X130544064Y-111249184D01*
X130535218Y-111249500D01*
X91563962Y-111249500D01*
X91496923Y-111229815D01*
X91474650Y-111210376D01*
X91474238Y-111210789D01*
X91289212Y-111025762D01*
X91290285Y-111024688D01*
X91255774Y-110971815D01*
X91250500Y-110936037D01*
X91250500Y-107063962D01*
X91270185Y-106996923D01*
X91289623Y-106974650D01*
X91289211Y-106974238D01*
X91292656Y-106970793D01*
X91470793Y-106792656D01*
X91618870Y-106588845D01*
X91733241Y-106364379D01*
X91811090Y-106124785D01*
X91850500Y-105875962D01*
X91850500Y-105624038D01*
X91811090Y-105375215D01*
X91733241Y-105135621D01*
X91733239Y-105135618D01*
X91733239Y-105135616D01*
X91645708Y-104963828D01*
X91618870Y-104911155D01*
X91546168Y-104811089D01*
X91470798Y-104707350D01*
X91470794Y-104707345D01*
X91292654Y-104529205D01*
X91292649Y-104529201D01*
X91088848Y-104381132D01*
X91088847Y-104381131D01*
X91088845Y-104381130D01*
X91018747Y-104345413D01*
X90864383Y-104266760D01*
X90624785Y-104188910D01*
X90503751Y-104169740D01*
X90375962Y-104149500D01*
X90124038Y-104149500D01*
X89999626Y-104169205D01*
X89875214Y-104188910D01*
X89635616Y-104266760D01*
X89411151Y-104381132D01*
X89207350Y-104529201D01*
X89207345Y-104529205D01*
X89029205Y-104707345D01*
X89029201Y-104707350D01*
X88881132Y-104911151D01*
X88766760Y-105135616D01*
X88688910Y-105375214D01*
X88682107Y-105418164D01*
X88649500Y-105624038D01*
X88649500Y-105875962D01*
X88668237Y-105994262D01*
X88688910Y-106124785D01*
X88766760Y-106364383D01*
X88881132Y-106588848D01*
X89029201Y-106792649D01*
X89029205Y-106792654D01*
X89210789Y-106974238D01*
X89209714Y-106975312D01*
X89244225Y-107028180D01*
X89249500Y-107063962D01*
X89249500Y-110936037D01*
X89229815Y-111003076D01*
X89210376Y-111025350D01*
X89210788Y-111025762D01*
X89029205Y-111207345D01*
X89029201Y-111207350D01*
X88881132Y-111411151D01*
X88766760Y-111635616D01*
X88688910Y-111875214D01*
X88663173Y-112037708D01*
X88649500Y-112124038D01*
X88649500Y-112375962D01*
X88664656Y-112471651D01*
X88688910Y-112624785D01*
X88766760Y-112864383D01*
X88881132Y-113088848D01*
X89029201Y-113292649D01*
X89029205Y-113292654D01*
X89207345Y-113470794D01*
X89207350Y-113470798D01*
X89385117Y-113599952D01*
X89411155Y-113618870D01*
X89554184Y-113691747D01*
X89635616Y-113733239D01*
X89635618Y-113733239D01*
X89635621Y-113733241D01*
X89875215Y-113811090D01*
X90124038Y-113850500D01*
X90124039Y-113850500D01*
X90375961Y-113850500D01*
X90375962Y-113850500D01*
X90624785Y-113811090D01*
X90864379Y-113733241D01*
X91088845Y-113618870D01*
X91292656Y-113470793D01*
X91470793Y-113292656D01*
X91470793Y-113292655D01*
X91474238Y-113289211D01*
X91475312Y-113290285D01*
X91528180Y-113255775D01*
X91563962Y-113250500D01*
X128959318Y-113250500D01*
X129026357Y-113270185D01*
X129072112Y-113322989D01*
X129082056Y-113392147D01*
X129053031Y-113455703D01*
X129032203Y-113474818D01*
X128957350Y-113529201D01*
X128957345Y-113529205D01*
X128779205Y-113707345D01*
X128779201Y-113707350D01*
X128631132Y-113911151D01*
X128516760Y-114135616D01*
X128438910Y-114375214D01*
X128399500Y-114624038D01*
X128399500Y-114875961D01*
X128438910Y-115124785D01*
X128516760Y-115364383D01*
X128631132Y-115588848D01*
X128779201Y-115792649D01*
X128779205Y-115792654D01*
X128957345Y-115970794D01*
X128957350Y-115970798D01*
X129135117Y-116099952D01*
X129161155Y-116118870D01*
X129304184Y-116191747D01*
X129385616Y-116233239D01*
X129385618Y-116233239D01*
X129385621Y-116233241D01*
X129625215Y-116311090D01*
X129874038Y-116350500D01*
X129874039Y-116350500D01*
X130125961Y-116350500D01*
X130125962Y-116350500D01*
X130374785Y-116311090D01*
X130614379Y-116233241D01*
X130838845Y-116118870D01*
X131042656Y-115970793D01*
X131220793Y-115792656D01*
X131220793Y-115792655D01*
X131224238Y-115789211D01*
X131225312Y-115790285D01*
X131278180Y-115755775D01*
X131313962Y-115750500D01*
X139114650Y-115750500D01*
X139146194Y-115744225D01*
X139211296Y-115731275D01*
X139307944Y-115712051D01*
X139361273Y-115689961D01*
X139490022Y-115636632D01*
X139653890Y-115527139D01*
X139793247Y-115387782D01*
X139793247Y-115387780D01*
X139803455Y-115377573D01*
X139803457Y-115377570D01*
X142001681Y-113179345D01*
X142051042Y-113149097D01*
X142096799Y-113134231D01*
X142300228Y-113030579D01*
X142484937Y-112896379D01*
X142646379Y-112734937D01*
X142709682Y-112647807D01*
X142765012Y-112605143D01*
X142834626Y-112599164D01*
X142896421Y-112631770D01*
X142910315Y-112647804D01*
X142973621Y-112734937D01*
X143135063Y-112896379D01*
X143319772Y-113030579D01*
X143415884Y-113079550D01*
X143523196Y-113134229D01*
X143523198Y-113134229D01*
X143523201Y-113134231D01*
X143639592Y-113172049D01*
X143740339Y-113204784D01*
X143965838Y-113240500D01*
X143965843Y-113240500D01*
X144194162Y-113240500D01*
X144419660Y-113204784D01*
X144636799Y-113134231D01*
X144840228Y-113030579D01*
X145024937Y-112896379D01*
X145094497Y-112826819D01*
X145155820Y-112793334D01*
X145182178Y-112790500D01*
X146308542Y-112790500D01*
X146324333Y-112787358D01*
X146405188Y-112771275D01*
X146501836Y-112752051D01*
X146569764Y-112723914D01*
X146683914Y-112676632D01*
X146847782Y-112567139D01*
X146987139Y-112427782D01*
X146987140Y-112427779D01*
X146994206Y-112420714D01*
X146994209Y-112420710D01*
X149137778Y-110277141D01*
X149137782Y-110277139D01*
X149277139Y-110137782D01*
X149386632Y-109973914D01*
X149386732Y-109973674D01*
X149462050Y-109791837D01*
X149462053Y-109791828D01*
X149475562Y-109723915D01*
X149490244Y-109650099D01*
X149500500Y-109598540D01*
X149500500Y-109401460D01*
X149500500Y-105611459D01*
X149474610Y-105481301D01*
X149462051Y-105418164D01*
X149416569Y-105308361D01*
X149386632Y-105236086D01*
X149386631Y-105236084D01*
X149386630Y-105236082D01*
X149277139Y-105072218D01*
X149277136Y-105072214D01*
X149134686Y-104929764D01*
X149134655Y-104929735D01*
X145706819Y-101501899D01*
X145673334Y-101440576D01*
X145670500Y-101414218D01*
X145670500Y-100456048D01*
X145670500Y-100456046D01*
X145667683Y-100414505D01*
X145623037Y-100234979D01*
X145540842Y-100069247D01*
X145490945Y-100007173D01*
X145424940Y-99925059D01*
X145280753Y-99809158D01*
X145235330Y-99786630D01*
X145214191Y-99767094D01*
X145191158Y-99749851D01*
X145188856Y-99743679D01*
X145184018Y-99739208D01*
X145176798Y-99711350D01*
X145166742Y-99684387D01*
X145168142Y-99677949D01*
X145166490Y-99671573D01*
X145175475Y-99644238D01*
X145181594Y-99616114D01*
X145187170Y-99608665D01*
X145188310Y-99605198D01*
X145202741Y-99587865D01*
X145253789Y-99536818D01*
X145315112Y-99503334D01*
X145341469Y-99500500D01*
X150147822Y-99500500D01*
X150214861Y-99520185D01*
X150235502Y-99536818D01*
X150305063Y-99606379D01*
X150489772Y-99740579D01*
X150577689Y-99785375D01*
X150693196Y-99844229D01*
X150693198Y-99844229D01*
X150693201Y-99844231D01*
X150726311Y-99854989D01*
X150910339Y-99914784D01*
X151135838Y-99950500D01*
X151135843Y-99950500D01*
X151364162Y-99950500D01*
X151589660Y-99914784D01*
X151634692Y-99900152D01*
X151806799Y-99844231D01*
X152010228Y-99740579D01*
X152194937Y-99606379D01*
X152356379Y-99444937D01*
X152490579Y-99260228D01*
X152594231Y-99056799D01*
X152664784Y-98839660D01*
X152675401Y-98772627D01*
X152700500Y-98614162D01*
X152700500Y-98385837D01*
X152664784Y-98160339D01*
X152594229Y-97943196D01*
X152539550Y-97835884D01*
X152490579Y-97739772D01*
X152356379Y-97555063D01*
X152194937Y-97393621D01*
X152107807Y-97330317D01*
X152065143Y-97274988D01*
X152059164Y-97205374D01*
X152091770Y-97143579D01*
X152107807Y-97129683D01*
X152194937Y-97066379D01*
X152356379Y-96904937D01*
X152490579Y-96720228D01*
X152594231Y-96516799D01*
X152664784Y-96299660D01*
X152685627Y-96168063D01*
X152700500Y-96074162D01*
X152700500Y-95845837D01*
X152664784Y-95620339D01*
X152594229Y-95403196D01*
X152533606Y-95284217D01*
X152490579Y-95199772D01*
X152356379Y-95015063D01*
X152269183Y-94927867D01*
X152235698Y-94866544D01*
X152240682Y-94796852D01*
X152282554Y-94740919D01*
X152313533Y-94724003D01*
X152342088Y-94713353D01*
X152342093Y-94713350D01*
X152457187Y-94627190D01*
X152457190Y-94627187D01*
X152543350Y-94512093D01*
X152543354Y-94512086D01*
X152593596Y-94377379D01*
X152593598Y-94377372D01*
X152599999Y-94317844D01*
X152600000Y-94317827D01*
X152600000Y-93670000D01*
X151683012Y-93670000D01*
X151715925Y-93612993D01*
X151750000Y-93485826D01*
X151750000Y-93354174D01*
X151715925Y-93227007D01*
X151683012Y-93170000D01*
X152600000Y-93170000D01*
X152600000Y-92522172D01*
X152599999Y-92522155D01*
X152593598Y-92462627D01*
X152593596Y-92462620D01*
X152543354Y-92327913D01*
X152543350Y-92327906D01*
X152457190Y-92212812D01*
X152457187Y-92212809D01*
X152342093Y-92126649D01*
X152342086Y-92126645D01*
X152207379Y-92076403D01*
X152207372Y-92076401D01*
X152147844Y-92070000D01*
X151500000Y-92070000D01*
X151500000Y-92986988D01*
X151442993Y-92954075D01*
X151315826Y-92920000D01*
X151184174Y-92920000D01*
X151057007Y-92954075D01*
X151000000Y-92986988D01*
X151000000Y-92070000D01*
X150352155Y-92070000D01*
X150292627Y-92076401D01*
X150292620Y-92076403D01*
X150157913Y-92126645D01*
X150157906Y-92126649D01*
X150042812Y-92212809D01*
X150042809Y-92212812D01*
X149956649Y-92327906D01*
X149956645Y-92327913D01*
X149906403Y-92462620D01*
X149906401Y-92462627D01*
X149900000Y-92522155D01*
X149900000Y-93170000D01*
X150816988Y-93170000D01*
X150784075Y-93227007D01*
X150750000Y-93354174D01*
X150750000Y-93485826D01*
X150784075Y-93612993D01*
X150816988Y-93670000D01*
X149900000Y-93670000D01*
X149900000Y-94317844D01*
X149906401Y-94377372D01*
X149906403Y-94377379D01*
X149956645Y-94512086D01*
X149956649Y-94512093D01*
X150042809Y-94627187D01*
X150042812Y-94627190D01*
X150157906Y-94713350D01*
X150157913Y-94713354D01*
X150173903Y-94719318D01*
X150229837Y-94761189D01*
X150254254Y-94826653D01*
X150239403Y-94894926D01*
X150189998Y-94944332D01*
X150130570Y-94959500D01*
X148345738Y-94959500D01*
X148278699Y-94939815D01*
X148232944Y-94887011D01*
X148223000Y-94817853D01*
X148252025Y-94754297D01*
X148272852Y-94735182D01*
X148284025Y-94727063D01*
X148292656Y-94720793D01*
X148470793Y-94542656D01*
X148618870Y-94338845D01*
X148733241Y-94114379D01*
X148811090Y-93874785D01*
X148850500Y-93625962D01*
X148850500Y-93374038D01*
X148811090Y-93125215D01*
X148733241Y-92885621D01*
X148733239Y-92885618D01*
X148733239Y-92885616D01*
X148691747Y-92804184D01*
X148618870Y-92661155D01*
X148613146Y-92653277D01*
X148568435Y-92591736D01*
X148470798Y-92457350D01*
X148470794Y-92457345D01*
X148292654Y-92279205D01*
X148292649Y-92279201D01*
X148088848Y-92131132D01*
X148088847Y-92131131D01*
X148088845Y-92131130D01*
X148007495Y-92089680D01*
X147864383Y-92016760D01*
X147624785Y-91938910D01*
X147548610Y-91926845D01*
X147375962Y-91899500D01*
X147124038Y-91899500D01*
X146999626Y-91919205D01*
X146875214Y-91938910D01*
X146635616Y-92016760D01*
X146411151Y-92131132D01*
X146207350Y-92279201D01*
X146207345Y-92279205D01*
X146025762Y-92460789D01*
X146024687Y-92459714D01*
X145971820Y-92494225D01*
X145936038Y-92499500D01*
X145341469Y-92499500D01*
X145274430Y-92479815D01*
X145253788Y-92463181D01*
X145182363Y-92391756D01*
X145182358Y-92391752D01*
X145042744Y-92290317D01*
X145000078Y-92234987D01*
X144994099Y-92165374D01*
X145026704Y-92103579D01*
X145042729Y-92089692D01*
X145182365Y-91988242D01*
X145243761Y-91926844D01*
X145256080Y-91919448D01*
X145263321Y-91910915D01*
X145285294Y-91901908D01*
X145295271Y-91895919D01*
X145301186Y-91894115D01*
X145361836Y-91882051D01*
X145415165Y-91859961D01*
X145543914Y-91806632D01*
X145707782Y-91697139D01*
X145847139Y-91557782D01*
X145847139Y-91557780D01*
X145857347Y-91547573D01*
X145857348Y-91547570D01*
X153777140Y-83627781D01*
X153886632Y-83463914D01*
X153962052Y-83281835D01*
X154000501Y-83088540D01*
X154000501Y-82891459D01*
X154000501Y-82886349D01*
X154000500Y-82886323D01*
X154000500Y-68071143D01*
X154000499Y-68071141D01*
X153995505Y-68046037D01*
X153962337Y-67879288D01*
X153962051Y-67877851D01*
X153936684Y-67816610D01*
X153936684Y-67816609D01*
X153886635Y-67695779D01*
X153886628Y-67695766D01*
X153777139Y-67531905D01*
X153777136Y-67531901D01*
X153634686Y-67389451D01*
X153634655Y-67389422D01*
X143757792Y-57512559D01*
X143757772Y-57512537D01*
X143614098Y-57368863D01*
X143614094Y-57368860D01*
X143450233Y-57259371D01*
X143450224Y-57259366D01*
X143377628Y-57229296D01*
X143321478Y-57206038D01*
X143268149Y-57183949D01*
X143268145Y-57183948D01*
X143268141Y-57183946D01*
X143171501Y-57164724D01*
X143074857Y-57145500D01*
X143074854Y-57145500D01*
X106505459Y-57145500D01*
X106505455Y-57145500D01*
X106408812Y-57164724D01*
X106312167Y-57183947D01*
X106312161Y-57183949D01*
X106258834Y-57206037D01*
X106258834Y-57206038D01*
X106213315Y-57224892D01*
X106130089Y-57259366D01*
X106130079Y-57259371D01*
X105966219Y-57368859D01*
X105896540Y-57438538D01*
X105826861Y-57508218D01*
X105826858Y-57508221D01*
X98069899Y-65265181D01*
X98008576Y-65298666D01*
X97982218Y-65301500D01*
X91964993Y-65301500D01*
X91897954Y-65281815D01*
X91852199Y-65229011D01*
X91842255Y-65159853D01*
X91854508Y-65121205D01*
X91927986Y-64976996D01*
X91927986Y-64976995D01*
X91927988Y-64976992D01*
X92000973Y-64752368D01*
X92001722Y-64747640D01*
X92037920Y-64519097D01*
X92037920Y-64282902D01*
X92000973Y-64049631D01*
X91927986Y-63825003D01*
X91820762Y-63614566D01*
X91681937Y-63423490D01*
X91514930Y-63256483D01*
X91323853Y-63117657D01*
X91113416Y-63010433D01*
X90888788Y-62937446D01*
X90655517Y-62900500D01*
X90655512Y-62900500D01*
X90419328Y-62900500D01*
X90419323Y-62900500D01*
X90186051Y-62937446D01*
X89961423Y-63010433D01*
X89750983Y-63117659D01*
X89597795Y-63228957D01*
X89531989Y-63252437D01*
X89463935Y-63236612D01*
X89426534Y-63204125D01*
X89360185Y-63117657D01*
X89325702Y-63072718D01*
X89200261Y-62976464D01*
X89106063Y-62937446D01*
X89054182Y-62915956D01*
X89054180Y-62915955D01*
X88936790Y-62900501D01*
X88936787Y-62900500D01*
X88936781Y-62900500D01*
X88936774Y-62900500D01*
X87963202Y-62900500D01*
X87896163Y-62880815D01*
X87875521Y-62864181D01*
X86877899Y-61866559D01*
X86877879Y-61866537D01*
X86734205Y-61722863D01*
X86734201Y-61722860D01*
X86570340Y-61613371D01*
X86570331Y-61613366D01*
X86497735Y-61583296D01*
X86441585Y-61560038D01*
X86388256Y-61537949D01*
X86388252Y-61537948D01*
X86388248Y-61537946D01*
X86291608Y-61518724D01*
X86194964Y-61499500D01*
X86194961Y-61499500D01*
X84098540Y-61499500D01*
X83901459Y-61499500D01*
X83901456Y-61499500D01*
X83708171Y-61537946D01*
X83708167Y-61537948D01*
X83708165Y-61537948D01*
X83708164Y-61537949D01*
X83632745Y-61569188D01*
X83632743Y-61569189D01*
X83526089Y-61613366D01*
X83526079Y-61613371D01*
X83362218Y-61722860D01*
X83362214Y-61722863D01*
X82260890Y-62824188D01*
X82199567Y-62857673D01*
X82129875Y-62852689D01*
X82085528Y-62824188D01*
X81127899Y-61866559D01*
X81127879Y-61866537D01*
X80984205Y-61722863D01*
X80984201Y-61722860D01*
X80820340Y-61613371D01*
X80820331Y-61613366D01*
X80747735Y-61583296D01*
X80691585Y-61560038D01*
X80638256Y-61537949D01*
X80638252Y-61537948D01*
X80638248Y-61537946D01*
X80541608Y-61518724D01*
X80444964Y-61499500D01*
X80444961Y-61499500D01*
X78328540Y-61499500D01*
X78131459Y-61499500D01*
X78131456Y-61499500D01*
X77938171Y-61537946D01*
X77938167Y-61537948D01*
X77938165Y-61537948D01*
X77938164Y-61537949D01*
X77862745Y-61569188D01*
X77862743Y-61569189D01*
X77756089Y-61613366D01*
X77756079Y-61613371D01*
X77592218Y-61722860D01*
X77592214Y-61722863D01*
X76490890Y-62824188D01*
X76429567Y-62857673D01*
X76359875Y-62852689D01*
X76315528Y-62824188D01*
X75357899Y-61866559D01*
X75357879Y-61866537D01*
X75214205Y-61722863D01*
X75214201Y-61722860D01*
X75050340Y-61613371D01*
X75050331Y-61613366D01*
X74977735Y-61583296D01*
X74921585Y-61560038D01*
X74868256Y-61537949D01*
X74868252Y-61537948D01*
X74868248Y-61537946D01*
X74771608Y-61518724D01*
X74674964Y-61499500D01*
X74674961Y-61499500D01*
X72578540Y-61499500D01*
X72381459Y-61499500D01*
X72381456Y-61499500D01*
X72188171Y-61537946D01*
X72188167Y-61537948D01*
X72188165Y-61537948D01*
X72188164Y-61537949D01*
X72112745Y-61569188D01*
X72112743Y-61569189D01*
X72006089Y-61613366D01*
X72006079Y-61613371D01*
X71842218Y-61722860D01*
X71842214Y-61722863D01*
X70740890Y-62824188D01*
X70679567Y-62857673D01*
X70609875Y-62852689D01*
X70565528Y-62824188D01*
X69607899Y-61866559D01*
X69607879Y-61866537D01*
X69464205Y-61722863D01*
X69464201Y-61722860D01*
X69300340Y-61613371D01*
X69300331Y-61613366D01*
X69227735Y-61583296D01*
X69171585Y-61560038D01*
X69118256Y-61537949D01*
X69118252Y-61537948D01*
X69118248Y-61537946D01*
X69021608Y-61518724D01*
X68924964Y-61499500D01*
X68924961Y-61499500D01*
X66808540Y-61499500D01*
X66611459Y-61499500D01*
X66611456Y-61499500D01*
X66418171Y-61537946D01*
X66418167Y-61537948D01*
X66418165Y-61537948D01*
X66418164Y-61537949D01*
X66342745Y-61569188D01*
X66342743Y-61569189D01*
X66236089Y-61613366D01*
X66236079Y-61613371D01*
X66072218Y-61722860D01*
X66072214Y-61722863D01*
X64930897Y-62864181D01*
X64869574Y-62897666D01*
X64843216Y-62900500D01*
X64018056Y-62900500D01*
X63900666Y-62915953D01*
X63900657Y-62915956D01*
X63754580Y-62976463D01*
X63629138Y-63072718D01*
X63532883Y-63198160D01*
X63472376Y-63344237D01*
X63472375Y-63344239D01*
X63456921Y-63461629D01*
X63456920Y-63461645D01*
X63456920Y-65340363D01*
X63472373Y-65457753D01*
X63472376Y-65457762D01*
X63520126Y-65573042D01*
X63532884Y-65603841D01*
X63629138Y-65729282D01*
X63754579Y-65825536D01*
X63900658Y-65886044D01*
X64018059Y-65901500D01*
X65896780Y-65901499D01*
X65896783Y-65901499D01*
X66014173Y-65886046D01*
X66014177Y-65886044D01*
X66014182Y-65886044D01*
X66160261Y-65825536D01*
X66285702Y-65729282D01*
X66381956Y-65603841D01*
X66381956Y-65603839D01*
X66386534Y-65597874D01*
X66442962Y-65556671D01*
X66512708Y-65552516D01*
X66557792Y-65573040D01*
X66710987Y-65684343D01*
X66799181Y-65729280D01*
X66921423Y-65791566D01*
X66921425Y-65791566D01*
X66921428Y-65791568D01*
X67041832Y-65830689D01*
X67146051Y-65864553D01*
X67379323Y-65901500D01*
X67379328Y-65901500D01*
X67615517Y-65901500D01*
X67848788Y-65864553D01*
X68073412Y-65791568D01*
X68283853Y-65684343D01*
X68474930Y-65545517D01*
X68641937Y-65378510D01*
X68780763Y-65187433D01*
X68887988Y-64976992D01*
X68960973Y-64752368D01*
X68980447Y-64629414D01*
X69010376Y-64566279D01*
X69069688Y-64529348D01*
X69139550Y-64530346D01*
X69197783Y-64568956D01*
X69225897Y-64632919D01*
X69226920Y-64648812D01*
X69226920Y-65340363D01*
X69242373Y-65457753D01*
X69242376Y-65457762D01*
X69290126Y-65573042D01*
X69302884Y-65603841D01*
X69399138Y-65729282D01*
X69524579Y-65825536D01*
X69670658Y-65886044D01*
X69788059Y-65901500D01*
X71666780Y-65901499D01*
X71666783Y-65901499D01*
X71784173Y-65886046D01*
X71784177Y-65886044D01*
X71784182Y-65886044D01*
X71930261Y-65825536D01*
X72055702Y-65729282D01*
X72151956Y-65603841D01*
X72151956Y-65603839D01*
X72156534Y-65597874D01*
X72212962Y-65556671D01*
X72282708Y-65552516D01*
X72327792Y-65573040D01*
X72480987Y-65684343D01*
X72569181Y-65729280D01*
X72691423Y-65791566D01*
X72691425Y-65791566D01*
X72691428Y-65791568D01*
X72811832Y-65830689D01*
X72916051Y-65864553D01*
X73149323Y-65901500D01*
X73149328Y-65901500D01*
X73385517Y-65901500D01*
X73618788Y-65864553D01*
X73843412Y-65791568D01*
X74053853Y-65684343D01*
X74244930Y-65545517D01*
X74411937Y-65378510D01*
X74550763Y-65187433D01*
X74657988Y-64976992D01*
X74730973Y-64752368D01*
X74732108Y-64747640D01*
X74734049Y-64748106D01*
X74760351Y-64692581D01*
X74819651Y-64655631D01*
X74889514Y-64656608D01*
X74947759Y-64695200D01*
X74975892Y-64759155D01*
X74976920Y-64775085D01*
X74976920Y-65340363D01*
X74992373Y-65457753D01*
X74992376Y-65457762D01*
X75040126Y-65573042D01*
X75052884Y-65603841D01*
X75149138Y-65729282D01*
X75274579Y-65825536D01*
X75420658Y-65886044D01*
X75538059Y-65901500D01*
X77416780Y-65901499D01*
X77416783Y-65901499D01*
X77534173Y-65886046D01*
X77534177Y-65886044D01*
X77534182Y-65886044D01*
X77680261Y-65825536D01*
X77805702Y-65729282D01*
X77901956Y-65603841D01*
X77901956Y-65603839D01*
X77906534Y-65597874D01*
X77962962Y-65556671D01*
X78032708Y-65552516D01*
X78077792Y-65573040D01*
X78230987Y-65684343D01*
X78319181Y-65729280D01*
X78441423Y-65791566D01*
X78441425Y-65791566D01*
X78441428Y-65791568D01*
X78561832Y-65830689D01*
X78666051Y-65864553D01*
X78899323Y-65901500D01*
X78899328Y-65901500D01*
X79135517Y-65901500D01*
X79368788Y-65864553D01*
X79593412Y-65791568D01*
X79803853Y-65684343D01*
X79994930Y-65545517D01*
X80161937Y-65378510D01*
X80300763Y-65187433D01*
X80407988Y-64976992D01*
X80480973Y-64752368D01*
X80481722Y-64747640D01*
X80500447Y-64629416D01*
X80530376Y-64566281D01*
X80589688Y-64529350D01*
X80659550Y-64530348D01*
X80717783Y-64568958D01*
X80745897Y-64632922D01*
X80746920Y-64648814D01*
X80746920Y-65255776D01*
X80727235Y-65322815D01*
X80674431Y-65368570D01*
X80670373Y-65370337D01*
X80561664Y-65415366D01*
X80561654Y-65415371D01*
X80397794Y-65524859D01*
X80349612Y-65573042D01*
X80258436Y-65664218D01*
X80258433Y-65664221D01*
X77018112Y-68904543D01*
X73809474Y-72113181D01*
X73748151Y-72146666D01*
X73721793Y-72149500D01*
X73691452Y-72149500D01*
X73567040Y-72169205D01*
X73442628Y-72188910D01*
X73203030Y-72266760D01*
X72978565Y-72381132D01*
X72774764Y-72529201D01*
X72774759Y-72529205D01*
X72596619Y-72707345D01*
X72596615Y-72707350D01*
X72448546Y-72911151D01*
X72334174Y-73135616D01*
X72256324Y-73375214D01*
X72216914Y-73624038D01*
X72216914Y-73875961D01*
X72256324Y-74124785D01*
X72334174Y-74364383D01*
X72448546Y-74588848D01*
X72596615Y-74792649D01*
X72596619Y-74792654D01*
X72774759Y-74970794D01*
X72774764Y-74970798D01*
X72838026Y-75016760D01*
X72978569Y-75118870D01*
X73121598Y-75191747D01*
X73203030Y-75233239D01*
X73203032Y-75233239D01*
X73203035Y-75233241D01*
X73442629Y-75311090D01*
X73691452Y-75350500D01*
X73691453Y-75350500D01*
X73943375Y-75350500D01*
X73943376Y-75350500D01*
X74192199Y-75311090D01*
X74431793Y-75233241D01*
X74656259Y-75118870D01*
X74860070Y-74970793D01*
X75029736Y-74801126D01*
X75091057Y-74767643D01*
X75160748Y-74772627D01*
X75205096Y-74801128D01*
X75374762Y-74970794D01*
X75374767Y-74970798D01*
X75438029Y-75016760D01*
X75578572Y-75118870D01*
X75721601Y-75191747D01*
X75803033Y-75233239D01*
X75803035Y-75233239D01*
X75803038Y-75233241D01*
X76042632Y-75311090D01*
X76291455Y-75350500D01*
X76291456Y-75350500D01*
X76543378Y-75350500D01*
X76543379Y-75350500D01*
X76792202Y-75311090D01*
X77031796Y-75233241D01*
X77256262Y-75118870D01*
X77460073Y-74970793D01*
X77629739Y-74801126D01*
X77691060Y-74767643D01*
X77760751Y-74772627D01*
X77805099Y-74801128D01*
X77974765Y-74970794D01*
X77974770Y-74970798D01*
X78038032Y-75016760D01*
X78178575Y-75118870D01*
X78321604Y-75191747D01*
X78403036Y-75233239D01*
X78403038Y-75233239D01*
X78403041Y-75233241D01*
X78642635Y-75311090D01*
X78891458Y-75350500D01*
X78891459Y-75350500D01*
X79143381Y-75350500D01*
X79143382Y-75350500D01*
X79392205Y-75311090D01*
X79631799Y-75233241D01*
X79856265Y-75118870D01*
X80060076Y-74970793D01*
X80229742Y-74801126D01*
X80291063Y-74767643D01*
X80360754Y-74772627D01*
X80405102Y-74801128D01*
X80574768Y-74970794D01*
X80574773Y-74970798D01*
X80638035Y-75016760D01*
X80778578Y-75118870D01*
X80921607Y-75191747D01*
X81003039Y-75233239D01*
X81003041Y-75233239D01*
X81003044Y-75233241D01*
X81242638Y-75311090D01*
X81491461Y-75350500D01*
X81491462Y-75350500D01*
X81743384Y-75350500D01*
X81743385Y-75350500D01*
X81992208Y-75311090D01*
X82231802Y-75233241D01*
X82456268Y-75118870D01*
X82660079Y-74970793D01*
X82829745Y-74801126D01*
X82891066Y-74767643D01*
X82960757Y-74772627D01*
X83005105Y-74801128D01*
X83174771Y-74970794D01*
X83174776Y-74970798D01*
X83238038Y-75016760D01*
X83378581Y-75118870D01*
X83521610Y-75191747D01*
X83603042Y-75233239D01*
X83603044Y-75233239D01*
X83603047Y-75233241D01*
X83842641Y-75311090D01*
X84091464Y-75350500D01*
X84091465Y-75350500D01*
X84343387Y-75350500D01*
X84343388Y-75350500D01*
X84592211Y-75311090D01*
X84831805Y-75233241D01*
X85056271Y-75118870D01*
X85260082Y-74970793D01*
X85438219Y-74792656D01*
X85586296Y-74588845D01*
X85697778Y-74370048D01*
X85700665Y-74364383D01*
X85700665Y-74364382D01*
X85700667Y-74364379D01*
X85778516Y-74124785D01*
X85817926Y-73875962D01*
X85817926Y-73624038D01*
X85817926Y-73619166D01*
X85819454Y-73619166D01*
X85832405Y-73557415D01*
X85853993Y-73528351D01*
X86439527Y-72942819D01*
X86500850Y-72909334D01*
X86527208Y-72906500D01*
X101942543Y-72906500D01*
X101990442Y-72896971D01*
X102063804Y-72882379D01*
X102135836Y-72868051D01*
X102189165Y-72845961D01*
X102317914Y-72792632D01*
X102481782Y-72683139D01*
X102621139Y-72543782D01*
X102621140Y-72543779D01*
X102628206Y-72536714D01*
X102628208Y-72536710D01*
X110378101Y-64786819D01*
X110439424Y-64753334D01*
X110465782Y-64750500D01*
X137784218Y-64750500D01*
X137851257Y-64770185D01*
X137871899Y-64786819D01*
X140632181Y-67547101D01*
X140665666Y-67608424D01*
X140668500Y-67634782D01*
X140668500Y-68904543D01*
X140704168Y-69083857D01*
X140706949Y-69097834D01*
X140706950Y-69097839D01*
X140782364Y-69279906D01*
X140782371Y-69279919D01*
X140891859Y-69443779D01*
X140891860Y-69443780D01*
X140891861Y-69443781D01*
X141031218Y-69583138D01*
X141031219Y-69583138D01*
X141038286Y-69590205D01*
X141038285Y-69590205D01*
X141038289Y-69590208D01*
X141946861Y-70498781D01*
X142033181Y-70585101D01*
X142066666Y-70646424D01*
X142069500Y-70672782D01*
X142069500Y-70710221D01*
X142103985Y-70927952D01*
X142172103Y-71137603D01*
X142172104Y-71137606D01*
X142272187Y-71334025D01*
X142401752Y-71512358D01*
X142401756Y-71512363D01*
X142557636Y-71668243D01*
X142557641Y-71668247D01*
X142697254Y-71769682D01*
X142739920Y-71825012D01*
X142745899Y-71894625D01*
X142713293Y-71956420D01*
X142697254Y-71970318D01*
X142557641Y-72071752D01*
X142557636Y-72071756D01*
X142401756Y-72227636D01*
X142401752Y-72227641D01*
X142272187Y-72405974D01*
X142172104Y-72602393D01*
X142172103Y-72602396D01*
X142103985Y-72812047D01*
X142088289Y-72911151D01*
X142069500Y-73029778D01*
X142069500Y-73250222D01*
X142073597Y-73276087D01*
X142103985Y-73467952D01*
X142172103Y-73677603D01*
X142172104Y-73677606D01*
X142272187Y-73874025D01*
X142401752Y-74052358D01*
X142401756Y-74052363D01*
X142557636Y-74208243D01*
X142557641Y-74208247D01*
X142697254Y-74309682D01*
X142739920Y-74365012D01*
X142745899Y-74434625D01*
X142713293Y-74496420D01*
X142697254Y-74510318D01*
X142557641Y-74611752D01*
X142557636Y-74611756D01*
X142401756Y-74767636D01*
X142401752Y-74767641D01*
X142272187Y-74945974D01*
X142172104Y-75142393D01*
X142172103Y-75142396D01*
X142103985Y-75352047D01*
X142069500Y-75569778D01*
X142069500Y-75790221D01*
X142103985Y-76007952D01*
X142172103Y-76217603D01*
X142172104Y-76217606D01*
X142203054Y-76278347D01*
X142249329Y-76369166D01*
X142272187Y-76414025D01*
X142401752Y-76592358D01*
X142401756Y-76592363D01*
X142557636Y-76748243D01*
X142557641Y-76748247D01*
X142697254Y-76849682D01*
X142739920Y-76905012D01*
X142745899Y-76974625D01*
X142713293Y-77036420D01*
X142697254Y-77050318D01*
X142557641Y-77151752D01*
X142557636Y-77151756D01*
X142401756Y-77307636D01*
X142401752Y-77307641D01*
X142272187Y-77485974D01*
X142172104Y-77682393D01*
X142172103Y-77682396D01*
X142103985Y-77892047D01*
X142069500Y-78109778D01*
X142069500Y-78330221D01*
X142103985Y-78547952D01*
X142172103Y-78757603D01*
X142172104Y-78757606D01*
X142272187Y-78954025D01*
X142401752Y-79132358D01*
X142401756Y-79132363D01*
X142557636Y-79288243D01*
X142557641Y-79288247D01*
X142697254Y-79389682D01*
X142739920Y-79445012D01*
X142745899Y-79514625D01*
X142713293Y-79576420D01*
X142697254Y-79590318D01*
X142557641Y-79691752D01*
X142557636Y-79691756D01*
X142401758Y-79847635D01*
X142401752Y-79847641D01*
X142272187Y-80025974D01*
X142172104Y-80222393D01*
X142172103Y-80222396D01*
X142103985Y-80432047D01*
X142069500Y-80649778D01*
X142069500Y-80870221D01*
X142103985Y-81087952D01*
X142172103Y-81297603D01*
X142172104Y-81297606D01*
X142272187Y-81494025D01*
X142401752Y-81672358D01*
X142401756Y-81672363D01*
X142557636Y-81828243D01*
X142557641Y-81828247D01*
X142735976Y-81957814D01*
X142735978Y-81957815D01*
X142761450Y-81970794D01*
X142772979Y-81976668D01*
X142823775Y-82024642D01*
X142840571Y-82092463D01*
X142818034Y-82158598D01*
X142789571Y-82187471D01*
X142623105Y-82308416D01*
X142478417Y-82453104D01*
X142478417Y-82453105D01*
X142358140Y-82618650D01*
X142265244Y-82800970D01*
X142202009Y-82995586D01*
X142193391Y-83050000D01*
X143554314Y-83050000D01*
X143549920Y-83054394D01*
X143497259Y-83145606D01*
X143470000Y-83247339D01*
X143470000Y-83352661D01*
X143497259Y-83454394D01*
X143549920Y-83545606D01*
X143554314Y-83550000D01*
X142193391Y-83550000D01*
X142202009Y-83604413D01*
X142265244Y-83799029D01*
X142358140Y-83981349D01*
X142478417Y-84146894D01*
X142478417Y-84146895D01*
X142623104Y-84291582D01*
X142789571Y-84412528D01*
X142832236Y-84467858D01*
X142838215Y-84537471D01*
X142805609Y-84599266D01*
X142772981Y-84623330D01*
X142735976Y-84642185D01*
X142557641Y-84771752D01*
X142557636Y-84771756D01*
X142526212Y-84803181D01*
X142499284Y-84817884D01*
X142473466Y-84834477D01*
X142467265Y-84835368D01*
X142464889Y-84836666D01*
X142438531Y-84839500D01*
X142202781Y-84839500D01*
X142135742Y-84819815D01*
X142115100Y-84803181D01*
X138086819Y-80774900D01*
X138053334Y-80713577D01*
X138050500Y-80687219D01*
X138050500Y-80649778D01*
X138032516Y-80536233D01*
X138016015Y-80432049D01*
X137972728Y-80298824D01*
X137947896Y-80222396D01*
X137947895Y-80222393D01*
X137905186Y-80138573D01*
X137847815Y-80025978D01*
X137780417Y-79933212D01*
X137718247Y-79847641D01*
X137718242Y-79847635D01*
X137562363Y-79691756D01*
X137562358Y-79691752D01*
X137422745Y-79590318D01*
X137380079Y-79534989D01*
X137374100Y-79465375D01*
X137406705Y-79403580D01*
X137422745Y-79389682D01*
X137562358Y-79288247D01*
X137562356Y-79288247D01*
X137562365Y-79288242D01*
X137718242Y-79132365D01*
X137847815Y-78954022D01*
X137947895Y-78757606D01*
X138016015Y-78547951D01*
X138050500Y-78330222D01*
X138050500Y-78109778D01*
X138016015Y-77892049D01*
X137960372Y-77720794D01*
X137947896Y-77682396D01*
X137947895Y-77682393D01*
X137903866Y-77595984D01*
X137847815Y-77485978D01*
X137831260Y-77463192D01*
X137718247Y-77307641D01*
X137718243Y-77307636D01*
X137562363Y-77151756D01*
X137562358Y-77151752D01*
X137422745Y-77050318D01*
X137380079Y-76994989D01*
X137374100Y-76925375D01*
X137406705Y-76863580D01*
X137422745Y-76849682D01*
X137562358Y-76748247D01*
X137562356Y-76748247D01*
X137562365Y-76748242D01*
X137718242Y-76592365D01*
X137847815Y-76414022D01*
X137947895Y-76217606D01*
X138016015Y-76007951D01*
X138050500Y-75790222D01*
X138050500Y-75569778D01*
X138016015Y-75352049D01*
X137947895Y-75142394D01*
X137947895Y-75142393D01*
X137913237Y-75074375D01*
X137847815Y-74945978D01*
X137736421Y-74792656D01*
X137718247Y-74767641D01*
X137718243Y-74767636D01*
X137562363Y-74611756D01*
X137562358Y-74611752D01*
X137422745Y-74510318D01*
X137380079Y-74454989D01*
X137374100Y-74385375D01*
X137406705Y-74323580D01*
X137422745Y-74309682D01*
X137562358Y-74208247D01*
X137562356Y-74208247D01*
X137562365Y-74208242D01*
X137718242Y-74052365D01*
X137847815Y-73874022D01*
X137947895Y-73677606D01*
X138016015Y-73467951D01*
X138050500Y-73250222D01*
X138050500Y-73029778D01*
X138016015Y-72812049D01*
X137947895Y-72602394D01*
X137947895Y-72602393D01*
X137908774Y-72525616D01*
X137847815Y-72405978D01*
X137771657Y-72301155D01*
X137718247Y-72227641D01*
X137718243Y-72227636D01*
X137562363Y-72071756D01*
X137562358Y-72071752D01*
X137422745Y-71970318D01*
X137380079Y-71914989D01*
X137374100Y-71845375D01*
X137406705Y-71783580D01*
X137422745Y-71769682D01*
X137562358Y-71668247D01*
X137562356Y-71668247D01*
X137562365Y-71668242D01*
X137718242Y-71512365D01*
X137847815Y-71334022D01*
X137947895Y-71137606D01*
X138016015Y-70927951D01*
X138050500Y-70710222D01*
X138050500Y-70489778D01*
X138016015Y-70272049D01*
X137947895Y-70062394D01*
X137947895Y-70062393D01*
X137896852Y-69962218D01*
X137847815Y-69865978D01*
X137816487Y-69822859D01*
X137718247Y-69687641D01*
X137718243Y-69687636D01*
X137562363Y-69531756D01*
X137562358Y-69531752D01*
X137422745Y-69430318D01*
X137380079Y-69374989D01*
X137374100Y-69305375D01*
X137406705Y-69243580D01*
X137422745Y-69229682D01*
X137562358Y-69128247D01*
X137562356Y-69128247D01*
X137562365Y-69128242D01*
X137718242Y-68972365D01*
X137847815Y-68794022D01*
X137947895Y-68597606D01*
X138016015Y-68387951D01*
X138050500Y-68170222D01*
X138050500Y-67949778D01*
X138016015Y-67732049D01*
X137955923Y-67547101D01*
X137947896Y-67522396D01*
X137947895Y-67522393D01*
X137881734Y-67392548D01*
X137847815Y-67325978D01*
X137807685Y-67270743D01*
X137718247Y-67147641D01*
X137718243Y-67147636D01*
X137562363Y-66991756D01*
X137562358Y-66991752D01*
X137384025Y-66862187D01*
X137384024Y-66862186D01*
X137384022Y-66862185D01*
X137294746Y-66816696D01*
X137187606Y-66762104D01*
X137187603Y-66762103D01*
X136977952Y-66693985D01*
X136865781Y-66676219D01*
X136760222Y-66659500D01*
X135739778Y-66659500D01*
X135667201Y-66670995D01*
X135522047Y-66693985D01*
X135312396Y-66762103D01*
X135312393Y-66762104D01*
X135115974Y-66862187D01*
X134937641Y-66991752D01*
X134937636Y-66991756D01*
X134906212Y-67023181D01*
X134844889Y-67056666D01*
X134818531Y-67059500D01*
X111488754Y-67059500D01*
X111421715Y-67039815D01*
X111388438Y-67008387D01*
X111293284Y-66877419D01*
X111115147Y-66699282D01*
X111115145Y-66699280D01*
X111115140Y-66699276D01*
X110911339Y-66551207D01*
X110911338Y-66551206D01*
X110911336Y-66551205D01*
X110828783Y-66509142D01*
X110686874Y-66436835D01*
X110447276Y-66358985D01*
X110198453Y-66319575D01*
X109946529Y-66319575D01*
X109822117Y-66339280D01*
X109697705Y-66358985D01*
X109458107Y-66436835D01*
X109233642Y-66551207D01*
X109029841Y-66699276D01*
X109029836Y-66699280D01*
X108851696Y-66877420D01*
X108851692Y-66877425D01*
X108703623Y-67081226D01*
X108589251Y-67305691D01*
X108515751Y-67531901D01*
X108511401Y-67545290D01*
X108471991Y-67794113D01*
X108471991Y-68046037D01*
X108475968Y-68071146D01*
X108511401Y-68294860D01*
X108589251Y-68534458D01*
X108703623Y-68758923D01*
X108851692Y-68962724D01*
X108851696Y-68962729D01*
X109029836Y-69140869D01*
X109029841Y-69140873D01*
X109124321Y-69209516D01*
X109233646Y-69288945D01*
X109366558Y-69356667D01*
X109458107Y-69403314D01*
X109458109Y-69403314D01*
X109458112Y-69403316D01*
X109697706Y-69481165D01*
X109946529Y-69520575D01*
X109946530Y-69520575D01*
X110198452Y-69520575D01*
X110198453Y-69520575D01*
X110447276Y-69481165D01*
X110686870Y-69403316D01*
X110911336Y-69288945D01*
X111115147Y-69140868D01*
X111159196Y-69096819D01*
X111220519Y-69063334D01*
X111246877Y-69060500D01*
X134818531Y-69060500D01*
X134841027Y-69067105D01*
X134864370Y-69069284D01*
X134877200Y-69077727D01*
X134885570Y-69080185D01*
X134894973Y-69086865D01*
X134900893Y-69091500D01*
X134937635Y-69128242D01*
X135079035Y-69230974D01*
X135080811Y-69232365D01*
X135099897Y-69259046D01*
X135119920Y-69285012D01*
X135120117Y-69287312D01*
X135121462Y-69289192D01*
X135123093Y-69321955D01*
X135125899Y-69354625D01*
X135124821Y-69356667D01*
X135124936Y-69358975D01*
X135108597Y-69387415D01*
X135093293Y-69416420D01*
X135090587Y-69418764D01*
X135090131Y-69419559D01*
X135088985Y-69420152D01*
X135077254Y-69430318D01*
X134937641Y-69531752D01*
X134937636Y-69531756D01*
X134906212Y-69563181D01*
X134844889Y-69596666D01*
X134818531Y-69599500D01*
X119301457Y-69599500D01*
X119238222Y-69612078D01*
X119206604Y-69618368D01*
X119108167Y-69637947D01*
X119108159Y-69637950D01*
X119054834Y-69660037D01*
X119054834Y-69660038D01*
X119009315Y-69678892D01*
X118926089Y-69713366D01*
X118926079Y-69713371D01*
X118762219Y-69822859D01*
X118719105Y-69865974D01*
X118622861Y-69962218D01*
X118622858Y-69962221D01*
X113721651Y-74863427D01*
X113660328Y-74896912D01*
X113630834Y-74898919D01*
X113630834Y-74899500D01*
X113625962Y-74899500D01*
X113374038Y-74899500D01*
X113249626Y-74919205D01*
X113125214Y-74938910D01*
X112885616Y-75016760D01*
X112661151Y-75131132D01*
X112457350Y-75279201D01*
X112457345Y-75279205D01*
X112279205Y-75457345D01*
X112279201Y-75457350D01*
X112131132Y-75661151D01*
X112016760Y-75885616D01*
X111938910Y-76125214D01*
X111914656Y-76278347D01*
X111899500Y-76374038D01*
X111899500Y-76625962D01*
X111918867Y-76748242D01*
X111938910Y-76874785D01*
X112016760Y-77114383D01*
X112095413Y-77268747D01*
X112115228Y-77307636D01*
X112131132Y-77338848D01*
X112279201Y-77542649D01*
X112279205Y-77542654D01*
X112457345Y-77720794D01*
X112457350Y-77720798D01*
X112635117Y-77849952D01*
X112661155Y-77868870D01*
X112804184Y-77941747D01*
X112885616Y-77983239D01*
X112885618Y-77983239D01*
X112885621Y-77983241D01*
X113125215Y-78061090D01*
X113374038Y-78100500D01*
X113374039Y-78100500D01*
X113625961Y-78100500D01*
X113625962Y-78100500D01*
X113874785Y-78061090D01*
X114114379Y-77983241D01*
X114338845Y-77868870D01*
X114542656Y-77720793D01*
X114720793Y-77542656D01*
X114868870Y-77338845D01*
X114983241Y-77114379D01*
X115061090Y-76874785D01*
X115100500Y-76625962D01*
X115100500Y-76374038D01*
X115100500Y-76369166D01*
X115102028Y-76369166D01*
X115114979Y-76307415D01*
X115136568Y-76278350D01*
X119778101Y-71636819D01*
X119839424Y-71603334D01*
X119865782Y-71600500D01*
X126143059Y-71600500D01*
X126210098Y-71620185D01*
X126255853Y-71672989D01*
X126265797Y-71742147D01*
X126236772Y-71805703D01*
X126215944Y-71824818D01*
X126086036Y-71919201D01*
X126086031Y-71919205D01*
X125907891Y-72097345D01*
X125907887Y-72097350D01*
X125759818Y-72301151D01*
X125645446Y-72525616D01*
X125567596Y-72765214D01*
X125528186Y-73014038D01*
X125528186Y-73270834D01*
X125526671Y-73270834D01*
X125513672Y-73332643D01*
X125492113Y-73361650D01*
X120379585Y-78474181D01*
X120318262Y-78507666D01*
X120291904Y-78510500D01*
X62935294Y-78510500D01*
X62903231Y-78516876D01*
X62903232Y-78516877D01*
X62742010Y-78548946D01*
X62742004Y-78548948D01*
X62559928Y-78624366D01*
X62559919Y-78624371D01*
X62396059Y-78733859D01*
X62396055Y-78733862D01*
X60043131Y-81086788D01*
X59362220Y-81767699D01*
X59362218Y-81767701D01*
X59301677Y-81828242D01*
X59222859Y-81907059D01*
X59113371Y-82070919D01*
X59113364Y-82070932D01*
X59066522Y-82184023D01*
X59042577Y-82241832D01*
X59042576Y-82241836D01*
X59037948Y-82253007D01*
X59037947Y-82253011D01*
X58999500Y-82446294D01*
X55500500Y-82446294D01*
X55500500Y-52506093D01*
X115899500Y-52506093D01*
X115899500Y-52758017D01*
X115932880Y-52968766D01*
X115938910Y-53006840D01*
X116016760Y-53246438D01*
X116131132Y-53470903D01*
X116279201Y-53674704D01*
X116279205Y-53674709D01*
X116457345Y-53852849D01*
X116457350Y-53852853D01*
X116627350Y-53976364D01*
X116661155Y-54000925D01*
X116804184Y-54073802D01*
X116885616Y-54115294D01*
X116885618Y-54115294D01*
X116885621Y-54115296D01*
X117125215Y-54193145D01*
X117374038Y-54232555D01*
X117374039Y-54232555D01*
X117625961Y-54232555D01*
X117625962Y-54232555D01*
X117874785Y-54193145D01*
X118114379Y-54115296D01*
X118338845Y-54000925D01*
X118542656Y-53852848D01*
X118608686Y-53786818D01*
X118670009Y-53753333D01*
X118696367Y-53750499D01*
X123025501Y-53750499D01*
X123092540Y-53770184D01*
X123138295Y-53822988D01*
X123149501Y-53874499D01*
X123149501Y-54289362D01*
X123164953Y-54406752D01*
X123164956Y-54406761D01*
X123225464Y-54552840D01*
X123321718Y-54678281D01*
X123447159Y-54774535D01*
X123593238Y-54835043D01*
X123710639Y-54850499D01*
X126789360Y-54850498D01*
X126789363Y-54850498D01*
X126906753Y-54835045D01*
X126906757Y-54835043D01*
X126906762Y-54835043D01*
X127052841Y-54774535D01*
X127178282Y-54678281D01*
X127274536Y-54552840D01*
X127335044Y-54406761D01*
X127350500Y-54289360D01*
X127350499Y-52618904D01*
X143740000Y-52618904D01*
X143740000Y-52881093D01*
X143774220Y-53141008D01*
X143774222Y-53141019D01*
X143842075Y-53394254D01*
X143942404Y-53636470D01*
X143942409Y-53636481D01*
X144073488Y-53863515D01*
X144073494Y-53863523D01*
X144160080Y-53976364D01*
X145062421Y-53074023D01*
X145075359Y-53105257D01*
X145157437Y-53228096D01*
X145261903Y-53332562D01*
X145384742Y-53414640D01*
X145415974Y-53427576D01*
X144513633Y-54329916D01*
X144513633Y-54329917D01*
X144626475Y-54416504D01*
X144626483Y-54416510D01*
X144853517Y-54547589D01*
X144853528Y-54547594D01*
X145095744Y-54647923D01*
X145348979Y-54715776D01*
X145348990Y-54715778D01*
X145608905Y-54749998D01*
X145608920Y-54749999D01*
X145871080Y-54749999D01*
X145871094Y-54749998D01*
X146131009Y-54715778D01*
X146131020Y-54715776D01*
X146384255Y-54647923D01*
X146626471Y-54547594D01*
X146626482Y-54547589D01*
X146853516Y-54416510D01*
X146853534Y-54416498D01*
X146966365Y-54329918D01*
X146966365Y-54329916D01*
X146064025Y-53427577D01*
X146095258Y-53414640D01*
X146218097Y-53332562D01*
X146322563Y-53228096D01*
X146404641Y-53105257D01*
X146417577Y-53074024D01*
X147319917Y-53976364D01*
X147319919Y-53976364D01*
X147406499Y-53863533D01*
X147406511Y-53863515D01*
X147537590Y-53636481D01*
X147537595Y-53636470D01*
X147637924Y-53394254D01*
X147705777Y-53141019D01*
X147705779Y-53141008D01*
X147739999Y-52881093D01*
X147740000Y-52881079D01*
X147740000Y-52618918D01*
X147739999Y-52618904D01*
X147705779Y-52358989D01*
X147705777Y-52358978D01*
X147637924Y-52105743D01*
X147537595Y-51863527D01*
X147537590Y-51863516D01*
X147406511Y-51636482D01*
X147406505Y-51636474D01*
X147319918Y-51523632D01*
X147319917Y-51523632D01*
X146417577Y-52425972D01*
X146404641Y-52394741D01*
X146322563Y-52271902D01*
X146218097Y-52167436D01*
X146095258Y-52085358D01*
X146064023Y-52072420D01*
X146966365Y-51170079D01*
X146853524Y-51083493D01*
X146853516Y-51083487D01*
X146626482Y-50952408D01*
X146626471Y-50952403D01*
X146384255Y-50852074D01*
X146131020Y-50784221D01*
X146131009Y-50784219D01*
X145871094Y-50749999D01*
X145608905Y-50749999D01*
X145348990Y-50784219D01*
X145348979Y-50784221D01*
X145095744Y-50852074D01*
X144853528Y-50952403D01*
X144853517Y-50952408D01*
X144626471Y-51083495D01*
X144513633Y-51170078D01*
X144513633Y-51170079D01*
X145415974Y-52072420D01*
X145384742Y-52085358D01*
X145261903Y-52167436D01*
X145157437Y-52271902D01*
X145075359Y-52394741D01*
X145062421Y-52425973D01*
X144160080Y-51523632D01*
X144160079Y-51523632D01*
X144073496Y-51636470D01*
X143942409Y-51863516D01*
X143942404Y-51863527D01*
X143842075Y-52105743D01*
X143774222Y-52358978D01*
X143774220Y-52358989D01*
X143740000Y-52618904D01*
X127350499Y-52618904D01*
X127350499Y-51210639D01*
X127350499Y-51210638D01*
X127350499Y-51210635D01*
X127335046Y-51093245D01*
X127335044Y-51093238D01*
X127335044Y-51093237D01*
X127274536Y-50947158D01*
X127178282Y-50821717D01*
X127052841Y-50725463D01*
X126906762Y-50664955D01*
X126906760Y-50664954D01*
X126789370Y-50649500D01*
X126789367Y-50649499D01*
X126789361Y-50649499D01*
X126789354Y-50649499D01*
X123710636Y-50649499D01*
X123593246Y-50664952D01*
X123593237Y-50664955D01*
X123447160Y-50725462D01*
X123321718Y-50821717D01*
X123225463Y-50947159D01*
X123164956Y-51093236D01*
X123164955Y-51093238D01*
X123149501Y-51210628D01*
X123149501Y-51210635D01*
X123149500Y-51210644D01*
X123149500Y-51625499D01*
X123129815Y-51692538D01*
X123077011Y-51738293D01*
X123025500Y-51749499D01*
X118900293Y-51749499D01*
X118833254Y-51729814D01*
X118799976Y-51698386D01*
X118720793Y-51589399D01*
X118542656Y-51411262D01*
X118542654Y-51411260D01*
X118542649Y-51411256D01*
X118338848Y-51263187D01*
X118338847Y-51263186D01*
X118338845Y-51263185D01*
X118268747Y-51227468D01*
X118114383Y-51148815D01*
X117874785Y-51070965D01*
X117625962Y-51031555D01*
X117374038Y-51031555D01*
X117249626Y-51051260D01*
X117125214Y-51070965D01*
X116885616Y-51148815D01*
X116661151Y-51263187D01*
X116457350Y-51411256D01*
X116457345Y-51411260D01*
X116279205Y-51589400D01*
X116279201Y-51589405D01*
X116131132Y-51793206D01*
X116016760Y-52017671D01*
X115938910Y-52257269D01*
X115916867Y-52396445D01*
X115899500Y-52506093D01*
X55500500Y-52506093D01*
X55500500Y-40624500D01*
X55520185Y-40557461D01*
X55572989Y-40511706D01*
X55624500Y-40500500D01*
X154375500Y-40500500D01*
X154442539Y-40520185D01*
G37*
%TD.AperFunction*%
%TD*%
M02*
