M48
; DRILL file {KiCad 9.0.2} date 2026-01-07T20:53:33+0100
; FORMAT={-:-/ absolute / metric / decimal}
; #@! TF.CreationDate,2026-01-07T20:53:33+01:00
; #@! TF.GenerationSoftware,Kicad,Pcbnew,9.0.2
; #@! TF.FileFunction,Plated,1,2,PTH
FMAT,2
METRIC
; #@! TA.AperFunction,Plated,PTH,ComponentDrill
T1C0.800
; #@! TA.AperFunction,Plated,PTH,ViaDrill
T2C0.900
; #@! TA.AperFunction,Plated,PTH,ComponentDrill
T3C0.900
; #@! TA.AperFunction,Plated,PTH,ComponentDrill
T4C1.000
; #@! TA.AperFunction,Plated,PTH,ComponentDrill
T5C1.100
; #@! TA.AperFunction,Plated,PTH,ComponentDrill
T6C1.500
%
G90
G05
T1
X134.926Y-69.06
X134.926Y-71.6
X134.926Y-74.14
X134.926Y-76.68
X134.926Y-79.22
X134.926Y-81.76
X134.926Y-84.3
X134.926Y-86.84
X134.926Y-89.38
X134.926Y-91.92
X134.926Y-94.46
X134.926Y-97.0
X134.926Y-99.54
X134.926Y-102.08
X142.546Y-69.06
X142.546Y-71.6
X142.546Y-74.14
X142.546Y-76.68
X142.546Y-79.22
X142.546Y-81.76
X142.546Y-84.3
X142.546Y-86.84
X142.546Y-89.38
X142.546Y-91.92
X142.546Y-94.46
X142.546Y-97.0
X142.546Y-99.54
X142.546Y-102.08
T2
X71.676Y-98.75
X72.494Y-74.75
X74.676Y-98.75
X75.094Y-74.75
X77.676Y-98.75
X77.694Y-74.75
X80.294Y-74.75
X80.597Y-98.75
X82.894Y-74.75
X83.197Y-98.75
X86.176Y-98.75
X108.749Y-68.92
X112.176Y-77.5
X116.176Y-53.632
X118.926Y-117.75
X119.926Y-84.0
X122.786Y-83.968
X122.926Y-104.25
X125.805Y-74.14
X128.676Y-115.75
X130.676Y-81.75
X131.676Y-84.25
X140.176Y-105.25
X145.926Y-94.5
X146.128Y-85.23
T3
X62.964Y-83.901
X63.634Y-65.401
X65.504Y-83.901
X66.174Y-65.401
X68.714Y-83.901
X69.404Y-65.401
X71.254Y-83.901
X71.944Y-65.401
X74.444Y-83.901
X75.154Y-65.401
X76.984Y-83.901
X77.694Y-65.401
X80.174Y-83.901
X80.924Y-65.401
X82.714Y-83.901
X83.464Y-65.401
X85.944Y-83.901
X86.674Y-65.401
X88.484Y-83.901
X89.214Y-65.401
X91.694Y-83.901
X94.234Y-83.901
T4
X137.676Y-110.25
X137.676Y-112.79
X140.216Y-110.25
X140.216Y-112.79
X142.756Y-110.25
X142.756Y-112.79
X146.446Y-79.22
X146.446Y-81.76
X149.926Y-94.42
X149.926Y-96.96
X149.926Y-99.5
T5
X61.926Y-106.75
X61.926Y-113.25
X66.426Y-106.75
X66.426Y-113.25
X73.176Y-106.75
X73.176Y-113.25
X77.676Y-106.75
X77.676Y-113.25
X84.426Y-106.75
X84.426Y-113.25
X88.926Y-106.75
X88.926Y-113.25
T6
X123.926Y-53.75
X144.416Y-53.75
M30
