%TF.GenerationSoftware,KiCad,Pcbnew,9.0.2*%
%TF.CreationDate,2026-01-07T20:53:30+01:00*%
%TF.ProjectId,binaryclock,62696e61-7279-4636-9c6f-636b2e6b6963,V 1*%
%TF.SameCoordinates,Original*%
%TF.FileFunction,Copper,L2,Bot*%
%TF.FilePolarity,Positive*%
%FSLAX46Y46*%
G04 Gerber Fmt 4.6, Leading zero omitted, Abs format (unit mm)*
G04 Created by KiCad (PCBNEW 9.0.2) date 2026-01-07 20:53:30*
%MOMM*%
%LPD*%
G01*
G04 APERTURE LIST*
G04 Aperture macros list*
%AMRoundRect*
0 Rectangle with rounded corners*
0 $1 Rounding radius*
0 $2 $3 $4 $5 $6 $7 $8 $9 X,Y pos of 4 corners*
0 Add a 4 corners polygon primitive as box body*
4,1,4,$2,$3,$4,$5,$6,$7,$8,$9,$2,$3,0*
0 Add four circle primitives for the rounded corners*
1,1,$1+$1,$2,$3*
1,1,$1+$1,$4,$5*
1,1,$1+$1,$6,$7*
1,1,$1+$1,$8,$9*
0 Add four rect primitives between the rounded corners*
20,1,$1+$1,$2,$3,$4,$5,0*
20,1,$1+$1,$4,$5,$6,$7,0*
20,1,$1+$1,$6,$7,$8,$9,0*
20,1,$1+$1,$8,$9,$2,$3,0*%
G04 Aperture macros list end*
%TA.AperFunction,ComponentPad*%
%ADD10R,1.800000X1.800000*%
%TD*%
%TA.AperFunction,ComponentPad*%
%ADD11C,1.800000*%
%TD*%
%TA.AperFunction,ComponentPad*%
%ADD12C,2.000000*%
%TD*%
%TA.AperFunction,ComponentPad*%
%ADD13R,3.000000X3.000000*%
%TD*%
%TA.AperFunction,ComponentPad*%
%ADD14C,3.000000*%
%TD*%
%TA.AperFunction,ComponentPad*%
%ADD15RoundRect,0.250000X0.950000X0.550000X-0.950000X0.550000X-0.950000X-0.550000X0.950000X-0.550000X0*%
%TD*%
%TA.AperFunction,ComponentPad*%
%ADD16O,2.400000X1.600000*%
%TD*%
%TA.AperFunction,ComponentPad*%
%ADD17RoundRect,0.250000X0.600000X-0.600000X0.600000X0.600000X-0.600000X0.600000X-0.600000X-0.600000X0*%
%TD*%
%TA.AperFunction,ComponentPad*%
%ADD18C,1.700000*%
%TD*%
%TA.AperFunction,ComponentPad*%
%ADD19R,1.700000X1.700000*%
%TD*%
%TA.AperFunction,ViaPad*%
%ADD20C,2.000000*%
%TD*%
%TA.AperFunction,Conductor*%
%ADD21C,0.800000*%
%TD*%
G04 APERTURE END LIST*
D10*
%TO.P,D8,1,K*%
%TO.N,/OC1B*%
X74443802Y-83901000D03*
D11*
%TO.P,D8,2,A*%
%TO.N,/PC2*%
X76983802Y-83901000D03*
%TD*%
D10*
%TO.P,D5,1,K*%
%TO.N,/OC1A*%
X86673802Y-65401000D03*
D11*
%TO.P,D5,2,A*%
%TO.N,/PD7*%
X89213802Y-65401000D03*
%TD*%
D10*
%TO.P,D2,1,K*%
%TO.N,/OC1A*%
X69403802Y-65401000D03*
D11*
%TO.P,D2,2,A*%
%TO.N,/PD4*%
X71943802Y-65401000D03*
%TD*%
D12*
%TO.P,SW1,1,1*%
%TO.N,-BATT*%
X61926382Y-113250000D03*
X61926382Y-106750000D03*
%TO.P,SW1,2,2*%
%TO.N,/INT0*%
X66426382Y-113250000D03*
X66426382Y-106750000D03*
%TD*%
D13*
%TO.P,BT1,1,+*%
%TO.N,+BATT*%
X123926382Y-53749999D03*
D14*
%TO.P,BT1,2,-*%
%TO.N,-BATT*%
X144416382Y-53749999D03*
%TD*%
D10*
%TO.P,D9,1,K*%
%TO.N,/OC1B*%
X80173802Y-83901000D03*
D11*
%TO.P,D9,2,A*%
%TO.N,/PC3*%
X82713802Y-83901000D03*
%TD*%
D10*
%TO.P,D11,1,K*%
%TO.N,/OC1B*%
X91693802Y-83901000D03*
D11*
%TO.P,D11,2,A*%
%TO.N,/PC5*%
X94233802Y-83901000D03*
%TD*%
D15*
%TO.P,U1,1,~{RESET}/PC6*%
%TO.N,/{slash}RST*%
X142546382Y-102080000D03*
D16*
%TO.P,U1,2,PD0*%
%TO.N,/RXD*%
X142546382Y-99540000D03*
%TO.P,U1,3,PD1*%
%TO.N,/TXD*%
X142546382Y-97000000D03*
%TO.P,U1,4,PD2*%
%TO.N,/INT0*%
X142546382Y-94460000D03*
%TO.P,U1,5,PD3*%
%TO.N,/PD3*%
X142546382Y-91920000D03*
%TO.P,U1,6,PD4*%
%TO.N,/PD4*%
X142546382Y-89380000D03*
%TO.P,U1,7,VCC*%
%TO.N,+BATT*%
X142546382Y-86840000D03*
%TO.P,U1,8,GND*%
%TO.N,-BATT*%
X142546382Y-84300000D03*
%TO.P,U1,9,XTAL1/PB6*%
%TO.N,/TOSC1*%
X142546382Y-81760000D03*
%TO.P,U1,10,XTAL2/PB7*%
%TO.N,/TOSC2*%
X142546382Y-79220000D03*
%TO.P,U1,11,PD5*%
%TO.N,/PD5*%
X142546382Y-76680000D03*
%TO.P,U1,12,PD6*%
%TO.N,/PD6*%
X142546382Y-74140000D03*
%TO.P,U1,13,PD7*%
%TO.N,/PD7*%
X142546382Y-71600000D03*
%TO.P,U1,14,PB0*%
%TO.N,unconnected-(U1-PB0-Pad14)*%
X142546382Y-69060000D03*
%TO.P,U1,15,PB1*%
%TO.N,/OC1A*%
X134926382Y-69060000D03*
%TO.P,U1,16,PB2*%
%TO.N,/OC1B*%
X134926382Y-71600000D03*
%TO.P,U1,17,PB3*%
%TO.N,/MOSI{slash}PCINT3*%
X134926382Y-74140000D03*
%TO.P,U1,18,PB4*%
%TO.N,/MISO{slash}PCINT4*%
X134926382Y-76680000D03*
%TO.P,U1,19,PB5*%
%TO.N,/SCK*%
X134926382Y-79220000D03*
%TO.P,U1,20,AVCC*%
%TO.N,+BATT*%
X134926382Y-81760000D03*
%TO.P,U1,21,AREF*%
%TO.N,unconnected-(U1-AREF-Pad21)*%
X134926382Y-84300000D03*
%TO.P,U1,22,GND*%
%TO.N,-BATT*%
X134926382Y-86840000D03*
%TO.P,U1,23,PC0*%
%TO.N,/PC0*%
X134926382Y-89380000D03*
%TO.P,U1,24,PC1*%
%TO.N,/PC1*%
X134926382Y-91920000D03*
%TO.P,U1,25,PC2*%
%TO.N,/PC2*%
X134926382Y-94460000D03*
%TO.P,U1,26,PC3*%
%TO.N,/PC3*%
X134926382Y-97000000D03*
%TO.P,U1,27,PC4*%
%TO.N,/PC4*%
X134926382Y-99540000D03*
%TO.P,U1,28,PC5*%
%TO.N,/PC5*%
X134926382Y-102080000D03*
%TD*%
D17*
%TO.P,J2,1,MISO*%
%TO.N,/MISO{slash}PCINT4*%
X137676382Y-112790000D03*
D18*
%TO.P,J2,2,VCC*%
%TO.N,+BATT*%
X137676382Y-110250000D03*
%TO.P,J2,3,SCK*%
%TO.N,/SCK*%
X140216382Y-112790000D03*
%TO.P,J2,4,MOSI*%
%TO.N,/MOSI{slash}PCINT3*%
X140216382Y-110250000D03*
%TO.P,J2,5,~{RST}*%
%TO.N,/{slash}RST*%
X142756382Y-112790000D03*
%TO.P,J2,6,GND*%
%TO.N,-BATT*%
X142756382Y-110250000D03*
%TD*%
D12*
%TO.P,SW3,1,1*%
%TO.N,-BATT*%
X84426382Y-113250000D03*
X84426382Y-106750000D03*
%TO.P,SW3,2,2*%
%TO.N,/MISO{slash}PCINT4*%
X88926382Y-113250000D03*
X88926382Y-106750000D03*
%TD*%
D10*
%TO.P,D10,1,K*%
%TO.N,/OC1B*%
X85943802Y-83901000D03*
D11*
%TO.P,D10,2,A*%
%TO.N,/PC4*%
X88483802Y-83901000D03*
%TD*%
D10*
%TO.P,D7,1,K*%
%TO.N,/OC1B*%
X68713802Y-83901000D03*
D11*
%TO.P,D7,2,A*%
%TO.N,/PC1*%
X71253802Y-83901000D03*
%TD*%
D10*
%TO.P,D3,1,K*%
%TO.N,/OC1A*%
X75153802Y-65401000D03*
D11*
%TO.P,D3,2,A*%
%TO.N,/PD5*%
X77693802Y-65401000D03*
%TD*%
D12*
%TO.P,SW2,1,1*%
%TO.N,-BATT*%
X73176382Y-113250000D03*
X73176382Y-106750000D03*
%TO.P,SW2,2,2*%
%TO.N,/MOSI{slash}PCINT3*%
X77676382Y-113250000D03*
X77676382Y-106750000D03*
%TD*%
D10*
%TO.P,D6,1,K*%
%TO.N,/OC1B*%
X62963802Y-83901000D03*
D11*
%TO.P,D6,2,A*%
%TO.N,/PC0*%
X65503802Y-83901000D03*
%TD*%
D19*
%TO.P,J1,1,Pin_1*%
%TO.N,-BATT*%
X149926382Y-94420000D03*
D18*
%TO.P,J1,2,Pin_2*%
%TO.N,/TXD*%
X149926382Y-96960000D03*
%TO.P,J1,3,Pin_3*%
%TO.N,/RXD*%
X149926382Y-99500000D03*
%TD*%
D10*
%TO.P,D4,1,K*%
%TO.N,/OC1A*%
X80923802Y-65401000D03*
D11*
%TO.P,D4,2,A*%
%TO.N,/PD6*%
X83463802Y-65401000D03*
%TD*%
D10*
%TO.P,D1,1,K*%
%TO.N,/OC1A*%
X63633802Y-65401000D03*
D11*
%TO.P,D1,2,A*%
%TO.N,/PD3*%
X66173802Y-65401000D03*
%TD*%
D19*
%TO.P,Y1,1,1*%
%TO.N,/TOSC1*%
X146446382Y-81760000D03*
D18*
%TO.P,Y1,2,2*%
%TO.N,/TOSC2*%
X146446382Y-79220000D03*
%TD*%
D20*
%TO.N,-BATT*%
X131676382Y-84250000D03*
X146127588Y-85230049D03*
%TO.N,+BATT*%
X130676382Y-81750000D03*
X116176382Y-53632055D03*
%TO.N,/OC1A*%
X108748873Y-68920075D03*
%TO.N,/PC0*%
X71676382Y-98750000D03*
%TO.N,/PC1*%
X74676382Y-98750000D03*
%TO.N,/PC2*%
X77676382Y-98750000D03*
%TO.N,/PC3*%
X80596540Y-98750000D03*
%TO.N,/PC4*%
X83196543Y-98750000D03*
%TO.N,/PC5*%
X86176382Y-98750000D03*
%TO.N,/PD3*%
X72493796Y-74750000D03*
%TO.N,/OC1B*%
X112176382Y-77500000D03*
%TO.N,/PD4*%
X75093799Y-74750000D03*
%TO.N,/PD5*%
X77693802Y-74750000D03*
%TO.N,/PD6*%
X80293805Y-74750000D03*
%TO.N,/PD7*%
X82893808Y-74750000D03*
%TO.N,/MOSI{slash}PCINT3*%
X125805068Y-74140000D03*
X140176382Y-105250000D03*
%TO.N,/SCK*%
X128676382Y-115750000D03*
X122786382Y-83968428D03*
%TO.N,/MISO{slash}PCINT4*%
X119926382Y-84000000D03*
X122926382Y-104250000D03*
%TO.N,/INT0*%
X145926382Y-94500000D03*
X118926382Y-117750000D03*
%TD*%
D21*
%TO.N,+BATT*%
X142546382Y-86840000D02*
X140413381Y-86840000D01*
X116294326Y-53749999D02*
X116176382Y-53632055D01*
X140413381Y-86840000D02*
X135333381Y-81760000D01*
X123926382Y-53749999D02*
X116294326Y-53749999D01*
X138676382Y-88000000D02*
X139836382Y-86840000D01*
X139836382Y-86840000D02*
X140413381Y-86840000D01*
X130686382Y-81760000D02*
X130676382Y-81750000D01*
X135333381Y-81760000D02*
X134926382Y-81760000D01*
X134926382Y-81760000D02*
X130686382Y-81760000D01*
X137676382Y-104920158D02*
X138676382Y-103920158D01*
X138676382Y-103920158D02*
X138676382Y-88000000D01*
X137676382Y-110250000D02*
X137676382Y-104920158D01*
%TO.N,/OC1A*%
X69403802Y-65252580D02*
X71156382Y-63500000D01*
X69403802Y-65401000D02*
X69403802Y-65252580D01*
X71156382Y-63500000D02*
X73252802Y-63500000D01*
X79022802Y-63500000D02*
X80923802Y-65401000D01*
X67502802Y-63500000D02*
X69403802Y-65401000D01*
X80923802Y-65401000D02*
X80923802Y-65252580D01*
X75153802Y-65401000D02*
X75153802Y-65252580D01*
X65386382Y-63500000D02*
X67502802Y-63500000D01*
X73252802Y-63500000D02*
X75153802Y-65401000D01*
X69383802Y-65401000D02*
X69383802Y-65252580D01*
X108888798Y-69060000D02*
X134926382Y-69060000D01*
X108748873Y-68920075D02*
X108888798Y-69060000D01*
X63633802Y-65401000D02*
X63633802Y-65252580D01*
X80923802Y-65252580D02*
X82676382Y-63500000D01*
X76906382Y-63500000D02*
X79022802Y-63500000D01*
X84772802Y-63500000D02*
X86673802Y-65401000D01*
X75153802Y-65252580D02*
X76906382Y-63500000D01*
X82676382Y-63500000D02*
X84772802Y-63500000D01*
X63633802Y-65252580D02*
X65386382Y-63500000D01*
%TO.N,/PC0*%
X71676382Y-94000000D02*
X79676382Y-86000000D01*
X129676382Y-86000000D02*
X133056382Y-89380000D01*
X134805382Y-89501000D02*
X134926382Y-89380000D01*
X133056382Y-89380000D02*
X134926382Y-89380000D01*
X71676382Y-98750000D02*
X71676382Y-94000000D01*
X79676382Y-86000000D02*
X129676382Y-86000000D01*
%TO.N,/PC1*%
X128827382Y-87401000D02*
X133346382Y-91920000D01*
X74676382Y-93750000D02*
X81025382Y-87401000D01*
X74676382Y-98750000D02*
X74676382Y-93750000D01*
X133346382Y-91920000D02*
X134926382Y-91920000D01*
X81025382Y-87401000D02*
X128827382Y-87401000D01*
%TO.N,/PC2*%
X133636382Y-94460000D02*
X134926382Y-94460000D01*
X134715382Y-94249000D02*
X134926382Y-94460000D01*
X81926382Y-89000000D02*
X128176382Y-89000000D01*
X77676382Y-98750000D02*
X77676382Y-93250000D01*
X128176382Y-89000000D02*
X133636382Y-94460000D01*
X77676382Y-93250000D02*
X81926382Y-89000000D01*
%TO.N,/PC3*%
X83025382Y-90401000D02*
X127077382Y-90401000D01*
X133676382Y-97000000D02*
X134926382Y-97000000D01*
X127077382Y-90401000D02*
X133676382Y-97000000D01*
X83025382Y-90401000D02*
X80596540Y-92829842D01*
X80596540Y-92829842D02*
X80596540Y-98750000D01*
%TO.N,/PC4*%
X85124382Y-91802000D02*
X125728382Y-91802000D01*
X83196543Y-98750000D02*
X83196543Y-93729839D01*
X125728382Y-91802000D02*
X133466382Y-99540000D01*
X83196543Y-93729839D02*
X85124382Y-91802000D01*
X133466382Y-99540000D02*
X134926382Y-99540000D01*
%TO.N,/PC5*%
X86176382Y-96897236D02*
X89573618Y-93500000D01*
X124426382Y-93500000D02*
X133006382Y-102080000D01*
X89573618Y-93500000D02*
X124426382Y-93500000D01*
X133006382Y-102080000D02*
X134926382Y-102080000D01*
X86176382Y-98750000D02*
X86176382Y-96897236D01*
%TO.N,/PD3*%
X152500000Y-85000000D02*
X145580000Y-91920000D01*
X72493796Y-74750000D02*
X72493796Y-74520161D01*
X145580000Y-91920000D02*
X142546382Y-91920000D01*
X141652695Y-59146000D02*
X152500000Y-69993305D01*
X79711957Y-67302000D02*
X97124382Y-67302000D01*
X105280382Y-59146000D02*
X141652695Y-59146000D01*
X72493796Y-74520161D02*
X79711957Y-67302000D01*
X152500000Y-69993305D02*
X152500000Y-85000000D01*
X97124382Y-67302000D02*
X105280382Y-59146000D01*
%TO.N,/OC1B*%
X78272802Y-82000000D02*
X80173802Y-83901000D01*
X74443802Y-83901000D02*
X74443802Y-83752580D01*
X80173802Y-83901000D02*
X80173802Y-83752580D01*
X87696382Y-82000000D02*
X89792802Y-82000000D01*
X70466382Y-82000000D02*
X72542802Y-82000000D01*
X74443802Y-83752580D02*
X76196382Y-82000000D01*
X64716382Y-82000000D02*
X66812802Y-82000000D01*
X112176382Y-77500000D02*
X118076382Y-71600000D01*
X85943802Y-83901000D02*
X85943802Y-83752580D01*
X66812802Y-82000000D02*
X68713802Y-83901000D01*
X76196382Y-82000000D02*
X78272802Y-82000000D01*
X118076382Y-71600000D02*
X134926382Y-71600000D01*
X81926382Y-82000000D02*
X84042802Y-82000000D01*
X80173802Y-83752580D02*
X81926382Y-82000000D01*
X62963802Y-83901000D02*
X62963802Y-83752580D01*
X89792802Y-82000000D02*
X91693802Y-83901000D01*
X72542802Y-82000000D02*
X74443802Y-83901000D01*
X62963802Y-83752580D02*
X64716382Y-82000000D01*
X68713802Y-83752580D02*
X70466382Y-82000000D01*
X68713802Y-83901000D02*
X68713802Y-83752580D01*
X85943802Y-83752580D02*
X87696382Y-82000000D01*
X84042802Y-82000000D02*
X85943802Y-83901000D01*
%TO.N,/PD4*%
X75093799Y-74750000D02*
X75093799Y-74520161D01*
X150000000Y-85313191D02*
X145933191Y-89380000D01*
X145933191Y-89380000D02*
X142546382Y-89380000D01*
X150000000Y-69474618D02*
X150000000Y-85313191D01*
X106129382Y-60547000D02*
X141072382Y-60547000D01*
X97973382Y-68703000D02*
X106129382Y-60547000D01*
X141072382Y-60547000D02*
X150000000Y-69474618D01*
X80910960Y-68703000D02*
X97973382Y-68703000D01*
X75093799Y-74520161D02*
X80910960Y-68703000D01*
%TO.N,/PD5*%
X143187696Y-76680000D02*
X142546382Y-76680000D01*
X106978382Y-61948000D02*
X140362695Y-61948000D01*
X77693802Y-74520161D02*
X82109963Y-70104000D01*
X140362695Y-61948000D02*
X146148382Y-67733688D01*
X77693802Y-74750000D02*
X77693802Y-74520161D01*
X82109963Y-70104000D02*
X98822382Y-70104000D01*
X146148382Y-67733688D02*
X146148382Y-73719314D01*
X98822382Y-70104000D02*
X106978382Y-61948000D01*
X146148382Y-73719314D02*
X143187696Y-76680000D01*
%TO.N,/PD6*%
X83308966Y-71505000D02*
X99671382Y-71505000D01*
X144747382Y-73139000D02*
X143746382Y-74140000D01*
X144747382Y-68314001D02*
X144747382Y-73139000D01*
X139782381Y-63349000D02*
X144747382Y-68314001D01*
X143746382Y-74140000D02*
X142546382Y-74140000D01*
X107827382Y-63349000D02*
X139782381Y-63349000D01*
X80293805Y-74750000D02*
X80293805Y-74520161D01*
X80293805Y-74520161D02*
X83308966Y-71505000D01*
X99671382Y-71505000D02*
X107827382Y-63349000D01*
%TO.N,/PD7*%
X84737808Y-72906000D02*
X82893808Y-74750000D01*
X108676382Y-64750000D02*
X100520382Y-72906000D01*
X100520382Y-72906000D02*
X84737808Y-72906000D01*
X137250000Y-64750000D02*
X108676382Y-64750000D01*
X142546382Y-71600000D02*
X141346382Y-71600000D01*
X141346382Y-71600000D02*
X140000000Y-70253618D01*
X140000000Y-70253618D02*
X140000000Y-67500000D01*
X140000000Y-67500000D02*
X137250000Y-64750000D01*
%TO.N,/TXD*%
X142596382Y-97050000D02*
X142546382Y-97000000D01*
X142586382Y-96960000D02*
X142546382Y-97000000D01*
X149926382Y-96960000D02*
X142586382Y-96960000D01*
%TO.N,/RXD*%
X149926382Y-99500000D02*
X142586382Y-99500000D01*
X142586382Y-99500000D02*
X142546382Y-99540000D01*
X142596382Y-99590000D02*
X142546382Y-99540000D01*
%TO.N,/{slash}RST*%
X142546382Y-102080000D02*
X147176382Y-106710000D01*
X147176382Y-106710000D02*
X147176382Y-110500000D01*
X147176382Y-110500000D02*
X144886382Y-112790000D01*
X144886382Y-112790000D02*
X142756382Y-112790000D01*
%TO.N,/MOSI{slash}PCINT3*%
X140176382Y-105250000D02*
X140176382Y-110210000D01*
X58676382Y-83544840D02*
X61710222Y-80511000D01*
X77676382Y-106750000D02*
X77676382Y-105176382D01*
X77676382Y-105176382D02*
X75000000Y-102500000D01*
X125805068Y-74140000D02*
X134926382Y-74140000D01*
X140176382Y-110210000D02*
X140216382Y-110250000D01*
X75000000Y-102500000D02*
X65000000Y-102500000D01*
X119434068Y-80511000D02*
X125805068Y-74140000D01*
X61710222Y-80511000D02*
X119434068Y-80511000D01*
X77676382Y-106750000D02*
X77676382Y-113250000D01*
X58676382Y-96176382D02*
X58676382Y-83544840D01*
X65000000Y-102500000D02*
X58676382Y-96176382D01*
%TO.N,/SCK*%
X122786382Y-83968428D02*
X127534810Y-79220000D01*
X128676382Y-115750000D02*
X138458463Y-115750000D01*
X127534810Y-79220000D02*
X134926382Y-79220000D01*
X138458463Y-115750000D02*
X140216382Y-113992081D01*
X140216382Y-113992081D02*
X140216382Y-112790000D01*
%TO.N,/MISO{slash}PCINT4*%
X131006382Y-113250000D02*
X131466382Y-112790000D01*
X137216382Y-113250000D02*
X137676382Y-112790000D01*
X131466382Y-112790000D02*
X137676382Y-112790000D01*
X88926382Y-106750000D02*
X88926382Y-113250000D01*
X127246382Y-76680000D02*
X134926382Y-76680000D01*
X122926382Y-104250000D02*
X131466382Y-112790000D01*
X119926382Y-84000000D02*
X127246382Y-76680000D01*
X88926382Y-113250000D02*
X131006382Y-113250000D01*
%TO.N,/INT0*%
X66426382Y-113250000D02*
X70926382Y-117750000D01*
X142586382Y-94500000D02*
X142546382Y-94460000D01*
X145926382Y-94500000D02*
X142586382Y-94500000D01*
X70926382Y-117750000D02*
X118926382Y-117750000D01*
X66426382Y-106750000D02*
X66426382Y-113250000D01*
%TO.N,/TOSC2*%
X146446382Y-79220000D02*
X142546382Y-79220000D01*
X142936382Y-79610000D02*
X142546382Y-79220000D01*
%TO.N,/TOSC1*%
X146446382Y-81760000D02*
X142546382Y-81760000D01*
%TD*%
%TA.AperFunction,Conductor*%
%TO.N,-BATT*%
G36*
X153118921Y-41520185D02*
G01*
X153164676Y-41572989D01*
X153175882Y-41624500D01*
X153175882Y-68954905D01*
X153156197Y-69021944D01*
X153103393Y-69067699D01*
X153034235Y-69077643D01*
X152970679Y-69048618D01*
X152964201Y-69042586D01*
X142434174Y-58512559D01*
X142434154Y-58512537D01*
X142290480Y-58368863D01*
X142290476Y-58368860D01*
X142126615Y-58259371D01*
X142126606Y-58259366D01*
X142054010Y-58229296D01*
X141997860Y-58206038D01*
X141944531Y-58183949D01*
X141944527Y-58183948D01*
X141944523Y-58183946D01*
X141847883Y-58164724D01*
X141751239Y-58145500D01*
X141751236Y-58145500D01*
X105181841Y-58145500D01*
X105181837Y-58145500D01*
X105085194Y-58164724D01*
X104988549Y-58183947D01*
X104988543Y-58183949D01*
X104935216Y-58206037D01*
X104935216Y-58206038D01*
X104889697Y-58224892D01*
X104806471Y-58259366D01*
X104806461Y-58259371D01*
X104642601Y-58368859D01*
X104572922Y-58438538D01*
X104503243Y-58508218D01*
X104503240Y-58508221D01*
X96746281Y-66265181D01*
X96684958Y-66298666D01*
X96658600Y-66301500D01*
X90641375Y-66301500D01*
X90574336Y-66281815D01*
X90528581Y-66229011D01*
X90518637Y-66159853D01*
X90530890Y-66121205D01*
X90604368Y-65976996D01*
X90604368Y-65976995D01*
X90604370Y-65976992D01*
X90677355Y-65752368D01*
X90678104Y-65747640D01*
X90714302Y-65519097D01*
X90714302Y-65282902D01*
X90677355Y-65049631D01*
X90604368Y-64825003D01*
X90497144Y-64614566D01*
X90358319Y-64423490D01*
X90191312Y-64256483D01*
X90000235Y-64117657D01*
X89789798Y-64010433D01*
X89565170Y-63937446D01*
X89331899Y-63900500D01*
X89331894Y-63900500D01*
X89095710Y-63900500D01*
X89095705Y-63900500D01*
X88862433Y-63937446D01*
X88637805Y-64010433D01*
X88427365Y-64117659D01*
X88274177Y-64228957D01*
X88208371Y-64252437D01*
X88140317Y-64236612D01*
X88102916Y-64204125D01*
X88036567Y-64117657D01*
X88002084Y-64072718D01*
X87876643Y-63976464D01*
X87782445Y-63937446D01*
X87730564Y-63915956D01*
X87730562Y-63915955D01*
X87613172Y-63900501D01*
X87613169Y-63900500D01*
X87613163Y-63900500D01*
X87613156Y-63900500D01*
X86639584Y-63900500D01*
X86572545Y-63880815D01*
X86551903Y-63864181D01*
X85554281Y-62866559D01*
X85554261Y-62866537D01*
X85410587Y-62722863D01*
X85410583Y-62722860D01*
X85246722Y-62613371D01*
X85246713Y-62613366D01*
X85174117Y-62583296D01*
X85117967Y-62560038D01*
X85064638Y-62537949D01*
X85064634Y-62537948D01*
X85064630Y-62537946D01*
X84967990Y-62518724D01*
X84871346Y-62499500D01*
X84871343Y-62499500D01*
X82774922Y-62499500D01*
X82577841Y-62499500D01*
X82577838Y-62499500D01*
X82384553Y-62537946D01*
X82384549Y-62537948D01*
X82384547Y-62537948D01*
X82384546Y-62537949D01*
X82309127Y-62569188D01*
X82309125Y-62569189D01*
X82202471Y-62613366D01*
X82202461Y-62613371D01*
X82038600Y-62722860D01*
X82038596Y-62722863D01*
X80937272Y-63824188D01*
X80875949Y-63857673D01*
X80806257Y-63852689D01*
X80761910Y-63824188D01*
X79804281Y-62866559D01*
X79804261Y-62866537D01*
X79660587Y-62722863D01*
X79660583Y-62722860D01*
X79496722Y-62613371D01*
X79496713Y-62613366D01*
X79424117Y-62583296D01*
X79367967Y-62560038D01*
X79314638Y-62537949D01*
X79314634Y-62537948D01*
X79314630Y-62537946D01*
X79217990Y-62518724D01*
X79121346Y-62499500D01*
X79121343Y-62499500D01*
X77004922Y-62499500D01*
X76807841Y-62499500D01*
X76807838Y-62499500D01*
X76614553Y-62537946D01*
X76614549Y-62537948D01*
X76614547Y-62537948D01*
X76614546Y-62537949D01*
X76539127Y-62569188D01*
X76539125Y-62569189D01*
X76432471Y-62613366D01*
X76432461Y-62613371D01*
X76268600Y-62722860D01*
X76268596Y-62722863D01*
X75167272Y-63824188D01*
X75105949Y-63857673D01*
X75036257Y-63852689D01*
X74991910Y-63824188D01*
X74034281Y-62866559D01*
X74034261Y-62866537D01*
X73890587Y-62722863D01*
X73890583Y-62722860D01*
X73726722Y-62613371D01*
X73726713Y-62613366D01*
X73654117Y-62583296D01*
X73597967Y-62560038D01*
X73544638Y-62537949D01*
X73544634Y-62537948D01*
X73544630Y-62537946D01*
X73447990Y-62518724D01*
X73351346Y-62499500D01*
X73351343Y-62499500D01*
X71254922Y-62499500D01*
X71057841Y-62499500D01*
X71057838Y-62499500D01*
X70864553Y-62537946D01*
X70864549Y-62537948D01*
X70864547Y-62537948D01*
X70864546Y-62537949D01*
X70789127Y-62569188D01*
X70789125Y-62569189D01*
X70682471Y-62613366D01*
X70682461Y-62613371D01*
X70518600Y-62722860D01*
X70518596Y-62722863D01*
X69417272Y-63824188D01*
X69355949Y-63857673D01*
X69286257Y-63852689D01*
X69241910Y-63824188D01*
X68284281Y-62866559D01*
X68284261Y-62866537D01*
X68140587Y-62722863D01*
X68140583Y-62722860D01*
X67976722Y-62613371D01*
X67976713Y-62613366D01*
X67904117Y-62583296D01*
X67847967Y-62560038D01*
X67794638Y-62537949D01*
X67794634Y-62537948D01*
X67794630Y-62537946D01*
X67697990Y-62518724D01*
X67601346Y-62499500D01*
X67601343Y-62499500D01*
X65484922Y-62499500D01*
X65287841Y-62499500D01*
X65287838Y-62499500D01*
X65094553Y-62537946D01*
X65094549Y-62537948D01*
X65094547Y-62537948D01*
X65094546Y-62537949D01*
X65019127Y-62569188D01*
X65019125Y-62569189D01*
X64912471Y-62613366D01*
X64912461Y-62613371D01*
X64748600Y-62722860D01*
X64748596Y-62722863D01*
X63607279Y-63864181D01*
X63545956Y-63897666D01*
X63519598Y-63900500D01*
X62694438Y-63900500D01*
X62577048Y-63915953D01*
X62577039Y-63915956D01*
X62430962Y-63976463D01*
X62305520Y-64072718D01*
X62209265Y-64198160D01*
X62148758Y-64344237D01*
X62148757Y-64344239D01*
X62133303Y-64461629D01*
X62133302Y-64461645D01*
X62133302Y-66340363D01*
X62148755Y-66457753D01*
X62148758Y-66457762D01*
X62196508Y-66573042D01*
X62209266Y-66603841D01*
X62305520Y-66729282D01*
X62430961Y-66825536D01*
X62577040Y-66886044D01*
X62694441Y-66901500D01*
X64573162Y-66901499D01*
X64573165Y-66901499D01*
X64690555Y-66886046D01*
X64690559Y-66886044D01*
X64690564Y-66886044D01*
X64836643Y-66825536D01*
X64962084Y-66729282D01*
X65058338Y-66603841D01*
X65058338Y-66603839D01*
X65062916Y-66597874D01*
X65119344Y-66556671D01*
X65189090Y-66552516D01*
X65234174Y-66573040D01*
X65387369Y-66684343D01*
X65462963Y-66722860D01*
X65597805Y-66791566D01*
X65597807Y-66791566D01*
X65597810Y-66791568D01*
X65718214Y-66830689D01*
X65822433Y-66864553D01*
X66055705Y-66901500D01*
X66055710Y-66901500D01*
X66291899Y-66901500D01*
X66525170Y-66864553D01*
X66532356Y-66862218D01*
X66749794Y-66791568D01*
X66960235Y-66684343D01*
X67151312Y-66545517D01*
X67318319Y-66378510D01*
X67457145Y-66187433D01*
X67564370Y-65976992D01*
X67637355Y-65752368D01*
X67656829Y-65629414D01*
X67686758Y-65566279D01*
X67746070Y-65529348D01*
X67815932Y-65530346D01*
X67874165Y-65568956D01*
X67902279Y-65632919D01*
X67903302Y-65648812D01*
X67903302Y-66340363D01*
X67918755Y-66457753D01*
X67918758Y-66457762D01*
X67966508Y-66573042D01*
X67979266Y-66603841D01*
X68075520Y-66729282D01*
X68200961Y-66825536D01*
X68347040Y-66886044D01*
X68464441Y-66901500D01*
X70343162Y-66901499D01*
X70343165Y-66901499D01*
X70460555Y-66886046D01*
X70460559Y-66886044D01*
X70460564Y-66886044D01*
X70606643Y-66825536D01*
X70732084Y-66729282D01*
X70828338Y-66603841D01*
X70828338Y-66603839D01*
X70832916Y-66597874D01*
X70889344Y-66556671D01*
X70959090Y-66552516D01*
X71004174Y-66573040D01*
X71157369Y-66684343D01*
X71232963Y-66722860D01*
X71367805Y-66791566D01*
X71367807Y-66791566D01*
X71367810Y-66791568D01*
X71488214Y-66830689D01*
X71592433Y-66864553D01*
X71825705Y-66901500D01*
X71825710Y-66901500D01*
X72061899Y-66901500D01*
X72295170Y-66864553D01*
X72302356Y-66862218D01*
X72519794Y-66791568D01*
X72730235Y-66684343D01*
X72921312Y-66545517D01*
X73088319Y-66378510D01*
X73227145Y-66187433D01*
X73334370Y-65976992D01*
X73407355Y-65752368D01*
X73408490Y-65747640D01*
X73410431Y-65748106D01*
X73436733Y-65692581D01*
X73496033Y-65655631D01*
X73565896Y-65656608D01*
X73624141Y-65695200D01*
X73652274Y-65759155D01*
X73653302Y-65775085D01*
X73653302Y-66340363D01*
X73668755Y-66457753D01*
X73668758Y-66457762D01*
X73716508Y-66573042D01*
X73729266Y-66603841D01*
X73825520Y-66729282D01*
X73950961Y-66825536D01*
X74097040Y-66886044D01*
X74214441Y-66901500D01*
X76093162Y-66901499D01*
X76093165Y-66901499D01*
X76210555Y-66886046D01*
X76210559Y-66886044D01*
X76210564Y-66886044D01*
X76356643Y-66825536D01*
X76482084Y-66729282D01*
X76578338Y-66603841D01*
X76578338Y-66603839D01*
X76582916Y-66597874D01*
X76639344Y-66556671D01*
X76709090Y-66552516D01*
X76754174Y-66573040D01*
X76907369Y-66684343D01*
X76982963Y-66722860D01*
X77117805Y-66791566D01*
X77117807Y-66791566D01*
X77117810Y-66791568D01*
X77238214Y-66830689D01*
X77342433Y-66864553D01*
X77575705Y-66901500D01*
X77575710Y-66901500D01*
X77811899Y-66901500D01*
X78045170Y-66864553D01*
X78052356Y-66862218D01*
X78269794Y-66791568D01*
X78480235Y-66684343D01*
X78671312Y-66545517D01*
X78838319Y-66378510D01*
X78977145Y-66187433D01*
X79084370Y-65976992D01*
X79157355Y-65752368D01*
X79158104Y-65747640D01*
X79176829Y-65629416D01*
X79206758Y-65566281D01*
X79266070Y-65529350D01*
X79335932Y-65530348D01*
X79394165Y-65568958D01*
X79422279Y-65632922D01*
X79423302Y-65648814D01*
X79423302Y-66255776D01*
X79403617Y-66322815D01*
X79350813Y-66368570D01*
X79346755Y-66370337D01*
X79238046Y-66415366D01*
X79238036Y-66415371D01*
X79074176Y-66524859D01*
X79025994Y-66573042D01*
X78934818Y-66664218D01*
X78934815Y-66664221D01*
X75709999Y-69889038D01*
X72485856Y-73113181D01*
X72424533Y-73146666D01*
X72398175Y-73149500D01*
X72367834Y-73149500D01*
X72243422Y-73169205D01*
X72119010Y-73188910D01*
X71879412Y-73266760D01*
X71654947Y-73381132D01*
X71451146Y-73529201D01*
X71451141Y-73529205D01*
X71273001Y-73707345D01*
X71272997Y-73707350D01*
X71124928Y-73911151D01*
X71010556Y-74135616D01*
X70932706Y-74375214D01*
X70893296Y-74624038D01*
X70893296Y-74875961D01*
X70932706Y-75124785D01*
X71010556Y-75364383D01*
X71124928Y-75588848D01*
X71272997Y-75792649D01*
X71273001Y-75792654D01*
X71451141Y-75970794D01*
X71451146Y-75970798D01*
X71514408Y-76016760D01*
X71654951Y-76118870D01*
X71797980Y-76191747D01*
X71879412Y-76233239D01*
X71879414Y-76233239D01*
X71879417Y-76233241D01*
X72119011Y-76311090D01*
X72367834Y-76350500D01*
X72367835Y-76350500D01*
X72619757Y-76350500D01*
X72619758Y-76350500D01*
X72868581Y-76311090D01*
X73108175Y-76233241D01*
X73332641Y-76118870D01*
X73536452Y-75970793D01*
X73706118Y-75801126D01*
X73767439Y-75767643D01*
X73837130Y-75772627D01*
X73881478Y-75801128D01*
X74051144Y-75970794D01*
X74051149Y-75970798D01*
X74114411Y-76016760D01*
X74254954Y-76118870D01*
X74397983Y-76191747D01*
X74479415Y-76233239D01*
X74479417Y-76233239D01*
X74479420Y-76233241D01*
X74719014Y-76311090D01*
X74967837Y-76350500D01*
X74967838Y-76350500D01*
X75219760Y-76350500D01*
X75219761Y-76350500D01*
X75468584Y-76311090D01*
X75708178Y-76233241D01*
X75932644Y-76118870D01*
X76136455Y-75970793D01*
X76306121Y-75801126D01*
X76367442Y-75767643D01*
X76437133Y-75772627D01*
X76481481Y-75801128D01*
X76651147Y-75970794D01*
X76651152Y-75970798D01*
X76714414Y-76016760D01*
X76854957Y-76118870D01*
X76997986Y-76191747D01*
X77079418Y-76233239D01*
X77079420Y-76233239D01*
X77079423Y-76233241D01*
X77319017Y-76311090D01*
X77567840Y-76350500D01*
X77567841Y-76350500D01*
X77819763Y-76350500D01*
X77819764Y-76350500D01*
X78068587Y-76311090D01*
X78308181Y-76233241D01*
X78532647Y-76118870D01*
X78736458Y-75970793D01*
X78906124Y-75801126D01*
X78967445Y-75767643D01*
X79037136Y-75772627D01*
X79081484Y-75801128D01*
X79251150Y-75970794D01*
X79251155Y-75970798D01*
X79314417Y-76016760D01*
X79454960Y-76118870D01*
X79597989Y-76191747D01*
X79679421Y-76233239D01*
X79679423Y-76233239D01*
X79679426Y-76233241D01*
X79919020Y-76311090D01*
X80167843Y-76350500D01*
X80167844Y-76350500D01*
X80419766Y-76350500D01*
X80419767Y-76350500D01*
X80668590Y-76311090D01*
X80908184Y-76233241D01*
X81132650Y-76118870D01*
X81336461Y-75970793D01*
X81506127Y-75801126D01*
X81567448Y-75767643D01*
X81637139Y-75772627D01*
X81681487Y-75801128D01*
X81851153Y-75970794D01*
X81851158Y-75970798D01*
X81914420Y-76016760D01*
X82054963Y-76118870D01*
X82197992Y-76191747D01*
X82279424Y-76233239D01*
X82279426Y-76233239D01*
X82279429Y-76233241D01*
X82519023Y-76311090D01*
X82767846Y-76350500D01*
X82767847Y-76350500D01*
X83019769Y-76350500D01*
X83019770Y-76350500D01*
X83268593Y-76311090D01*
X83508187Y-76233241D01*
X83732653Y-76118870D01*
X83936464Y-75970793D01*
X84114601Y-75792656D01*
X84262678Y-75588845D01*
X84374160Y-75370048D01*
X84377047Y-75364383D01*
X84377047Y-75364382D01*
X84377049Y-75364379D01*
X84454898Y-75124785D01*
X84494308Y-74875962D01*
X84494308Y-74624038D01*
X84494308Y-74619166D01*
X84495836Y-74619166D01*
X84508787Y-74557415D01*
X84530375Y-74528351D01*
X85115909Y-73942819D01*
X85177232Y-73909334D01*
X85203590Y-73906500D01*
X100618925Y-73906500D01*
X100666824Y-73896971D01*
X100740186Y-73882379D01*
X100812218Y-73868051D01*
X100865547Y-73845961D01*
X100994296Y-73792632D01*
X101158164Y-73683139D01*
X101297521Y-73543782D01*
X101297522Y-73543779D01*
X101304588Y-73536714D01*
X101304590Y-73536710D01*
X109054483Y-65786819D01*
X109115806Y-65753334D01*
X109142164Y-65750500D01*
X136784218Y-65750500D01*
X136851257Y-65770185D01*
X136871899Y-65786819D01*
X138963181Y-67878101D01*
X138996666Y-67939424D01*
X138999500Y-67965782D01*
X138999500Y-70352159D01*
X138999500Y-70352161D01*
X138999499Y-70352161D01*
X139037947Y-70545447D01*
X139037950Y-70545457D01*
X139113364Y-70727525D01*
X139113371Y-70727538D01*
X139222859Y-70891398D01*
X139222860Y-70891399D01*
X139222861Y-70891400D01*
X139362218Y-71030757D01*
X139362219Y-71030757D01*
X139369286Y-71037824D01*
X139369285Y-71037824D01*
X139369289Y-71037827D01*
X140708597Y-72377137D01*
X140708601Y-72377140D01*
X140872461Y-72486628D01*
X140872467Y-72486631D01*
X140872468Y-72486632D01*
X141054547Y-72562052D01*
X141109131Y-72572909D01*
X141171040Y-72605293D01*
X141172620Y-72606845D01*
X141234018Y-72668243D01*
X141234023Y-72668247D01*
X141373636Y-72769682D01*
X141416302Y-72825012D01*
X141422281Y-72894625D01*
X141389675Y-72956420D01*
X141373636Y-72970318D01*
X141234023Y-73071752D01*
X141234018Y-73071756D01*
X141078138Y-73227636D01*
X141078134Y-73227641D01*
X140948569Y-73405974D01*
X140848486Y-73602393D01*
X140848485Y-73602396D01*
X140780367Y-73812047D01*
X140764671Y-73911151D01*
X140745882Y-74029778D01*
X140745882Y-74250222D01*
X140749979Y-74276087D01*
X140780367Y-74467952D01*
X140848485Y-74677603D01*
X140848486Y-74677606D01*
X140948569Y-74874025D01*
X141078134Y-75052358D01*
X141078138Y-75052363D01*
X141234018Y-75208243D01*
X141234023Y-75208247D01*
X141373636Y-75309682D01*
X141416302Y-75365012D01*
X141422281Y-75434625D01*
X141389675Y-75496420D01*
X141373636Y-75510318D01*
X141234023Y-75611752D01*
X141234018Y-75611756D01*
X141078138Y-75767636D01*
X141078134Y-75767641D01*
X140948569Y-75945974D01*
X140848486Y-76142393D01*
X140848485Y-76142396D01*
X140780367Y-76352047D01*
X140745882Y-76569778D01*
X140745882Y-76790221D01*
X140780367Y-77007952D01*
X140848485Y-77217603D01*
X140848486Y-77217606D01*
X140879436Y-77278347D01*
X140925711Y-77369166D01*
X140948569Y-77414025D01*
X141078134Y-77592358D01*
X141078138Y-77592363D01*
X141234018Y-77748243D01*
X141234023Y-77748247D01*
X141373636Y-77849682D01*
X141416302Y-77905012D01*
X141422281Y-77974625D01*
X141389675Y-78036420D01*
X141373636Y-78050318D01*
X141234023Y-78151752D01*
X141234018Y-78151756D01*
X141078138Y-78307636D01*
X141078134Y-78307641D01*
X140948569Y-78485974D01*
X140848486Y-78682393D01*
X140848485Y-78682396D01*
X140780367Y-78892047D01*
X140745882Y-79109778D01*
X140745882Y-79330221D01*
X140780367Y-79547952D01*
X140848485Y-79757603D01*
X140848486Y-79757606D01*
X140948569Y-79954025D01*
X141078134Y-80132358D01*
X141078138Y-80132363D01*
X141234018Y-80288243D01*
X141234023Y-80288247D01*
X141373636Y-80389682D01*
X141416302Y-80445012D01*
X141422281Y-80514625D01*
X141389675Y-80576420D01*
X141373636Y-80590318D01*
X141234023Y-80691752D01*
X141234018Y-80691756D01*
X141078138Y-80847636D01*
X141078134Y-80847641D01*
X140948569Y-81025974D01*
X140848486Y-81222393D01*
X140848485Y-81222396D01*
X140780367Y-81432047D01*
X140745882Y-81649778D01*
X140745882Y-81870221D01*
X140780367Y-82087952D01*
X140848485Y-82297603D01*
X140848486Y-82297606D01*
X140948569Y-82494025D01*
X141078134Y-82672358D01*
X141078138Y-82672363D01*
X141234018Y-82828243D01*
X141234023Y-82828247D01*
X141412358Y-82957814D01*
X141412360Y-82957815D01*
X141437832Y-82970794D01*
X141449361Y-82976668D01*
X141500157Y-83024642D01*
X141516953Y-83092463D01*
X141494416Y-83158598D01*
X141465953Y-83187471D01*
X141299487Y-83308416D01*
X141154799Y-83453104D01*
X141154799Y-83453105D01*
X141034522Y-83618650D01*
X140941626Y-83800970D01*
X140878391Y-83995586D01*
X140869773Y-84050000D01*
X142230696Y-84050000D01*
X142226302Y-84054394D01*
X142173641Y-84145606D01*
X142146382Y-84247339D01*
X142146382Y-84352661D01*
X142173641Y-84454394D01*
X142226302Y-84545606D01*
X142230696Y-84550000D01*
X140869773Y-84550000D01*
X140878391Y-84604413D01*
X140941626Y-84799029D01*
X141034522Y-84981349D01*
X141154799Y-85146894D01*
X141154799Y-85146895D01*
X141299486Y-85291582D01*
X141465953Y-85412528D01*
X141508618Y-85467858D01*
X141514597Y-85537471D01*
X141481991Y-85599266D01*
X141449363Y-85623330D01*
X141412358Y-85642185D01*
X141234023Y-85771752D01*
X141234018Y-85771756D01*
X141202594Y-85803181D01*
X141175666Y-85817884D01*
X141149848Y-85834477D01*
X141143647Y-85835368D01*
X141141271Y-85836666D01*
X141114913Y-85839500D01*
X140879163Y-85839500D01*
X140812124Y-85819815D01*
X140791482Y-85803181D01*
X136763201Y-81774900D01*
X136729716Y-81713577D01*
X136726882Y-81687219D01*
X136726882Y-81649778D01*
X136708898Y-81536233D01*
X136692397Y-81432049D01*
X136624277Y-81222394D01*
X136624277Y-81222393D01*
X136581568Y-81138573D01*
X136524197Y-81025978D01*
X136440771Y-80911151D01*
X136394629Y-80847641D01*
X136394625Y-80847636D01*
X136238745Y-80691756D01*
X136238740Y-80691752D01*
X136099127Y-80590318D01*
X136056461Y-80534989D01*
X136050482Y-80465375D01*
X136083087Y-80403580D01*
X136099127Y-80389682D01*
X136238740Y-80288247D01*
X136238738Y-80288247D01*
X136238747Y-80288242D01*
X136394624Y-80132365D01*
X136524197Y-79954022D01*
X136624277Y-79757606D01*
X136692397Y-79547951D01*
X136726882Y-79330222D01*
X136726882Y-79109778D01*
X136692397Y-78892049D01*
X136636754Y-78720794D01*
X136624278Y-78682396D01*
X136624277Y-78682393D01*
X136553075Y-78542654D01*
X136524197Y-78485978D01*
X136484211Y-78430941D01*
X136394629Y-78307641D01*
X136394625Y-78307636D01*
X136238745Y-78151756D01*
X136238740Y-78151752D01*
X136099127Y-78050318D01*
X136056461Y-77994989D01*
X136050482Y-77925375D01*
X136083087Y-77863580D01*
X136099127Y-77849682D01*
X136238740Y-77748247D01*
X136238738Y-77748247D01*
X136238747Y-77748242D01*
X136394624Y-77592365D01*
X136524197Y-77414022D01*
X136624277Y-77217606D01*
X136692397Y-77007951D01*
X136726882Y-76790222D01*
X136726882Y-76569778D01*
X136692397Y-76352049D01*
X136624277Y-76142394D01*
X136624277Y-76142393D01*
X136589619Y-76074375D01*
X136524197Y-75945978D01*
X136418958Y-75801128D01*
X136394629Y-75767641D01*
X136394625Y-75767636D01*
X136238745Y-75611756D01*
X136238740Y-75611752D01*
X136099127Y-75510318D01*
X136056461Y-75454989D01*
X136050482Y-75385375D01*
X136083087Y-75323580D01*
X136099127Y-75309682D01*
X136238740Y-75208247D01*
X136238738Y-75208247D01*
X136238747Y-75208242D01*
X136394624Y-75052365D01*
X136524197Y-74874022D01*
X136624277Y-74677606D01*
X136692397Y-74467951D01*
X136726882Y-74250222D01*
X136726882Y-74029778D01*
X136692397Y-73812049D01*
X136624277Y-73602394D01*
X136624277Y-73602393D01*
X136585156Y-73525616D01*
X136524197Y-73405978D01*
X136448039Y-73301155D01*
X136394629Y-73227641D01*
X136394625Y-73227636D01*
X136238745Y-73071756D01*
X136238740Y-73071752D01*
X136099127Y-72970318D01*
X136056461Y-72914989D01*
X136050482Y-72845375D01*
X136083087Y-72783580D01*
X136099127Y-72769682D01*
X136238740Y-72668247D01*
X136238738Y-72668247D01*
X136238747Y-72668242D01*
X136394624Y-72512365D01*
X136524197Y-72334022D01*
X136624277Y-72137606D01*
X136692397Y-71927951D01*
X136726882Y-71710222D01*
X136726882Y-71489778D01*
X136692397Y-71272049D01*
X136624277Y-71062394D01*
X136624277Y-71062393D01*
X136537149Y-70891398D01*
X136524197Y-70865978D01*
X136492869Y-70822859D01*
X136394629Y-70687641D01*
X136394625Y-70687636D01*
X136238745Y-70531756D01*
X136238740Y-70531752D01*
X136099127Y-70430318D01*
X136056461Y-70374989D01*
X136050482Y-70305375D01*
X136083087Y-70243580D01*
X136099127Y-70229682D01*
X136238740Y-70128247D01*
X136238738Y-70128247D01*
X136238747Y-70128242D01*
X136394624Y-69972365D01*
X136524197Y-69794022D01*
X136624277Y-69597606D01*
X136692397Y-69387951D01*
X136726882Y-69170222D01*
X136726882Y-68949778D01*
X136692397Y-68732049D01*
X136658337Y-68627221D01*
X136624278Y-68522396D01*
X136624277Y-68522393D01*
X136589619Y-68454375D01*
X136524197Y-68325978D01*
X136484067Y-68270743D01*
X136394629Y-68147641D01*
X136394625Y-68147636D01*
X136238745Y-67991756D01*
X136238740Y-67991752D01*
X136060407Y-67862187D01*
X136060406Y-67862186D01*
X136060404Y-67862185D01*
X135997478Y-67830122D01*
X135863988Y-67762104D01*
X135863985Y-67762103D01*
X135654334Y-67693985D01*
X135545468Y-67676742D01*
X135436604Y-67659500D01*
X134416160Y-67659500D01*
X134343583Y-67670995D01*
X134198429Y-67693985D01*
X133988778Y-67762103D01*
X133988775Y-67762104D01*
X133792356Y-67862187D01*
X133614023Y-67991752D01*
X133614018Y-67991756D01*
X133582594Y-68023181D01*
X133521271Y-68056666D01*
X133494913Y-68059500D01*
X110165136Y-68059500D01*
X110098097Y-68039815D01*
X110064820Y-68008387D01*
X109969666Y-67877419D01*
X109791529Y-67699282D01*
X109791527Y-67699280D01*
X109791522Y-67699276D01*
X109587721Y-67551207D01*
X109587720Y-67551206D01*
X109587718Y-67551205D01*
X109505165Y-67509142D01*
X109363256Y-67436835D01*
X109123658Y-67358985D01*
X108874835Y-67319575D01*
X108622911Y-67319575D01*
X108498499Y-67339280D01*
X108374087Y-67358985D01*
X108134489Y-67436835D01*
X107910024Y-67551207D01*
X107706223Y-67699276D01*
X107706218Y-67699280D01*
X107528078Y-67877420D01*
X107528074Y-67877425D01*
X107380005Y-68081226D01*
X107265633Y-68305691D01*
X107187783Y-68545289D01*
X107187783Y-68545290D01*
X107148373Y-68794113D01*
X107148373Y-69046037D01*
X107187783Y-69294860D01*
X107265633Y-69534458D01*
X107380005Y-69758923D01*
X107528074Y-69962724D01*
X107528078Y-69962729D01*
X107706218Y-70140869D01*
X107706223Y-70140873D01*
X107798736Y-70208087D01*
X107910028Y-70288945D01*
X108042940Y-70356667D01*
X108134489Y-70403314D01*
X108134491Y-70403314D01*
X108134494Y-70403316D01*
X108374088Y-70481165D01*
X108622911Y-70520575D01*
X108622912Y-70520575D01*
X108874834Y-70520575D01*
X108874835Y-70520575D01*
X109123658Y-70481165D01*
X109363252Y-70403316D01*
X109587718Y-70288945D01*
X109791529Y-70140868D01*
X109835578Y-70096819D01*
X109896901Y-70063334D01*
X109923259Y-70060500D01*
X133494913Y-70060500D01*
X133517409Y-70067105D01*
X133540752Y-70069284D01*
X133553582Y-70077727D01*
X133561952Y-70080185D01*
X133571355Y-70086865D01*
X133577275Y-70091500D01*
X133614017Y-70128242D01*
X133755417Y-70230974D01*
X133757193Y-70232365D01*
X133776279Y-70259046D01*
X133796302Y-70285012D01*
X133796499Y-70287312D01*
X133797844Y-70289192D01*
X133799475Y-70321955D01*
X133802281Y-70354625D01*
X133801203Y-70356667D01*
X133801318Y-70358975D01*
X133784979Y-70387415D01*
X133769675Y-70416420D01*
X133766969Y-70418764D01*
X133766513Y-70419559D01*
X133765367Y-70420152D01*
X133753636Y-70430318D01*
X133614023Y-70531752D01*
X133614018Y-70531756D01*
X133582594Y-70563181D01*
X133521271Y-70596666D01*
X133494913Y-70599500D01*
X117977839Y-70599500D01*
X117914604Y-70612078D01*
X117882986Y-70618368D01*
X117784549Y-70637947D01*
X117784541Y-70637950D01*
X117731216Y-70660037D01*
X117731216Y-70660038D01*
X117685697Y-70678892D01*
X117602471Y-70713366D01*
X117602461Y-70713371D01*
X117438601Y-70822859D01*
X117395487Y-70865974D01*
X117299243Y-70962218D01*
X117299240Y-70962221D01*
X112398033Y-75863427D01*
X112336710Y-75896912D01*
X112307216Y-75898919D01*
X112307216Y-75899500D01*
X112302344Y-75899500D01*
X112050420Y-75899500D01*
X111926008Y-75919205D01*
X111801596Y-75938910D01*
X111561998Y-76016760D01*
X111337533Y-76131132D01*
X111133732Y-76279201D01*
X111133727Y-76279205D01*
X110955587Y-76457345D01*
X110955583Y-76457350D01*
X110807514Y-76661151D01*
X110693142Y-76885616D01*
X110615292Y-77125214D01*
X110591038Y-77278347D01*
X110575882Y-77374038D01*
X110575882Y-77625962D01*
X110595249Y-77748242D01*
X110615292Y-77874785D01*
X110693142Y-78114383D01*
X110746900Y-78219888D01*
X110804721Y-78333368D01*
X110807514Y-78338848D01*
X110955583Y-78542649D01*
X110955587Y-78542654D01*
X111133727Y-78720794D01*
X111133732Y-78720798D01*
X111311499Y-78849952D01*
X111337537Y-78868870D01*
X111480566Y-78941747D01*
X111561998Y-78983239D01*
X111562000Y-78983239D01*
X111562003Y-78983241D01*
X111801597Y-79061090D01*
X112050420Y-79100500D01*
X112050421Y-79100500D01*
X112302343Y-79100500D01*
X112302344Y-79100500D01*
X112551167Y-79061090D01*
X112790761Y-78983241D01*
X113015227Y-78868870D01*
X113219038Y-78720793D01*
X113397175Y-78542656D01*
X113545252Y-78338845D01*
X113659623Y-78114379D01*
X113737472Y-77874785D01*
X113776882Y-77625962D01*
X113776882Y-77374038D01*
X113776882Y-77369166D01*
X113778410Y-77369166D01*
X113791361Y-77307415D01*
X113812950Y-77278350D01*
X118454483Y-72636819D01*
X118515806Y-72603334D01*
X118542164Y-72600500D01*
X124819441Y-72600500D01*
X124886480Y-72620185D01*
X124932235Y-72672989D01*
X124942179Y-72742147D01*
X124913154Y-72805703D01*
X124892326Y-72824818D01*
X124762418Y-72919201D01*
X124762413Y-72919205D01*
X124584273Y-73097345D01*
X124584269Y-73097350D01*
X124436200Y-73301151D01*
X124321828Y-73525616D01*
X124243978Y-73765214D01*
X124204568Y-74014038D01*
X124204568Y-74270834D01*
X124203053Y-74270834D01*
X124190054Y-74332643D01*
X124168495Y-74361650D01*
X119055967Y-79474181D01*
X118994644Y-79507666D01*
X118968286Y-79510500D01*
X61611679Y-79510500D01*
X61604974Y-79511834D01*
X61604968Y-79511835D01*
X61418394Y-79548946D01*
X61418386Y-79548948D01*
X61236310Y-79624366D01*
X61236301Y-79624371D01*
X61072441Y-79733859D01*
X61072437Y-79733862D01*
X58718350Y-82087951D01*
X58038602Y-82767699D01*
X58038600Y-82767701D01*
X57978059Y-82828242D01*
X57899241Y-82907059D01*
X57789753Y-83070919D01*
X57789746Y-83070932D01*
X57753435Y-83158598D01*
X57742904Y-83184023D01*
X57738339Y-83195044D01*
X57723132Y-83231757D01*
X57714332Y-83253001D01*
X57714329Y-83253009D01*
X57675882Y-83446296D01*
X57675882Y-96274926D01*
X57714329Y-96468215D01*
X57714331Y-96468218D01*
X57736420Y-96521546D01*
X57789748Y-96650293D01*
X57789753Y-96650302D01*
X57899241Y-96814162D01*
X57899242Y-96814163D01*
X57899243Y-96814164D01*
X58038600Y-96953521D01*
X58038601Y-96953521D01*
X58045668Y-96960588D01*
X58045667Y-96960588D01*
X58045670Y-96960590D01*
X64222860Y-103137781D01*
X64222861Y-103137782D01*
X64320019Y-103234940D01*
X64362219Y-103277140D01*
X64472522Y-103350842D01*
X64526086Y-103386632D01*
X64632745Y-103430811D01*
X64708164Y-103462051D01*
X64899875Y-103500185D01*
X64901454Y-103500499D01*
X64901457Y-103500500D01*
X64901459Y-103500500D01*
X65098540Y-103500500D01*
X74534218Y-103500500D01*
X74601257Y-103520185D01*
X74621899Y-103536819D01*
X76536325Y-105451245D01*
X76569810Y-105512568D01*
X76564826Y-105582260D01*
X76536326Y-105626607D01*
X76455582Y-105707351D01*
X76307514Y-105911151D01*
X76193142Y-106135616D01*
X76115292Y-106375214D01*
X76089555Y-106537708D01*
X76075882Y-106624038D01*
X76075882Y-106875962D01*
X76109420Y-107087708D01*
X76115292Y-107124785D01*
X76193142Y-107364383D01*
X76307514Y-107588848D01*
X76455583Y-107792649D01*
X76455587Y-107792654D01*
X76637171Y-107974238D01*
X76636096Y-107975312D01*
X76670607Y-108028180D01*
X76675882Y-108063962D01*
X76675882Y-111936037D01*
X76656197Y-112003076D01*
X76636758Y-112025350D01*
X76637170Y-112025762D01*
X76455587Y-112207345D01*
X76455583Y-112207350D01*
X76307514Y-112411151D01*
X76193142Y-112635616D01*
X76115292Y-112875214D01*
X76089555Y-113037708D01*
X76075882Y-113124038D01*
X76075882Y-113375962D01*
X76091038Y-113471651D01*
X76115292Y-113624785D01*
X76193142Y-113864383D01*
X76307514Y-114088848D01*
X76455583Y-114292649D01*
X76455587Y-114292654D01*
X76633727Y-114470794D01*
X76633732Y-114470798D01*
X76811499Y-114599952D01*
X76837537Y-114618870D01*
X76980566Y-114691747D01*
X77061998Y-114733239D01*
X77062000Y-114733239D01*
X77062003Y-114733241D01*
X77301597Y-114811090D01*
X77550420Y-114850500D01*
X77550421Y-114850500D01*
X77802343Y-114850500D01*
X77802344Y-114850500D01*
X78051167Y-114811090D01*
X78290761Y-114733241D01*
X78515227Y-114618870D01*
X78719038Y-114470793D01*
X78897175Y-114292656D01*
X79045252Y-114088845D01*
X79159623Y-113864379D01*
X79237472Y-113624785D01*
X79276882Y-113375962D01*
X79276882Y-113131947D01*
X82926382Y-113131947D01*
X82926382Y-113368052D01*
X82963316Y-113601247D01*
X83036279Y-113825802D01*
X83143469Y-114036174D01*
X83203720Y-114119104D01*
X83203722Y-114119105D01*
X83902594Y-113420233D01*
X83913864Y-113462292D01*
X83986272Y-113587708D01*
X84088674Y-113690110D01*
X84214090Y-113762518D01*
X84256147Y-113773787D01*
X83557275Y-114472658D01*
X83640210Y-114532914D01*
X83850579Y-114640102D01*
X84075134Y-114713065D01*
X84075133Y-114713065D01*
X84308330Y-114750000D01*
X84544434Y-114750000D01*
X84777629Y-114713065D01*
X85002184Y-114640102D01*
X85212545Y-114532918D01*
X85212551Y-114532914D01*
X85295486Y-114472658D01*
X85295487Y-114472658D01*
X84596615Y-113773787D01*
X84638674Y-113762518D01*
X84764090Y-113690110D01*
X84866492Y-113587708D01*
X84938900Y-113462292D01*
X84950169Y-113420234D01*
X85649040Y-114119105D01*
X85649040Y-114119104D01*
X85709296Y-114036169D01*
X85709300Y-114036163D01*
X85816484Y-113825802D01*
X85889447Y-113601247D01*
X85926382Y-113368052D01*
X85926382Y-113131947D01*
X85889447Y-112898752D01*
X85816484Y-112674197D01*
X85709296Y-112463828D01*
X85649040Y-112380894D01*
X85649040Y-112380893D01*
X84950169Y-113079765D01*
X84938900Y-113037708D01*
X84866492Y-112912292D01*
X84764090Y-112809890D01*
X84638674Y-112737482D01*
X84596616Y-112726212D01*
X85295487Y-112027340D01*
X85295486Y-112027338D01*
X85212556Y-111967087D01*
X85002184Y-111859897D01*
X84777629Y-111786934D01*
X84777630Y-111786934D01*
X84544434Y-111750000D01*
X84308330Y-111750000D01*
X84075134Y-111786934D01*
X83850579Y-111859897D01*
X83640212Y-111967084D01*
X83557276Y-112027340D01*
X84256148Y-112726212D01*
X84214090Y-112737482D01*
X84088674Y-112809890D01*
X83986272Y-112912292D01*
X83913864Y-113037708D01*
X83902594Y-113079766D01*
X83203722Y-112380894D01*
X83143466Y-112463830D01*
X83036279Y-112674197D01*
X82963316Y-112898752D01*
X82926382Y-113131947D01*
X79276882Y-113131947D01*
X79276882Y-113124038D01*
X79237472Y-112875215D01*
X79159623Y-112635621D01*
X79159621Y-112635618D01*
X79159621Y-112635616D01*
X79072090Y-112463828D01*
X79045252Y-112411155D01*
X79023265Y-112380893D01*
X78897180Y-112207350D01*
X78897176Y-112207345D01*
X78852221Y-112162390D01*
X78719038Y-112029207D01*
X78717806Y-112028312D01*
X78713311Y-112023828D01*
X78698739Y-111997221D01*
X78682156Y-111971815D01*
X78681173Y-111965147D01*
X78679749Y-111962547D01*
X78680084Y-111957765D01*
X78676882Y-111936037D01*
X78676882Y-108063962D01*
X78696567Y-107996923D01*
X78716005Y-107974650D01*
X78715593Y-107974238D01*
X78852113Y-107837718D01*
X78897175Y-107792656D01*
X79045252Y-107588845D01*
X79159623Y-107364379D01*
X79237472Y-107124785D01*
X79276882Y-106875962D01*
X79276882Y-106631947D01*
X82926382Y-106631947D01*
X82926382Y-106868052D01*
X82963316Y-107101247D01*
X83036279Y-107325802D01*
X83143469Y-107536174D01*
X83203720Y-107619104D01*
X83203722Y-107619105D01*
X83902594Y-106920233D01*
X83913864Y-106962292D01*
X83986272Y-107087708D01*
X84088674Y-107190110D01*
X84214090Y-107262518D01*
X84256147Y-107273787D01*
X83557275Y-107972658D01*
X83640210Y-108032914D01*
X83850579Y-108140102D01*
X84075134Y-108213065D01*
X84075133Y-108213065D01*
X84308330Y-108250000D01*
X84544434Y-108250000D01*
X84777629Y-108213065D01*
X85002184Y-108140102D01*
X85212545Y-108032918D01*
X85212551Y-108032914D01*
X85295486Y-107972658D01*
X85295487Y-107972658D01*
X84596615Y-107273787D01*
X84638674Y-107262518D01*
X84764090Y-107190110D01*
X84866492Y-107087708D01*
X84938900Y-106962292D01*
X84950169Y-106920234D01*
X85649040Y-107619105D01*
X85649040Y-107619104D01*
X85709296Y-107536169D01*
X85709300Y-107536163D01*
X85816484Y-107325802D01*
X85889447Y-107101247D01*
X85926382Y-106868052D01*
X85926382Y-106631947D01*
X85889447Y-106398752D01*
X85816484Y-106174197D01*
X85709296Y-105963828D01*
X85649040Y-105880894D01*
X85649040Y-105880893D01*
X84950169Y-106579765D01*
X84938900Y-106537708D01*
X84866492Y-106412292D01*
X84764090Y-106309890D01*
X84638674Y-106237482D01*
X84596616Y-106226212D01*
X85295487Y-105527340D01*
X85295486Y-105527338D01*
X85212556Y-105467087D01*
X85002184Y-105359897D01*
X84777629Y-105286934D01*
X84777630Y-105286934D01*
X84544434Y-105250000D01*
X84308330Y-105250000D01*
X84075134Y-105286934D01*
X83850579Y-105359897D01*
X83640212Y-105467084D01*
X83557276Y-105527340D01*
X84256148Y-106226212D01*
X84214090Y-106237482D01*
X84088674Y-106309890D01*
X83986272Y-106412292D01*
X83913864Y-106537708D01*
X83902594Y-106579766D01*
X83203722Y-105880894D01*
X83143466Y-105963830D01*
X83036279Y-106174197D01*
X82963316Y-106398752D01*
X82926382Y-106631947D01*
X79276882Y-106631947D01*
X79276882Y-106624038D01*
X79237472Y-106375215D01*
X79159623Y-106135621D01*
X79159621Y-106135618D01*
X79159621Y-106135616D01*
X79072090Y-105963828D01*
X79045252Y-105911155D01*
X78972550Y-105811089D01*
X78897180Y-105707350D01*
X78897176Y-105707345D01*
X78852221Y-105662390D01*
X78719038Y-105529207D01*
X78717806Y-105528312D01*
X78713311Y-105523828D01*
X78698739Y-105497221D01*
X78682156Y-105471815D01*
X78681173Y-105465147D01*
X78679749Y-105462547D01*
X78680084Y-105457765D01*
X78676882Y-105436037D01*
X78676882Y-105077838D01*
X78664723Y-105016717D01*
X78645616Y-104920658D01*
X78638433Y-104884546D01*
X78581707Y-104747598D01*
X78563014Y-104702468D01*
X78465428Y-104556420D01*
X78453522Y-104538601D01*
X78453520Y-104538598D01*
X78453517Y-104538595D01*
X75784209Y-101869289D01*
X75784206Y-101869285D01*
X75784206Y-101869286D01*
X75777139Y-101862219D01*
X75777139Y-101862218D01*
X75637782Y-101722861D01*
X75637781Y-101722860D01*
X75637780Y-101722859D01*
X75473920Y-101613371D01*
X75473911Y-101613366D01*
X75401315Y-101583296D01*
X75345165Y-101560038D01*
X75291836Y-101537949D01*
X75291832Y-101537948D01*
X75291828Y-101537946D01*
X75195188Y-101518724D01*
X75098544Y-101499500D01*
X75098541Y-101499500D01*
X65465783Y-101499500D01*
X65398744Y-101479815D01*
X65378102Y-101463181D01*
X59713201Y-95798280D01*
X59679716Y-95736957D01*
X59676882Y-95710599D01*
X59676882Y-84010622D01*
X59696567Y-83943583D01*
X59713201Y-83922941D01*
X62088324Y-81547819D01*
X62149647Y-81514334D01*
X62176005Y-81511500D01*
X63490599Y-81511500D01*
X63557638Y-81531185D01*
X63603393Y-81583989D01*
X63613337Y-81653147D01*
X63584312Y-81716703D01*
X63578280Y-81723181D01*
X62937279Y-82364181D01*
X62875956Y-82397666D01*
X62849598Y-82400500D01*
X62024438Y-82400500D01*
X61907048Y-82415953D01*
X61907039Y-82415956D01*
X61760962Y-82476463D01*
X61635520Y-82572718D01*
X61539265Y-82698160D01*
X61478758Y-82844237D01*
X61478757Y-82844239D01*
X61463303Y-82961629D01*
X61463302Y-82961645D01*
X61463302Y-84840363D01*
X61478755Y-84957753D01*
X61478758Y-84957762D01*
X61526508Y-85073042D01*
X61539266Y-85103841D01*
X61635520Y-85229282D01*
X61760961Y-85325536D01*
X61907040Y-85386044D01*
X62024441Y-85401500D01*
X63903162Y-85401499D01*
X63903165Y-85401499D01*
X64020555Y-85386046D01*
X64020559Y-85386044D01*
X64020564Y-85386044D01*
X64166643Y-85325536D01*
X64292084Y-85229282D01*
X64388338Y-85103841D01*
X64388338Y-85103839D01*
X64392916Y-85097874D01*
X64449344Y-85056671D01*
X64519090Y-85052516D01*
X64564174Y-85073040D01*
X64717369Y-85184343D01*
X64792963Y-85222860D01*
X64927805Y-85291566D01*
X64927807Y-85291566D01*
X64927810Y-85291568D01*
X65048214Y-85330689D01*
X65152433Y-85364553D01*
X65385705Y-85401500D01*
X65385710Y-85401500D01*
X65621899Y-85401500D01*
X65855170Y-85364553D01*
X65862356Y-85362218D01*
X66079794Y-85291568D01*
X66290235Y-85184343D01*
X66481312Y-85045517D01*
X66648319Y-84878510D01*
X66787145Y-84687433D01*
X66894370Y-84476992D01*
X66967355Y-84252368D01*
X66968490Y-84247640D01*
X66970431Y-84248106D01*
X66996733Y-84192581D01*
X67056033Y-84155631D01*
X67125896Y-84156608D01*
X67184141Y-84195200D01*
X67212274Y-84259155D01*
X67213302Y-84275085D01*
X67213302Y-84840363D01*
X67228755Y-84957753D01*
X67228758Y-84957762D01*
X67276508Y-85073042D01*
X67289266Y-85103841D01*
X67385520Y-85229282D01*
X67510961Y-85325536D01*
X67657040Y-85386044D01*
X67774441Y-85401500D01*
X69653162Y-85401499D01*
X69653165Y-85401499D01*
X69770555Y-85386046D01*
X69770559Y-85386044D01*
X69770564Y-85386044D01*
X69916643Y-85325536D01*
X70042084Y-85229282D01*
X70138338Y-85103841D01*
X70138338Y-85103839D01*
X70142916Y-85097874D01*
X70199344Y-85056671D01*
X70269090Y-85052516D01*
X70314174Y-85073040D01*
X70467369Y-85184343D01*
X70542963Y-85222860D01*
X70677805Y-85291566D01*
X70677807Y-85291566D01*
X70677810Y-85291568D01*
X70798214Y-85330689D01*
X70902433Y-85364553D01*
X71135705Y-85401500D01*
X71135710Y-85401500D01*
X71371899Y-85401500D01*
X71605170Y-85364553D01*
X71612356Y-85362218D01*
X71829794Y-85291568D01*
X72040235Y-85184343D01*
X72231312Y-85045517D01*
X72398319Y-84878510D01*
X72537145Y-84687433D01*
X72644370Y-84476992D01*
X72701371Y-84301560D01*
X72740809Y-84243885D01*
X72805167Y-84216687D01*
X72874014Y-84228602D01*
X72925489Y-84275846D01*
X72943302Y-84339879D01*
X72943302Y-84840363D01*
X72958755Y-84957753D01*
X72958758Y-84957762D01*
X73006508Y-85073042D01*
X73019266Y-85103841D01*
X73115520Y-85229282D01*
X73240961Y-85325536D01*
X73387040Y-85386044D01*
X73504441Y-85401500D01*
X75383162Y-85401499D01*
X75383165Y-85401499D01*
X75500555Y-85386046D01*
X75500559Y-85386044D01*
X75500564Y-85386044D01*
X75646643Y-85325536D01*
X75772084Y-85229282D01*
X75868338Y-85103841D01*
X75868338Y-85103839D01*
X75872916Y-85097874D01*
X75929344Y-85056671D01*
X75999090Y-85052516D01*
X76044174Y-85073040D01*
X76197369Y-85184343D01*
X76272963Y-85222860D01*
X76407805Y-85291566D01*
X76407807Y-85291566D01*
X76407810Y-85291568D01*
X76528214Y-85330689D01*
X76632433Y-85364553D01*
X76865705Y-85401500D01*
X76865710Y-85401500D01*
X77101899Y-85401500D01*
X77335170Y-85364553D01*
X77342356Y-85362218D01*
X77559794Y-85291568D01*
X77770235Y-85184343D01*
X77961312Y-85045517D01*
X78128319Y-84878510D01*
X78267145Y-84687433D01*
X78374370Y-84476992D01*
X78431371Y-84301560D01*
X78470809Y-84243885D01*
X78535167Y-84216687D01*
X78604014Y-84228602D01*
X78655489Y-84275846D01*
X78673302Y-84339879D01*
X78673302Y-84840363D01*
X78688755Y-84957753D01*
X78688758Y-84957762D01*
X78736508Y-85073042D01*
X78749266Y-85103841D01*
X78845520Y-85229282D01*
X78845522Y-85229283D01*
X78845524Y-85229286D01*
X78851168Y-85234930D01*
X78884653Y-85296253D01*
X78879669Y-85365945D01*
X78851168Y-85410292D01*
X74771240Y-89490221D01*
X71038602Y-93222859D01*
X71038600Y-93222861D01*
X70999276Y-93262185D01*
X70899241Y-93362219D01*
X70789753Y-93526079D01*
X70789746Y-93526092D01*
X70714332Y-93708160D01*
X70714329Y-93708170D01*
X70675882Y-93901456D01*
X70675882Y-97436037D01*
X70656197Y-97503076D01*
X70636758Y-97525350D01*
X70637170Y-97525762D01*
X70455587Y-97707345D01*
X70455583Y-97707350D01*
X70307514Y-97911151D01*
X70193142Y-98135616D01*
X70115292Y-98375214D01*
X70075882Y-98624038D01*
X70075882Y-98875961D01*
X70115292Y-99124785D01*
X70193142Y-99364383D01*
X70307514Y-99588848D01*
X70455583Y-99792649D01*
X70455587Y-99792654D01*
X70633727Y-99970794D01*
X70633732Y-99970798D01*
X70752103Y-100056799D01*
X70837537Y-100118870D01*
X70980566Y-100191747D01*
X71061998Y-100233239D01*
X71062000Y-100233239D01*
X71062003Y-100233241D01*
X71301597Y-100311090D01*
X71550420Y-100350500D01*
X71550421Y-100350500D01*
X71802343Y-100350500D01*
X71802344Y-100350500D01*
X72051167Y-100311090D01*
X72290761Y-100233241D01*
X72515227Y-100118870D01*
X72719038Y-99970793D01*
X72897175Y-99792656D01*
X73045252Y-99588845D01*
X73065897Y-99548327D01*
X73113871Y-99497531D01*
X73181692Y-99480735D01*
X73247827Y-99503272D01*
X73286867Y-99548327D01*
X73307512Y-99588846D01*
X73455583Y-99792649D01*
X73455587Y-99792654D01*
X73633727Y-99970794D01*
X73633732Y-99970798D01*
X73752103Y-100056799D01*
X73837537Y-100118870D01*
X73980566Y-100191747D01*
X74061998Y-100233239D01*
X74062000Y-100233239D01*
X74062003Y-100233241D01*
X74301597Y-100311090D01*
X74550420Y-100350500D01*
X74550421Y-100350500D01*
X74802343Y-100350500D01*
X74802344Y-100350500D01*
X75051167Y-100311090D01*
X75290761Y-100233241D01*
X75515227Y-100118870D01*
X75719038Y-99970793D01*
X75897175Y-99792656D01*
X76045252Y-99588845D01*
X76065897Y-99548327D01*
X76113871Y-99497531D01*
X76181692Y-99480735D01*
X76247827Y-99503272D01*
X76286867Y-99548327D01*
X76307512Y-99588846D01*
X76455583Y-99792649D01*
X76455587Y-99792654D01*
X76633727Y-99970794D01*
X76633732Y-99970798D01*
X76752103Y-100056799D01*
X76837537Y-100118870D01*
X76980566Y-100191747D01*
X77061998Y-100233239D01*
X77062000Y-100233239D01*
X77062003Y-100233241D01*
X77301597Y-100311090D01*
X77550420Y-100350500D01*
X77550421Y-100350500D01*
X77802343Y-100350500D01*
X77802344Y-100350500D01*
X78051167Y-100311090D01*
X78290761Y-100233241D01*
X78515227Y-100118870D01*
X78719038Y-99970793D01*
X78897175Y-99792656D01*
X79000660Y-99650221D01*
X79036143Y-99601383D01*
X79091472Y-99558717D01*
X79161086Y-99552738D01*
X79222881Y-99585343D01*
X79236779Y-99601383D01*
X79375741Y-99792649D01*
X79375745Y-99792654D01*
X79553885Y-99970794D01*
X79553890Y-99970798D01*
X79672261Y-100056799D01*
X79757695Y-100118870D01*
X79900724Y-100191747D01*
X79982156Y-100233239D01*
X79982158Y-100233239D01*
X79982161Y-100233241D01*
X80221755Y-100311090D01*
X80470578Y-100350500D01*
X80470579Y-100350500D01*
X80722501Y-100350500D01*
X80722502Y-100350500D01*
X80971325Y-100311090D01*
X81210919Y-100233241D01*
X81435385Y-100118870D01*
X81639196Y-99970793D01*
X81808862Y-99801126D01*
X81870183Y-99767643D01*
X81939874Y-99772627D01*
X81984222Y-99801128D01*
X82153888Y-99970794D01*
X82153893Y-99970798D01*
X82272264Y-100056799D01*
X82357698Y-100118870D01*
X82500727Y-100191747D01*
X82582159Y-100233239D01*
X82582161Y-100233239D01*
X82582164Y-100233241D01*
X82821758Y-100311090D01*
X83070581Y-100350500D01*
X83070582Y-100350500D01*
X83322504Y-100350500D01*
X83322505Y-100350500D01*
X83571328Y-100311090D01*
X83810922Y-100233241D01*
X84035388Y-100118870D01*
X84239199Y-99970793D01*
X84417336Y-99792656D01*
X84520821Y-99650221D01*
X84565412Y-99588847D01*
X84575976Y-99568113D01*
X84623949Y-99517316D01*
X84691769Y-99500519D01*
X84757905Y-99523054D01*
X84796947Y-99568110D01*
X84807514Y-99588848D01*
X84955583Y-99792649D01*
X84955587Y-99792654D01*
X85133727Y-99970794D01*
X85133732Y-99970798D01*
X85252103Y-100056799D01*
X85337537Y-100118870D01*
X85480566Y-100191747D01*
X85561998Y-100233239D01*
X85562000Y-100233239D01*
X85562003Y-100233241D01*
X85801597Y-100311090D01*
X86050420Y-100350500D01*
X86050421Y-100350500D01*
X86302343Y-100350500D01*
X86302344Y-100350500D01*
X86551167Y-100311090D01*
X86790761Y-100233241D01*
X87015227Y-100118870D01*
X87219038Y-99970793D01*
X87397175Y-99792656D01*
X87545252Y-99588845D01*
X87659623Y-99364379D01*
X87737472Y-99124785D01*
X87776882Y-98875962D01*
X87776882Y-98624038D01*
X87737472Y-98375215D01*
X87659623Y-98135621D01*
X87659621Y-98135618D01*
X87659621Y-98135616D01*
X87600336Y-98019264D01*
X87545252Y-97911155D01*
X87416558Y-97734022D01*
X87397180Y-97707350D01*
X87397176Y-97707345D01*
X87215594Y-97525762D01*
X87216520Y-97524835D01*
X87201012Y-97500704D01*
X87182156Y-97471815D01*
X87182069Y-97471227D01*
X87181905Y-97470972D01*
X87176882Y-97436037D01*
X87176882Y-97363018D01*
X87196567Y-97295979D01*
X87213201Y-97275337D01*
X89951719Y-94536819D01*
X90013042Y-94503334D01*
X90039400Y-94500500D01*
X123960600Y-94500500D01*
X124027639Y-94520185D01*
X124048280Y-94536818D01*
X132229242Y-102717781D01*
X132229243Y-102717782D01*
X132325483Y-102814022D01*
X132368601Y-102857140D01*
X132532462Y-102966628D01*
X132532468Y-102966632D01*
X132639127Y-103010811D01*
X132714546Y-103042051D01*
X132907836Y-103080499D01*
X132907839Y-103080500D01*
X132907841Y-103080500D01*
X133494913Y-103080500D01*
X133561952Y-103100185D01*
X133582594Y-103116819D01*
X133614018Y-103148243D01*
X133614023Y-103148247D01*
X133733347Y-103234940D01*
X133792360Y-103277815D01*
X133920757Y-103343237D01*
X133988775Y-103377895D01*
X133988778Y-103377896D01*
X134091129Y-103411151D01*
X134198431Y-103446015D01*
X134416160Y-103480500D01*
X134416161Y-103480500D01*
X135436603Y-103480500D01*
X135436604Y-103480500D01*
X135654333Y-103446015D01*
X135863988Y-103377895D01*
X136060404Y-103277815D01*
X136238747Y-103148242D01*
X136394624Y-102992365D01*
X136524197Y-102814022D01*
X136624277Y-102617606D01*
X136692397Y-102407951D01*
X136726882Y-102190222D01*
X136726882Y-101969778D01*
X136692397Y-101752049D01*
X136658337Y-101647221D01*
X136624278Y-101542396D01*
X136624277Y-101542393D01*
X136589619Y-101474375D01*
X136524197Y-101345978D01*
X136443552Y-101234979D01*
X136394629Y-101167641D01*
X136394625Y-101167636D01*
X136238745Y-101011756D01*
X136238740Y-101011752D01*
X136099127Y-100910318D01*
X136056461Y-100854989D01*
X136050482Y-100785375D01*
X136083087Y-100723580D01*
X136099127Y-100709682D01*
X136238740Y-100608247D01*
X136238738Y-100608247D01*
X136238747Y-100608242D01*
X136394624Y-100452365D01*
X136524197Y-100274022D01*
X136624277Y-100077606D01*
X136692397Y-99867951D01*
X136726882Y-99650222D01*
X136726882Y-99429778D01*
X136692397Y-99212049D01*
X136624277Y-99002394D01*
X136624277Y-99002393D01*
X136559855Y-98875961D01*
X136524197Y-98805978D01*
X136476095Y-98739771D01*
X136394629Y-98627641D01*
X136394625Y-98627636D01*
X136238745Y-98471756D01*
X136238740Y-98471752D01*
X136099127Y-98370318D01*
X136056461Y-98314989D01*
X136050482Y-98245375D01*
X136083087Y-98183580D01*
X136099127Y-98169682D01*
X136238740Y-98068247D01*
X136238738Y-98068247D01*
X136238747Y-98068242D01*
X136394624Y-97912365D01*
X136524197Y-97734022D01*
X136624277Y-97537606D01*
X136692397Y-97327951D01*
X136726882Y-97110222D01*
X136726882Y-96889778D01*
X136692397Y-96672049D01*
X136626170Y-96468219D01*
X136624277Y-96462393D01*
X136589619Y-96394375D01*
X136524197Y-96265978D01*
X136418207Y-96120094D01*
X136394629Y-96087641D01*
X136394625Y-96087636D01*
X136238745Y-95931756D01*
X136238740Y-95931752D01*
X136099127Y-95830318D01*
X136056461Y-95774989D01*
X136050482Y-95705375D01*
X136083087Y-95643580D01*
X136099127Y-95629682D01*
X136238740Y-95528247D01*
X136238738Y-95528247D01*
X136238747Y-95528242D01*
X136394624Y-95372365D01*
X136524197Y-95194022D01*
X136624277Y-94997606D01*
X136692397Y-94787951D01*
X136726882Y-94570222D01*
X136726882Y-94349778D01*
X136692397Y-94132049D01*
X136624277Y-93922394D01*
X136624277Y-93922393D01*
X136589619Y-93854375D01*
X136524197Y-93725978D01*
X136462073Y-93640471D01*
X136394629Y-93547641D01*
X136394625Y-93547636D01*
X136238745Y-93391756D01*
X136238740Y-93391752D01*
X136099127Y-93290318D01*
X136056461Y-93234989D01*
X136050482Y-93165375D01*
X136083087Y-93103580D01*
X136099127Y-93089682D01*
X136238740Y-92988247D01*
X136238738Y-92988247D01*
X136238747Y-92988242D01*
X136394624Y-92832365D01*
X136524197Y-92654022D01*
X136624277Y-92457606D01*
X136692397Y-92247951D01*
X136726882Y-92030222D01*
X136726882Y-91809778D01*
X136692397Y-91592049D01*
X136654038Y-91473989D01*
X136624278Y-91382396D01*
X136624277Y-91382393D01*
X136589619Y-91314375D01*
X136524197Y-91185978D01*
X136507642Y-91163192D01*
X136394629Y-91007641D01*
X136394625Y-91007636D01*
X136238745Y-90851756D01*
X136238740Y-90851752D01*
X136099127Y-90750318D01*
X136056461Y-90694989D01*
X136050482Y-90625375D01*
X136083087Y-90563580D01*
X136099127Y-90549682D01*
X136238740Y-90448247D01*
X136238738Y-90448247D01*
X136238747Y-90448242D01*
X136394624Y-90292365D01*
X136524197Y-90114022D01*
X136624277Y-89917606D01*
X136692397Y-89707951D01*
X136726882Y-89490222D01*
X136726882Y-89269778D01*
X136692397Y-89052049D01*
X136624277Y-88842394D01*
X136624277Y-88842393D01*
X136589619Y-88774375D01*
X136524197Y-88645978D01*
X136507642Y-88623192D01*
X136394629Y-88467641D01*
X136394625Y-88467636D01*
X136238745Y-88311756D01*
X136238740Y-88311752D01*
X136060407Y-88182187D01*
X136060406Y-88182186D01*
X136060404Y-88182185D01*
X136023400Y-88163330D01*
X135972605Y-88115356D01*
X135955810Y-88047535D01*
X135978348Y-87981400D01*
X136006811Y-87952528D01*
X136173271Y-87831587D01*
X136173277Y-87831582D01*
X136317964Y-87686895D01*
X136317964Y-87686894D01*
X136438241Y-87521349D01*
X136531137Y-87339029D01*
X136594372Y-87144413D01*
X136602991Y-87090000D01*
X135242068Y-87090000D01*
X135246462Y-87085606D01*
X135299123Y-86994394D01*
X135326382Y-86892661D01*
X135326382Y-86787339D01*
X135299123Y-86685606D01*
X135246462Y-86594394D01*
X135242068Y-86590000D01*
X136602991Y-86590000D01*
X136594372Y-86535586D01*
X136531137Y-86340970D01*
X136438241Y-86158650D01*
X136317964Y-85993105D01*
X136317964Y-85993104D01*
X136173277Y-85848417D01*
X136006810Y-85727471D01*
X135964145Y-85672141D01*
X135958166Y-85602527D01*
X135990772Y-85540732D01*
X136023397Y-85516670D01*
X136060404Y-85497815D01*
X136238747Y-85368242D01*
X136394624Y-85212365D01*
X136524197Y-85034022D01*
X136624277Y-84837606D01*
X136634133Y-84807273D01*
X136652924Y-84749439D01*
X136692361Y-84691763D01*
X136756719Y-84664564D01*
X136825565Y-84676478D01*
X136858536Y-84700075D01*
X138622280Y-86463819D01*
X138655765Y-86525142D01*
X138650781Y-86594834D01*
X138622280Y-86639181D01*
X138038602Y-87222859D01*
X138038600Y-87222861D01*
X137968920Y-87292540D01*
X137899241Y-87362219D01*
X137789753Y-87526080D01*
X137789748Y-87526089D01*
X137769894Y-87574022D01*
X137752035Y-87617139D01*
X137714331Y-87708164D01*
X137705539Y-87752365D01*
X137703970Y-87760250D01*
X137703970Y-87760252D01*
X137675882Y-87901456D01*
X137675882Y-103454375D01*
X137656197Y-103521414D01*
X137639563Y-103542056D01*
X137038602Y-104143017D01*
X137038600Y-104143019D01*
X136974275Y-104207344D01*
X136899241Y-104282377D01*
X136789753Y-104446237D01*
X136789746Y-104446250D01*
X136714332Y-104628318D01*
X136714329Y-104628328D01*
X136675882Y-104821614D01*
X136675882Y-109147822D01*
X136656197Y-109214861D01*
X136639563Y-109235503D01*
X136570005Y-109305060D01*
X136570004Y-109305061D01*
X136435803Y-109489771D01*
X136332152Y-109693196D01*
X136261597Y-109910339D01*
X136225882Y-110135837D01*
X136225882Y-110364162D01*
X136261597Y-110589660D01*
X136332152Y-110806803D01*
X136435803Y-111010228D01*
X136570004Y-111194938D01*
X136646369Y-111271303D01*
X136679854Y-111332626D01*
X136674870Y-111402318D01*
X136632998Y-111458251D01*
X136621254Y-111465477D01*
X136621293Y-111465537D01*
X136615633Y-111469154D01*
X136471441Y-111585059D01*
X136355537Y-111729249D01*
X136353597Y-111732286D01*
X136351931Y-111733736D01*
X136351328Y-111734487D01*
X136351193Y-111734378D01*
X136300904Y-111778169D01*
X136249119Y-111789500D01*
X131932164Y-111789500D01*
X131865125Y-111769815D01*
X131844483Y-111753181D01*
X124562953Y-104471651D01*
X124529468Y-104410328D01*
X124527470Y-104380834D01*
X124526882Y-104380834D01*
X124526882Y-104124038D01*
X124511862Y-104029207D01*
X124487472Y-103875215D01*
X124409623Y-103635621D01*
X124409621Y-103635618D01*
X124409621Y-103635616D01*
X124359281Y-103536819D01*
X124295252Y-103411155D01*
X124167225Y-103234940D01*
X124147180Y-103207350D01*
X124147176Y-103207345D01*
X123969036Y-103029205D01*
X123969031Y-103029201D01*
X123765230Y-102881132D01*
X123765229Y-102881131D01*
X123765227Y-102881130D01*
X123695129Y-102845413D01*
X123540765Y-102766760D01*
X123301167Y-102688910D01*
X123052344Y-102649500D01*
X122800420Y-102649500D01*
X122676008Y-102669205D01*
X122551596Y-102688910D01*
X122311998Y-102766760D01*
X122087533Y-102881132D01*
X121883732Y-103029201D01*
X121883727Y-103029205D01*
X121705587Y-103207345D01*
X121705583Y-103207350D01*
X121557514Y-103411151D01*
X121443142Y-103635616D01*
X121400531Y-103766760D01*
X121365292Y-103875215D01*
X121325882Y-104124038D01*
X121325882Y-104375962D01*
X121337013Y-104446237D01*
X121365292Y-104624785D01*
X121443142Y-104864383D01*
X121476488Y-104929827D01*
X121551905Y-105077841D01*
X121557514Y-105088848D01*
X121705583Y-105292649D01*
X121705587Y-105292654D01*
X121883727Y-105470794D01*
X121883732Y-105470798D01*
X122061499Y-105599952D01*
X122087537Y-105618870D01*
X122230566Y-105691747D01*
X122311998Y-105733239D01*
X122312000Y-105733239D01*
X122312003Y-105733241D01*
X122551597Y-105811090D01*
X122800420Y-105850500D01*
X122800421Y-105850500D01*
X123057216Y-105850500D01*
X123057216Y-105852030D01*
X123118959Y-105864976D01*
X123148033Y-105886571D01*
X129299281Y-112037819D01*
X129332766Y-112099142D01*
X129327782Y-112168834D01*
X129285910Y-112224767D01*
X129220446Y-112249184D01*
X129211600Y-112249500D01*
X90240344Y-112249500D01*
X90173305Y-112229815D01*
X90151032Y-112210376D01*
X90150620Y-112210789D01*
X89965594Y-112025762D01*
X89966667Y-112024688D01*
X89932156Y-111971815D01*
X89926882Y-111936037D01*
X89926882Y-108063962D01*
X89946567Y-107996923D01*
X89966005Y-107974650D01*
X89965593Y-107974238D01*
X89969038Y-107970793D01*
X90147175Y-107792656D01*
X90295252Y-107588845D01*
X90409623Y-107364379D01*
X90487472Y-107124785D01*
X90526882Y-106875962D01*
X90526882Y-106624038D01*
X90487472Y-106375215D01*
X90409623Y-106135621D01*
X90409621Y-106135618D01*
X90409621Y-106135616D01*
X90322090Y-105963828D01*
X90295252Y-105911155D01*
X90222550Y-105811089D01*
X90147180Y-105707350D01*
X90147176Y-105707345D01*
X89969036Y-105529205D01*
X89969031Y-105529201D01*
X89765230Y-105381132D01*
X89765229Y-105381131D01*
X89765227Y-105381130D01*
X89695129Y-105345413D01*
X89540765Y-105266760D01*
X89301167Y-105188910D01*
X89052344Y-105149500D01*
X88800420Y-105149500D01*
X88676008Y-105169205D01*
X88551596Y-105188910D01*
X88311998Y-105266760D01*
X88087533Y-105381132D01*
X87883732Y-105529201D01*
X87883727Y-105529205D01*
X87705587Y-105707345D01*
X87705583Y-105707350D01*
X87557514Y-105911151D01*
X87443142Y-106135616D01*
X87365292Y-106375214D01*
X87339555Y-106537708D01*
X87325882Y-106624038D01*
X87325882Y-106875962D01*
X87359420Y-107087708D01*
X87365292Y-107124785D01*
X87443142Y-107364383D01*
X87557514Y-107588848D01*
X87705583Y-107792649D01*
X87705587Y-107792654D01*
X87887171Y-107974238D01*
X87886096Y-107975312D01*
X87920607Y-108028180D01*
X87925882Y-108063962D01*
X87925882Y-111936037D01*
X87906197Y-112003076D01*
X87886758Y-112025350D01*
X87887170Y-112025762D01*
X87705587Y-112207345D01*
X87705583Y-112207350D01*
X87557514Y-112411151D01*
X87443142Y-112635616D01*
X87365292Y-112875214D01*
X87339555Y-113037708D01*
X87325882Y-113124038D01*
X87325882Y-113375962D01*
X87341038Y-113471651D01*
X87365292Y-113624785D01*
X87443142Y-113864383D01*
X87557514Y-114088848D01*
X87705583Y-114292649D01*
X87705587Y-114292654D01*
X87883727Y-114470794D01*
X87883732Y-114470798D01*
X88061499Y-114599952D01*
X88087537Y-114618870D01*
X88230566Y-114691747D01*
X88311998Y-114733239D01*
X88312000Y-114733239D01*
X88312003Y-114733241D01*
X88551597Y-114811090D01*
X88800420Y-114850500D01*
X88800421Y-114850500D01*
X89052343Y-114850500D01*
X89052344Y-114850500D01*
X89301167Y-114811090D01*
X89540761Y-114733241D01*
X89765227Y-114618870D01*
X89969038Y-114470793D01*
X90147175Y-114292656D01*
X90147175Y-114292655D01*
X90150620Y-114289211D01*
X90151694Y-114290285D01*
X90204562Y-114255775D01*
X90240344Y-114250500D01*
X127635700Y-114250500D01*
X127702739Y-114270185D01*
X127748494Y-114322989D01*
X127758438Y-114392147D01*
X127729413Y-114455703D01*
X127708585Y-114474818D01*
X127633732Y-114529201D01*
X127633727Y-114529205D01*
X127455587Y-114707345D01*
X127455583Y-114707350D01*
X127307514Y-114911151D01*
X127193142Y-115135616D01*
X127115292Y-115375214D01*
X127075882Y-115624038D01*
X127075882Y-115875961D01*
X127115292Y-116124785D01*
X127193142Y-116364383D01*
X127307514Y-116588848D01*
X127455583Y-116792649D01*
X127455587Y-116792654D01*
X127633727Y-116970794D01*
X127633732Y-116970798D01*
X127811499Y-117099952D01*
X127837537Y-117118870D01*
X127980566Y-117191747D01*
X128061998Y-117233239D01*
X128062000Y-117233239D01*
X128062003Y-117233241D01*
X128301597Y-117311090D01*
X128550420Y-117350500D01*
X128550421Y-117350500D01*
X128802343Y-117350500D01*
X128802344Y-117350500D01*
X129051167Y-117311090D01*
X129290761Y-117233241D01*
X129515227Y-117118870D01*
X129719038Y-116970793D01*
X129897175Y-116792656D01*
X129897175Y-116792655D01*
X129900620Y-116789211D01*
X129901694Y-116790285D01*
X129954562Y-116755775D01*
X129990344Y-116750500D01*
X138557005Y-116750500D01*
X138588549Y-116744225D01*
X138653651Y-116731275D01*
X138750299Y-116712051D01*
X138803628Y-116689961D01*
X138932377Y-116636632D01*
X139096245Y-116527139D01*
X139235602Y-116387782D01*
X139235603Y-116387779D01*
X139242669Y-116380714D01*
X139242672Y-116380710D01*
X140854160Y-114769222D01*
X140854164Y-114769220D01*
X140993521Y-114629863D01*
X141103014Y-114465995D01*
X141178433Y-114283916D01*
X141187630Y-114237683D01*
X141194174Y-114204784D01*
X141207730Y-114136632D01*
X141207730Y-114136630D01*
X141207731Y-114136628D01*
X141216882Y-114090622D01*
X141216882Y-113892178D01*
X141224152Y-113867419D01*
X141227559Y-113841841D01*
X141234728Y-113831399D01*
X141236567Y-113825139D01*
X141246330Y-113811953D01*
X141249605Y-113808092D01*
X141322761Y-113734937D01*
X141388813Y-113644023D01*
X141391830Y-113640469D01*
X141417280Y-113623737D01*
X141441394Y-113605143D01*
X141446189Y-113604731D01*
X141450213Y-113602086D01*
X141480672Y-113601769D01*
X141511008Y-113599164D01*
X141515264Y-113601410D01*
X141520079Y-113601360D01*
X141545868Y-113617558D01*
X141572803Y-113631770D01*
X141577946Y-113637705D01*
X141579246Y-113638522D01*
X141579945Y-113640013D01*
X141586697Y-113647804D01*
X141650003Y-113734937D01*
X141811445Y-113896379D01*
X141996154Y-114030579D01*
X142092266Y-114079550D01*
X142199578Y-114134229D01*
X142199580Y-114134229D01*
X142199583Y-114134231D01*
X142315974Y-114172049D01*
X142416721Y-114204784D01*
X142642220Y-114240500D01*
X142642225Y-114240500D01*
X142870544Y-114240500D01*
X143096042Y-114204784D01*
X143132198Y-114193036D01*
X143313181Y-114134231D01*
X143516610Y-114030579D01*
X143701319Y-113896379D01*
X143770879Y-113826819D01*
X143832202Y-113793334D01*
X143858560Y-113790500D01*
X144984924Y-113790500D01*
X145000715Y-113787358D01*
X145081570Y-113771275D01*
X145178218Y-113752051D01*
X145246146Y-113723914D01*
X145360296Y-113676632D01*
X145524164Y-113567139D01*
X145663521Y-113427782D01*
X145663522Y-113427779D01*
X145670588Y-113420714D01*
X145670591Y-113420710D01*
X147814160Y-111277141D01*
X147814164Y-111277139D01*
X147953521Y-111137782D01*
X148063014Y-110973914D01*
X148063114Y-110973674D01*
X148138432Y-110791837D01*
X148138435Y-110791828D01*
X148151944Y-110723915D01*
X148166626Y-110650099D01*
X148176882Y-110598540D01*
X148176882Y-110401460D01*
X148176882Y-106611459D01*
X148157657Y-106514812D01*
X148138433Y-106418164D01*
X148092951Y-106308361D01*
X148063014Y-106236086D01*
X148063013Y-106236084D01*
X148063012Y-106236082D01*
X147953521Y-106072218D01*
X147953518Y-106072214D01*
X147811068Y-105929764D01*
X147811037Y-105929735D01*
X144383201Y-102501899D01*
X144349716Y-102440576D01*
X144346882Y-102414218D01*
X144346882Y-101456048D01*
X144346882Y-101456046D01*
X144344065Y-101414505D01*
X144299419Y-101234979D01*
X144217224Y-101069247D01*
X144167327Y-101007173D01*
X144101322Y-100925059D01*
X143957135Y-100809158D01*
X143911712Y-100786630D01*
X143890573Y-100767094D01*
X143867540Y-100749851D01*
X143865238Y-100743679D01*
X143860400Y-100739208D01*
X143853180Y-100711350D01*
X143843124Y-100684387D01*
X143844524Y-100677949D01*
X143842872Y-100671573D01*
X143851857Y-100644238D01*
X143857976Y-100616114D01*
X143863552Y-100608665D01*
X143864692Y-100605198D01*
X143879123Y-100587865D01*
X143930171Y-100536818D01*
X143991494Y-100503334D01*
X144017851Y-100500500D01*
X148824204Y-100500500D01*
X148891243Y-100520185D01*
X148911884Y-100536818D01*
X148981445Y-100606379D01*
X149166154Y-100740579D01*
X149254071Y-100785375D01*
X149369578Y-100844229D01*
X149369580Y-100844229D01*
X149369583Y-100844231D01*
X149402693Y-100854989D01*
X149586721Y-100914784D01*
X149812220Y-100950500D01*
X149812225Y-100950500D01*
X150040544Y-100950500D01*
X150266042Y-100914784D01*
X150311074Y-100900152D01*
X150483181Y-100844231D01*
X150686610Y-100740579D01*
X150871319Y-100606379D01*
X151032761Y-100444937D01*
X151166961Y-100260228D01*
X151270613Y-100056799D01*
X151341166Y-99839660D01*
X151351783Y-99772627D01*
X151376882Y-99614162D01*
X151376882Y-99385837D01*
X151341166Y-99160339D01*
X151270611Y-98943196D01*
X151215932Y-98835884D01*
X151166961Y-98739772D01*
X151032761Y-98555063D01*
X150871319Y-98393621D01*
X150784189Y-98330317D01*
X150741525Y-98274988D01*
X150735546Y-98205374D01*
X150768152Y-98143579D01*
X150784189Y-98129683D01*
X150871319Y-98066379D01*
X151032761Y-97904937D01*
X151166961Y-97720228D01*
X151270613Y-97516799D01*
X151341166Y-97299660D01*
X151345018Y-97275337D01*
X151376882Y-97074162D01*
X151376882Y-96845837D01*
X151341166Y-96620339D01*
X151277152Y-96423326D01*
X151270613Y-96403201D01*
X151270611Y-96403198D01*
X151270611Y-96403196D01*
X151205252Y-96274922D01*
X151166961Y-96199772D01*
X151032761Y-96015063D01*
X150945565Y-95927867D01*
X150912080Y-95866544D01*
X150917064Y-95796852D01*
X150958936Y-95740919D01*
X150989915Y-95724003D01*
X151018470Y-95713353D01*
X151018475Y-95713350D01*
X151133569Y-95627190D01*
X151133572Y-95627187D01*
X151219732Y-95512093D01*
X151219736Y-95512086D01*
X151269978Y-95377379D01*
X151269980Y-95377372D01*
X151276381Y-95317844D01*
X151276382Y-95317827D01*
X151276382Y-94670000D01*
X150359394Y-94670000D01*
X150392307Y-94612993D01*
X150426382Y-94485826D01*
X150426382Y-94354174D01*
X150392307Y-94227007D01*
X150359394Y-94170000D01*
X151276382Y-94170000D01*
X151276382Y-93522172D01*
X151276381Y-93522155D01*
X151269980Y-93462627D01*
X151269978Y-93462620D01*
X151219736Y-93327913D01*
X151219732Y-93327906D01*
X151133572Y-93212812D01*
X151133569Y-93212809D01*
X151018475Y-93126649D01*
X151018468Y-93126645D01*
X150883761Y-93076403D01*
X150883754Y-93076401D01*
X150824226Y-93070000D01*
X150176382Y-93070000D01*
X150176382Y-93986988D01*
X150119375Y-93954075D01*
X149992208Y-93920000D01*
X149860556Y-93920000D01*
X149733389Y-93954075D01*
X149676382Y-93986988D01*
X149676382Y-93070000D01*
X149028537Y-93070000D01*
X148969009Y-93076401D01*
X148969002Y-93076403D01*
X148834295Y-93126645D01*
X148834288Y-93126649D01*
X148719194Y-93212809D01*
X148719191Y-93212812D01*
X148633031Y-93327906D01*
X148633027Y-93327913D01*
X148582785Y-93462620D01*
X148582783Y-93462627D01*
X148576382Y-93522155D01*
X148576382Y-94170000D01*
X149493370Y-94170000D01*
X149460457Y-94227007D01*
X149426382Y-94354174D01*
X149426382Y-94485826D01*
X149460457Y-94612993D01*
X149493370Y-94670000D01*
X148576382Y-94670000D01*
X148576382Y-95317844D01*
X148582783Y-95377372D01*
X148582785Y-95377379D01*
X148633027Y-95512086D01*
X148633031Y-95512093D01*
X148719191Y-95627187D01*
X148719194Y-95627190D01*
X148834288Y-95713350D01*
X148834295Y-95713354D01*
X148850285Y-95719318D01*
X148906219Y-95761189D01*
X148930636Y-95826653D01*
X148915785Y-95894926D01*
X148866380Y-95944332D01*
X148806952Y-95959500D01*
X147022120Y-95959500D01*
X146955081Y-95939815D01*
X146909326Y-95887011D01*
X146899382Y-95817853D01*
X146928407Y-95754297D01*
X146949234Y-95735182D01*
X146960407Y-95727063D01*
X146969038Y-95720793D01*
X147147175Y-95542656D01*
X147295252Y-95338845D01*
X147409623Y-95114379D01*
X147487472Y-94874785D01*
X147526882Y-94625962D01*
X147526882Y-94374038D01*
X147487472Y-94125215D01*
X147409623Y-93885621D01*
X147409621Y-93885618D01*
X147409621Y-93885616D01*
X147368129Y-93804184D01*
X147295252Y-93661155D01*
X147273560Y-93631298D01*
X147244817Y-93591736D01*
X147147180Y-93457350D01*
X147147176Y-93457345D01*
X146969036Y-93279205D01*
X146969031Y-93279201D01*
X146765230Y-93131132D01*
X146765229Y-93131131D01*
X146765227Y-93131130D01*
X146683881Y-93089682D01*
X146540765Y-93016760D01*
X146301167Y-92938909D01*
X146254175Y-92931467D01*
X146191040Y-92901538D01*
X146154109Y-92842226D01*
X146155107Y-92772364D01*
X146187851Y-92719396D01*
X146195674Y-92711910D01*
X146217782Y-92697139D01*
X146357139Y-92557782D01*
X146357141Y-92557778D01*
X152964201Y-85950718D01*
X153025524Y-85917233D01*
X153095216Y-85922217D01*
X153151149Y-85964089D01*
X153175566Y-86029553D01*
X153175882Y-86038399D01*
X153175882Y-120375500D01*
X153156197Y-120442539D01*
X153103393Y-120488294D01*
X153051882Y-120499500D01*
X54300882Y-120499500D01*
X54233843Y-120479815D01*
X54188088Y-120427011D01*
X54176882Y-120375500D01*
X54176882Y-113131947D01*
X60426382Y-113131947D01*
X60426382Y-113368052D01*
X60463316Y-113601247D01*
X60536279Y-113825802D01*
X60643469Y-114036174D01*
X60703720Y-114119104D01*
X60703722Y-114119105D01*
X61402594Y-113420233D01*
X61413864Y-113462292D01*
X61486272Y-113587708D01*
X61588674Y-113690110D01*
X61714090Y-113762518D01*
X61756147Y-113773787D01*
X61057275Y-114472658D01*
X61140210Y-114532914D01*
X61350579Y-114640102D01*
X61575134Y-114713065D01*
X61575133Y-114713065D01*
X61808330Y-114750000D01*
X62044434Y-114750000D01*
X62277629Y-114713065D01*
X62502184Y-114640102D01*
X62712545Y-114532918D01*
X62712551Y-114532914D01*
X62795486Y-114472658D01*
X62795487Y-114472658D01*
X62096615Y-113773787D01*
X62138674Y-113762518D01*
X62264090Y-113690110D01*
X62366492Y-113587708D01*
X62438900Y-113462292D01*
X62450169Y-113420234D01*
X63149040Y-114119105D01*
X63149040Y-114119104D01*
X63209296Y-114036169D01*
X63209300Y-114036163D01*
X63316484Y-113825802D01*
X63389447Y-113601247D01*
X63426382Y-113368052D01*
X63426382Y-113131947D01*
X63389447Y-112898752D01*
X63316484Y-112674197D01*
X63209296Y-112463828D01*
X63149040Y-112380894D01*
X63149040Y-112380893D01*
X62450169Y-113079765D01*
X62438900Y-113037708D01*
X62366492Y-112912292D01*
X62264090Y-112809890D01*
X62138674Y-112737482D01*
X62096616Y-112726212D01*
X62795487Y-112027340D01*
X62795486Y-112027338D01*
X62712556Y-111967087D01*
X62502184Y-111859897D01*
X62277629Y-111786934D01*
X62277630Y-111786934D01*
X62044434Y-111750000D01*
X61808330Y-111750000D01*
X61575134Y-111786934D01*
X61350579Y-111859897D01*
X61140212Y-111967084D01*
X61057276Y-112027340D01*
X61756148Y-112726212D01*
X61714090Y-112737482D01*
X61588674Y-112809890D01*
X61486272Y-112912292D01*
X61413864Y-113037708D01*
X61402594Y-113079766D01*
X60703722Y-112380894D01*
X60643466Y-112463830D01*
X60536279Y-112674197D01*
X60463316Y-112898752D01*
X60426382Y-113131947D01*
X54176882Y-113131947D01*
X54176882Y-106631947D01*
X60426382Y-106631947D01*
X60426382Y-106868052D01*
X60463316Y-107101247D01*
X60536279Y-107325802D01*
X60643469Y-107536174D01*
X60703720Y-107619104D01*
X60703722Y-107619105D01*
X61402594Y-106920233D01*
X61413864Y-106962292D01*
X61486272Y-107087708D01*
X61588674Y-107190110D01*
X61714090Y-107262518D01*
X61756147Y-107273787D01*
X61057275Y-107972658D01*
X61140210Y-108032914D01*
X61350579Y-108140102D01*
X61575134Y-108213065D01*
X61575133Y-108213065D01*
X61808330Y-108250000D01*
X62044434Y-108250000D01*
X62277629Y-108213065D01*
X62502184Y-108140102D01*
X62712545Y-108032918D01*
X62712551Y-108032914D01*
X62795486Y-107972658D01*
X62795487Y-107972658D01*
X62096615Y-107273787D01*
X62138674Y-107262518D01*
X62264090Y-107190110D01*
X62366492Y-107087708D01*
X62438900Y-106962292D01*
X62450169Y-106920234D01*
X63149040Y-107619105D01*
X63149040Y-107619104D01*
X63209296Y-107536169D01*
X63209300Y-107536163D01*
X63316484Y-107325802D01*
X63389447Y-107101247D01*
X63426382Y-106868052D01*
X63426382Y-106631949D01*
X63426381Y-106631946D01*
X63425129Y-106624038D01*
X64825882Y-106624038D01*
X64825882Y-106875962D01*
X64859420Y-107087708D01*
X64865292Y-107124785D01*
X64943142Y-107364383D01*
X65057514Y-107588848D01*
X65205583Y-107792649D01*
X65205587Y-107792654D01*
X65387171Y-107974238D01*
X65386096Y-107975312D01*
X65420607Y-108028180D01*
X65425882Y-108063962D01*
X65425882Y-111936037D01*
X65406197Y-112003076D01*
X65386758Y-112025350D01*
X65387170Y-112025762D01*
X65205587Y-112207345D01*
X65205583Y-112207350D01*
X65057514Y-112411151D01*
X64943142Y-112635616D01*
X64865292Y-112875214D01*
X64839555Y-113037708D01*
X64825882Y-113124038D01*
X64825882Y-113375962D01*
X64841038Y-113471651D01*
X64865292Y-113624785D01*
X64943142Y-113864383D01*
X65057514Y-114088848D01*
X65205583Y-114292649D01*
X65205587Y-114292654D01*
X65383727Y-114470794D01*
X65383732Y-114470798D01*
X65561499Y-114599952D01*
X65587537Y-114618870D01*
X65730566Y-114691747D01*
X65811998Y-114733239D01*
X65812000Y-114733239D01*
X65812003Y-114733241D01*
X66051597Y-114811090D01*
X66300420Y-114850500D01*
X66300421Y-114850500D01*
X66557216Y-114850500D01*
X66557216Y-114852030D01*
X66618959Y-114864976D01*
X66648033Y-114886571D01*
X70146117Y-118384655D01*
X70146146Y-118384686D01*
X70288596Y-118527136D01*
X70288600Y-118527139D01*
X70452461Y-118636628D01*
X70452474Y-118636635D01*
X70581215Y-118689961D01*
X70624126Y-118707735D01*
X70634546Y-118712051D01*
X70731194Y-118731275D01*
X70779517Y-118740887D01*
X70827840Y-118750500D01*
X70827841Y-118750500D01*
X70827842Y-118750500D01*
X71024922Y-118750500D01*
X117612420Y-118750500D01*
X117679459Y-118770185D01*
X117701731Y-118789623D01*
X117702144Y-118789211D01*
X117883727Y-118970794D01*
X117883732Y-118970798D01*
X118061499Y-119099952D01*
X118087537Y-119118870D01*
X118230566Y-119191747D01*
X118311998Y-119233239D01*
X118312000Y-119233239D01*
X118312003Y-119233241D01*
X118551597Y-119311090D01*
X118800420Y-119350500D01*
X118800421Y-119350500D01*
X119052343Y-119350500D01*
X119052344Y-119350500D01*
X119301167Y-119311090D01*
X119540761Y-119233241D01*
X119765227Y-119118870D01*
X119969038Y-118970793D01*
X120147175Y-118792656D01*
X120295252Y-118588845D01*
X120409623Y-118364379D01*
X120487472Y-118124785D01*
X120526882Y-117875962D01*
X120526882Y-117624038D01*
X120487472Y-117375215D01*
X120409623Y-117135621D01*
X120409621Y-117135618D01*
X120409621Y-117135616D01*
X120368129Y-117054184D01*
X120295252Y-116911155D01*
X120209158Y-116792656D01*
X120147180Y-116707350D01*
X120147176Y-116707345D01*
X119969036Y-116529205D01*
X119969031Y-116529201D01*
X119765230Y-116381132D01*
X119765229Y-116381131D01*
X119765227Y-116381130D01*
X119695129Y-116345413D01*
X119540765Y-116266760D01*
X119301167Y-116188910D01*
X119052344Y-116149500D01*
X118800420Y-116149500D01*
X118676008Y-116169205D01*
X118551596Y-116188910D01*
X118311998Y-116266760D01*
X118087533Y-116381132D01*
X117883732Y-116529201D01*
X117883727Y-116529205D01*
X117702144Y-116710789D01*
X117701069Y-116709714D01*
X117648202Y-116744225D01*
X117612420Y-116749500D01*
X71392164Y-116749500D01*
X71325125Y-116729815D01*
X71304483Y-116713181D01*
X68062953Y-113471651D01*
X68029468Y-113410328D01*
X68027470Y-113380834D01*
X68026882Y-113380834D01*
X68026882Y-113131947D01*
X71676382Y-113131947D01*
X71676382Y-113368052D01*
X71713316Y-113601247D01*
X71786279Y-113825802D01*
X71893469Y-114036174D01*
X71953720Y-114119104D01*
X71953722Y-114119105D01*
X72652594Y-113420233D01*
X72663864Y-113462292D01*
X72736272Y-113587708D01*
X72838674Y-113690110D01*
X72964090Y-113762518D01*
X73006147Y-113773787D01*
X72307275Y-114472658D01*
X72390210Y-114532914D01*
X72600579Y-114640102D01*
X72825134Y-114713065D01*
X72825133Y-114713065D01*
X73058330Y-114750000D01*
X73294434Y-114750000D01*
X73527629Y-114713065D01*
X73752184Y-114640102D01*
X73962545Y-114532918D01*
X73962551Y-114532914D01*
X74045486Y-114472658D01*
X74045487Y-114472658D01*
X73346615Y-113773787D01*
X73388674Y-113762518D01*
X73514090Y-113690110D01*
X73616492Y-113587708D01*
X73688900Y-113462292D01*
X73700169Y-113420233D01*
X74399040Y-114119105D01*
X74399040Y-114119104D01*
X74459296Y-114036169D01*
X74459300Y-114036163D01*
X74566484Y-113825802D01*
X74639447Y-113601247D01*
X74676382Y-113368052D01*
X74676382Y-113131947D01*
X74639447Y-112898752D01*
X74566484Y-112674197D01*
X74459296Y-112463828D01*
X74399040Y-112380894D01*
X74399040Y-112380893D01*
X73700169Y-113079765D01*
X73688900Y-113037708D01*
X73616492Y-112912292D01*
X73514090Y-112809890D01*
X73388674Y-112737482D01*
X73346616Y-112726212D01*
X74045487Y-112027340D01*
X74045486Y-112027338D01*
X73962556Y-111967087D01*
X73752184Y-111859897D01*
X73527629Y-111786934D01*
X73527630Y-111786934D01*
X73294434Y-111750000D01*
X73058330Y-111750000D01*
X72825134Y-111786934D01*
X72600579Y-111859897D01*
X72390212Y-111967084D01*
X72307276Y-112027340D01*
X73006148Y-112726212D01*
X72964090Y-112737482D01*
X72838674Y-112809890D01*
X72736272Y-112912292D01*
X72663864Y-113037708D01*
X72652594Y-113079766D01*
X71953722Y-112380894D01*
X71893466Y-112463830D01*
X71786279Y-112674197D01*
X71713316Y-112898752D01*
X71676382Y-113131947D01*
X68026882Y-113131947D01*
X68026882Y-113124038D01*
X67987472Y-112875215D01*
X67909623Y-112635621D01*
X67909621Y-112635618D01*
X67909621Y-112635616D01*
X67822090Y-112463828D01*
X67795252Y-112411155D01*
X67773265Y-112380893D01*
X67647180Y-112207350D01*
X67647176Y-112207345D01*
X67602221Y-112162390D01*
X67469038Y-112029207D01*
X67467806Y-112028312D01*
X67463311Y-112023828D01*
X67448739Y-111997221D01*
X67432156Y-111971815D01*
X67431173Y-111965147D01*
X67429749Y-111962547D01*
X67430084Y-111957765D01*
X67426882Y-111936037D01*
X67426882Y-108063962D01*
X67446567Y-107996923D01*
X67466005Y-107974650D01*
X67465593Y-107974238D01*
X67602113Y-107837718D01*
X67647175Y-107792656D01*
X67795252Y-107588845D01*
X67909623Y-107364379D01*
X67987472Y-107124785D01*
X68026882Y-106875962D01*
X68026882Y-106631947D01*
X71676382Y-106631947D01*
X71676382Y-106868052D01*
X71713316Y-107101247D01*
X71786279Y-107325802D01*
X71893469Y-107536174D01*
X71953720Y-107619104D01*
X71953722Y-107619105D01*
X72652594Y-106920233D01*
X72663864Y-106962292D01*
X72736272Y-107087708D01*
X72838674Y-107190110D01*
X72964090Y-107262518D01*
X73006147Y-107273787D01*
X72307275Y-107972658D01*
X72390210Y-108032914D01*
X72600579Y-108140102D01*
X72825134Y-108213065D01*
X72825133Y-108213065D01*
X73058330Y-108250000D01*
X73294434Y-108250000D01*
X73527629Y-108213065D01*
X73752184Y-108140102D01*
X73962545Y-108032918D01*
X73962551Y-108032914D01*
X74045486Y-107972658D01*
X74045487Y-107972658D01*
X73346615Y-107273787D01*
X73388674Y-107262518D01*
X73514090Y-107190110D01*
X73616492Y-107087708D01*
X73688900Y-106962292D01*
X73700169Y-106920233D01*
X74399040Y-107619105D01*
X74399040Y-107619104D01*
X74459296Y-107536169D01*
X74459300Y-107536163D01*
X74566484Y-107325802D01*
X74639447Y-107101247D01*
X74676382Y-106868052D01*
X74676382Y-106631947D01*
X74639447Y-106398752D01*
X74566484Y-106174197D01*
X74459296Y-105963828D01*
X74399040Y-105880894D01*
X74399040Y-105880893D01*
X73700169Y-106579765D01*
X73688900Y-106537708D01*
X73616492Y-106412292D01*
X73514090Y-106309890D01*
X73388674Y-106237482D01*
X73346616Y-106226212D01*
X74045487Y-105527340D01*
X74045486Y-105527338D01*
X73962556Y-105467087D01*
X73752184Y-105359897D01*
X73527629Y-105286934D01*
X73527630Y-105286934D01*
X73294434Y-105250000D01*
X73058330Y-105250000D01*
X72825134Y-105286934D01*
X72600579Y-105359897D01*
X72390212Y-105467084D01*
X72307276Y-105527340D01*
X73006148Y-106226212D01*
X72964090Y-106237482D01*
X72838674Y-106309890D01*
X72736272Y-106412292D01*
X72663864Y-106537708D01*
X72652594Y-106579766D01*
X71953722Y-105880894D01*
X71893466Y-105963830D01*
X71786279Y-106174197D01*
X71713316Y-106398752D01*
X71676382Y-106631947D01*
X68026882Y-106631947D01*
X68026882Y-106624038D01*
X67987472Y-106375215D01*
X67909623Y-106135621D01*
X67909621Y-106135618D01*
X67909621Y-106135616D01*
X67822090Y-105963828D01*
X67795252Y-105911155D01*
X67722550Y-105811089D01*
X67647180Y-105707350D01*
X67647176Y-105707345D01*
X67469036Y-105529205D01*
X67469031Y-105529201D01*
X67265230Y-105381132D01*
X67265229Y-105381131D01*
X67265227Y-105381130D01*
X67195129Y-105345413D01*
X67040765Y-105266760D01*
X66801167Y-105188910D01*
X66552344Y-105149500D01*
X66300420Y-105149500D01*
X66176008Y-105169205D01*
X66051596Y-105188910D01*
X65811998Y-105266760D01*
X65587533Y-105381132D01*
X65383732Y-105529201D01*
X65383727Y-105529205D01*
X65205587Y-105707345D01*
X65205583Y-105707350D01*
X65057514Y-105911151D01*
X64943142Y-106135616D01*
X64865292Y-106375214D01*
X64839555Y-106537708D01*
X64825882Y-106624038D01*
X63425129Y-106624038D01*
X63389447Y-106398752D01*
X63316484Y-106174197D01*
X63209296Y-105963828D01*
X63149040Y-105880894D01*
X63149040Y-105880893D01*
X62450169Y-106579765D01*
X62438900Y-106537708D01*
X62366492Y-106412292D01*
X62264090Y-106309890D01*
X62138674Y-106237482D01*
X62096616Y-106226212D01*
X62795487Y-105527340D01*
X62795486Y-105527338D01*
X62712556Y-105467087D01*
X62502184Y-105359897D01*
X62277629Y-105286934D01*
X62277630Y-105286934D01*
X62044434Y-105250000D01*
X61808330Y-105250000D01*
X61575134Y-105286934D01*
X61350579Y-105359897D01*
X61140212Y-105467084D01*
X61057276Y-105527340D01*
X61756148Y-106226212D01*
X61714090Y-106237482D01*
X61588674Y-106309890D01*
X61486272Y-106412292D01*
X61413864Y-106537708D01*
X61402594Y-106579766D01*
X60703722Y-105880894D01*
X60643466Y-105963830D01*
X60536279Y-106174197D01*
X60463316Y-106398752D01*
X60426382Y-106631947D01*
X54176882Y-106631947D01*
X54176882Y-53506093D01*
X114575882Y-53506093D01*
X114575882Y-53758017D01*
X114609262Y-53968766D01*
X114615292Y-54006840D01*
X114693142Y-54246438D01*
X114807514Y-54470903D01*
X114955583Y-54674704D01*
X114955587Y-54674709D01*
X115133727Y-54852849D01*
X115133732Y-54852853D01*
X115303732Y-54976364D01*
X115337537Y-55000925D01*
X115480566Y-55073802D01*
X115561998Y-55115294D01*
X115562000Y-55115294D01*
X115562003Y-55115296D01*
X115801597Y-55193145D01*
X116050420Y-55232555D01*
X116050421Y-55232555D01*
X116302343Y-55232555D01*
X116302344Y-55232555D01*
X116551167Y-55193145D01*
X116790761Y-55115296D01*
X117015227Y-55000925D01*
X117219038Y-54852848D01*
X117285068Y-54786818D01*
X117346391Y-54753333D01*
X117372749Y-54750499D01*
X121701883Y-54750499D01*
X121768922Y-54770184D01*
X121814677Y-54822988D01*
X121825883Y-54874499D01*
X121825883Y-55289362D01*
X121841335Y-55406752D01*
X121841338Y-55406761D01*
X121901846Y-55552840D01*
X121998100Y-55678281D01*
X122123541Y-55774535D01*
X122269620Y-55835043D01*
X122387021Y-55850499D01*
X125465742Y-55850498D01*
X125465745Y-55850498D01*
X125583135Y-55835045D01*
X125583139Y-55835043D01*
X125583144Y-55835043D01*
X125729223Y-55774535D01*
X125854664Y-55678281D01*
X125950918Y-55552840D01*
X126011426Y-55406761D01*
X126026882Y-55289360D01*
X126026881Y-53618904D01*
X142416382Y-53618904D01*
X142416382Y-53881093D01*
X142450602Y-54141008D01*
X142450604Y-54141019D01*
X142518457Y-54394254D01*
X142618786Y-54636470D01*
X142618791Y-54636481D01*
X142749870Y-54863515D01*
X142749876Y-54863523D01*
X142836462Y-54976364D01*
X143738803Y-54074023D01*
X143751741Y-54105257D01*
X143833819Y-54228096D01*
X143938285Y-54332562D01*
X144061124Y-54414640D01*
X144092356Y-54427576D01*
X143190015Y-55329916D01*
X143190015Y-55329917D01*
X143302857Y-55416504D01*
X143302865Y-55416510D01*
X143529899Y-55547589D01*
X143529910Y-55547594D01*
X143772126Y-55647923D01*
X144025361Y-55715776D01*
X144025372Y-55715778D01*
X144285287Y-55749998D01*
X144285302Y-55749999D01*
X144547462Y-55749999D01*
X144547476Y-55749998D01*
X144807391Y-55715778D01*
X144807402Y-55715776D01*
X145060637Y-55647923D01*
X145302853Y-55547594D01*
X145302864Y-55547589D01*
X145529898Y-55416510D01*
X145529916Y-55416498D01*
X145642747Y-55329918D01*
X145642747Y-55329916D01*
X144740407Y-54427577D01*
X144771640Y-54414640D01*
X144894479Y-54332562D01*
X144998945Y-54228096D01*
X145081023Y-54105257D01*
X145093959Y-54074024D01*
X145996299Y-54976364D01*
X145996301Y-54976364D01*
X146082881Y-54863533D01*
X146082893Y-54863515D01*
X146213972Y-54636481D01*
X146213977Y-54636470D01*
X146314306Y-54394254D01*
X146382159Y-54141019D01*
X146382161Y-54141008D01*
X146416381Y-53881093D01*
X146416382Y-53881079D01*
X146416382Y-53618918D01*
X146416381Y-53618904D01*
X146382161Y-53358989D01*
X146382159Y-53358978D01*
X146314306Y-53105743D01*
X146213977Y-52863527D01*
X146213972Y-52863516D01*
X146082893Y-52636482D01*
X146082887Y-52636474D01*
X145996300Y-52523632D01*
X145996299Y-52523632D01*
X145093959Y-53425972D01*
X145081023Y-53394741D01*
X144998945Y-53271902D01*
X144894479Y-53167436D01*
X144771640Y-53085358D01*
X144740405Y-53072420D01*
X145642747Y-52170079D01*
X145529906Y-52083493D01*
X145529898Y-52083487D01*
X145302864Y-51952408D01*
X145302853Y-51952403D01*
X145060637Y-51852074D01*
X144807402Y-51784221D01*
X144807391Y-51784219D01*
X144547476Y-51749999D01*
X144285287Y-51749999D01*
X144025372Y-51784219D01*
X144025361Y-51784221D01*
X143772126Y-51852074D01*
X143529910Y-51952403D01*
X143529899Y-51952408D01*
X143302853Y-52083495D01*
X143190015Y-52170078D01*
X143190015Y-52170079D01*
X144092356Y-53072420D01*
X144061124Y-53085358D01*
X143938285Y-53167436D01*
X143833819Y-53271902D01*
X143751741Y-53394741D01*
X143738803Y-53425973D01*
X142836462Y-52523632D01*
X142836461Y-52523632D01*
X142749878Y-52636470D01*
X142618791Y-52863516D01*
X142618786Y-52863527D01*
X142518457Y-53105743D01*
X142450604Y-53358978D01*
X142450602Y-53358989D01*
X142416382Y-53618904D01*
X126026881Y-53618904D01*
X126026881Y-52210639D01*
X126026881Y-52210638D01*
X126026881Y-52210635D01*
X126011428Y-52093245D01*
X126011426Y-52093238D01*
X126011426Y-52093237D01*
X125950918Y-51947158D01*
X125854664Y-51821717D01*
X125729223Y-51725463D01*
X125583144Y-51664955D01*
X125583142Y-51664954D01*
X125465752Y-51649500D01*
X125465749Y-51649499D01*
X125465743Y-51649499D01*
X125465736Y-51649499D01*
X122387018Y-51649499D01*
X122269628Y-51664952D01*
X122269619Y-51664955D01*
X122123542Y-51725462D01*
X121998100Y-51821717D01*
X121901845Y-51947159D01*
X121841338Y-52093236D01*
X121841337Y-52093238D01*
X121825883Y-52210628D01*
X121825883Y-52210635D01*
X121825882Y-52210644D01*
X121825882Y-52625499D01*
X121806197Y-52692538D01*
X121753393Y-52738293D01*
X121701882Y-52749499D01*
X117576675Y-52749499D01*
X117509636Y-52729814D01*
X117476358Y-52698386D01*
X117397175Y-52589399D01*
X117219038Y-52411262D01*
X117219036Y-52411260D01*
X117219031Y-52411256D01*
X117015230Y-52263187D01*
X117015229Y-52263186D01*
X117015227Y-52263185D01*
X116945129Y-52227468D01*
X116790765Y-52148815D01*
X116551167Y-52070965D01*
X116302344Y-52031555D01*
X116050420Y-52031555D01*
X115926008Y-52051260D01*
X115801596Y-52070965D01*
X115561998Y-52148815D01*
X115337533Y-52263187D01*
X115133732Y-52411256D01*
X115133727Y-52411260D01*
X114955587Y-52589400D01*
X114955583Y-52589405D01*
X114807514Y-52793206D01*
X114693142Y-53017671D01*
X114615292Y-53257269D01*
X114593249Y-53396445D01*
X114575882Y-53506093D01*
X54176882Y-53506093D01*
X54176882Y-41624500D01*
X54196567Y-41557461D01*
X54249371Y-41511706D01*
X54300882Y-41500500D01*
X153051882Y-41500500D01*
X153118921Y-41520185D01*
G37*
%TD.AperFunction*%
%TA.AperFunction,Conductor*%
G36*
X142290457Y-110442993D02*
G01*
X142356283Y-110557007D01*
X142449375Y-110650099D01*
X142563389Y-110715925D01*
X142626972Y-110732962D01*
X141994664Y-111365269D01*
X141995194Y-111372003D01*
X142026729Y-111412898D01*
X142032708Y-111482511D01*
X142000103Y-111544307D01*
X141984064Y-111558205D01*
X141811443Y-111683622D01*
X141650005Y-111845060D01*
X141649998Y-111845069D01*
X141586699Y-111932191D01*
X141531369Y-111974857D01*
X141461755Y-111980835D01*
X141399961Y-111948228D01*
X141386065Y-111932191D01*
X141322765Y-111845069D01*
X141322761Y-111845063D01*
X141161319Y-111683621D01*
X141074189Y-111620317D01*
X141031525Y-111564988D01*
X141025546Y-111495374D01*
X141058152Y-111433579D01*
X141074189Y-111419683D01*
X141161319Y-111356379D01*
X141322761Y-111194937D01*
X141448178Y-111022316D01*
X141503506Y-110979653D01*
X141573120Y-110973674D01*
X141634914Y-111006280D01*
X141639516Y-111011591D01*
X141641110Y-111011716D01*
X142273419Y-110379408D01*
X142290457Y-110442993D01*
G37*
%TD.AperFunction*%
%TA.AperFunction,Conductor*%
G36*
X141137409Y-87847105D02*
G01*
X141160752Y-87849284D01*
X141177401Y-87858848D01*
X141181952Y-87860185D01*
X141187476Y-87864636D01*
X141191355Y-87866865D01*
X141197275Y-87871500D01*
X141234017Y-87908242D01*
X141375417Y-88010974D01*
X141377193Y-88012365D01*
X141396279Y-88039046D01*
X141416302Y-88065012D01*
X141416499Y-88067312D01*
X141417844Y-88069192D01*
X141419475Y-88101955D01*
X141422281Y-88134625D01*
X141421203Y-88136667D01*
X141421318Y-88138975D01*
X141404979Y-88167415D01*
X141389675Y-88196420D01*
X141387663Y-88197555D01*
X141386513Y-88199559D01*
X141373636Y-88210318D01*
X141234023Y-88311752D01*
X141234018Y-88311756D01*
X141078138Y-88467636D01*
X141078134Y-88467641D01*
X140948569Y-88645974D01*
X140848486Y-88842393D01*
X140848485Y-88842396D01*
X140780367Y-89052047D01*
X140745882Y-89269778D01*
X140745882Y-89490221D01*
X140780367Y-89707952D01*
X140848485Y-89917603D01*
X140848486Y-89917606D01*
X140948569Y-90114025D01*
X141078134Y-90292358D01*
X141078138Y-90292363D01*
X141234018Y-90448243D01*
X141234023Y-90448247D01*
X141373636Y-90549682D01*
X141416302Y-90605012D01*
X141422281Y-90674625D01*
X141389675Y-90736420D01*
X141373636Y-90750318D01*
X141234023Y-90851752D01*
X141234018Y-90851756D01*
X141078138Y-91007636D01*
X141078134Y-91007641D01*
X140948569Y-91185974D01*
X140848486Y-91382393D01*
X140848485Y-91382396D01*
X140780367Y-91592047D01*
X140745882Y-91809778D01*
X140745882Y-92030221D01*
X140780367Y-92247952D01*
X140848485Y-92457603D01*
X140848486Y-92457606D01*
X140948569Y-92654025D01*
X141078134Y-92832358D01*
X141078138Y-92832363D01*
X141234018Y-92988243D01*
X141234023Y-92988247D01*
X141373636Y-93089682D01*
X141416302Y-93145012D01*
X141422281Y-93214625D01*
X141389675Y-93276420D01*
X141373636Y-93290318D01*
X141234023Y-93391752D01*
X141234018Y-93391756D01*
X141078138Y-93547636D01*
X141078134Y-93547641D01*
X140948569Y-93725974D01*
X140848486Y-93922393D01*
X140848485Y-93922396D01*
X140780367Y-94132047D01*
X140745882Y-94349778D01*
X140745882Y-94570221D01*
X140780367Y-94787952D01*
X140848485Y-94997603D01*
X140848486Y-94997606D01*
X140948569Y-95194025D01*
X141078134Y-95372358D01*
X141078138Y-95372363D01*
X141234018Y-95528243D01*
X141234023Y-95528247D01*
X141373636Y-95629682D01*
X141416302Y-95685012D01*
X141422281Y-95754625D01*
X141389675Y-95816420D01*
X141373636Y-95830318D01*
X141234023Y-95931752D01*
X141234018Y-95931756D01*
X141078138Y-96087636D01*
X141078134Y-96087641D01*
X140948569Y-96265974D01*
X140848487Y-96462393D01*
X140780367Y-96672047D01*
X140745882Y-96889778D01*
X140745882Y-97110221D01*
X140780367Y-97327952D01*
X140848485Y-97537603D01*
X140848486Y-97537606D01*
X140916504Y-97671096D01*
X140947731Y-97732382D01*
X140948569Y-97734025D01*
X141078134Y-97912358D01*
X141078138Y-97912363D01*
X141234018Y-98068243D01*
X141234023Y-98068247D01*
X141373636Y-98169682D01*
X141416302Y-98225012D01*
X141422281Y-98294625D01*
X141389675Y-98356420D01*
X141373636Y-98370318D01*
X141234023Y-98471752D01*
X141234018Y-98471756D01*
X141078138Y-98627636D01*
X141078134Y-98627641D01*
X140948569Y-98805974D01*
X140848486Y-99002393D01*
X140848485Y-99002396D01*
X140780367Y-99212047D01*
X140745882Y-99429778D01*
X140745882Y-99650221D01*
X140780367Y-99867952D01*
X140848485Y-100077603D01*
X140848486Y-100077606D01*
X140948569Y-100274025D01*
X141078134Y-100452358D01*
X141078138Y-100452363D01*
X141213636Y-100587861D01*
X141247121Y-100649184D01*
X141242137Y-100718876D01*
X141200265Y-100774809D01*
X141181052Y-100786629D01*
X141135630Y-100809157D01*
X140991441Y-100925059D01*
X140875538Y-101069249D01*
X140793346Y-101234976D01*
X140793345Y-101234978D01*
X140748699Y-101414500D01*
X140745882Y-101456048D01*
X140745882Y-102703951D01*
X140748699Y-102745499D01*
X140793345Y-102925021D01*
X140793346Y-102925023D01*
X140875538Y-103090750D01*
X140991441Y-103234940D01*
X141044780Y-103277815D01*
X141135629Y-103350842D01*
X141301361Y-103433037D01*
X141480883Y-103477682D01*
X141480884Y-103477682D01*
X141480887Y-103477683D01*
X141522428Y-103480500D01*
X142480600Y-103480500D01*
X142547639Y-103500185D01*
X142568281Y-103516819D01*
X146139563Y-107088101D01*
X146173048Y-107149424D01*
X146175882Y-107175782D01*
X146175882Y-110034218D01*
X146156197Y-110101257D01*
X146139563Y-110121899D01*
X144508281Y-111753181D01*
X144446958Y-111786666D01*
X144420600Y-111789500D01*
X143858560Y-111789500D01*
X143791521Y-111769815D01*
X143770879Y-111753181D01*
X143701320Y-111683622D01*
X143528699Y-111558204D01*
X143486034Y-111502873D01*
X143480055Y-111433260D01*
X143512661Y-111371465D01*
X143517973Y-111366861D01*
X143518099Y-111365270D01*
X142885790Y-110732962D01*
X142949375Y-110715925D01*
X143063389Y-110650099D01*
X143156481Y-110557007D01*
X143222307Y-110442993D01*
X143239344Y-110379409D01*
X143871652Y-111011717D01*
X143871652Y-111011716D01*
X143911004Y-110957554D01*
X144007477Y-110768217D01*
X144073139Y-110566130D01*
X144073139Y-110566127D01*
X144106382Y-110356246D01*
X144106382Y-110143753D01*
X144073139Y-109933872D01*
X144073139Y-109933869D01*
X144007477Y-109731782D01*
X143911006Y-109542449D01*
X143871652Y-109488282D01*
X143871651Y-109488282D01*
X143239344Y-110120590D01*
X143222307Y-110057007D01*
X143156481Y-109942993D01*
X143063389Y-109849901D01*
X142949375Y-109784075D01*
X142885791Y-109767037D01*
X143518098Y-109134728D01*
X143463932Y-109095375D01*
X143274599Y-108998904D01*
X143072511Y-108933242D01*
X142862628Y-108900000D01*
X142650136Y-108900000D01*
X142440254Y-108933242D01*
X142440251Y-108933242D01*
X142238164Y-108998904D01*
X142048821Y-109095380D01*
X141994664Y-109134727D01*
X141994664Y-109134728D01*
X142626973Y-109767037D01*
X142563389Y-109784075D01*
X142449375Y-109849901D01*
X142356283Y-109942993D01*
X142290457Y-110057007D01*
X142273419Y-110120591D01*
X141641110Y-109488282D01*
X141634374Y-109488812D01*
X141593482Y-109520345D01*
X141523869Y-109526324D01*
X141462074Y-109493718D01*
X141448176Y-109477680D01*
X141322765Y-109305069D01*
X141322761Y-109305063D01*
X141213201Y-109195503D01*
X141179716Y-109134180D01*
X141176882Y-109107822D01*
X141176882Y-106563962D01*
X141196567Y-106496923D01*
X141216005Y-106474650D01*
X141215593Y-106474238D01*
X141293385Y-106396446D01*
X141397175Y-106292656D01*
X141545252Y-106088845D01*
X141659623Y-105864379D01*
X141737472Y-105624785D01*
X141776882Y-105375962D01*
X141776882Y-105124038D01*
X141737472Y-104875215D01*
X141659623Y-104635621D01*
X141659621Y-104635618D01*
X141659621Y-104635616D01*
X141576076Y-104471651D01*
X141545252Y-104411155D01*
X141451689Y-104282376D01*
X141397180Y-104207350D01*
X141397176Y-104207345D01*
X141219036Y-104029205D01*
X141219031Y-104029201D01*
X141015230Y-103881132D01*
X141015229Y-103881131D01*
X141015227Y-103881130D01*
X140945129Y-103845413D01*
X140790765Y-103766760D01*
X140551167Y-103688910D01*
X140475939Y-103676995D01*
X140302344Y-103649500D01*
X140050420Y-103649500D01*
X139820279Y-103685950D01*
X139750986Y-103676995D01*
X139697534Y-103631999D01*
X139676895Y-103565247D01*
X139676882Y-103563477D01*
X139676882Y-88465782D01*
X139696567Y-88398743D01*
X139713201Y-88378101D01*
X140214484Y-87876819D01*
X140275807Y-87843334D01*
X140302165Y-87840500D01*
X140314840Y-87840500D01*
X140314841Y-87840500D01*
X140511921Y-87840500D01*
X141114913Y-87840500D01*
X141137409Y-87847105D01*
G37*
%TD.AperFunction*%
%TA.AperFunction,Conductor*%
G36*
X147354085Y-68244069D02*
G01*
X147360563Y-68250101D01*
X148963181Y-69852719D01*
X148996666Y-69914042D01*
X148999500Y-69940400D01*
X148999500Y-84847408D01*
X148979815Y-84914447D01*
X148963181Y-84935089D01*
X145555090Y-88343181D01*
X145493767Y-88376666D01*
X145467409Y-88379500D01*
X143977851Y-88379500D01*
X143955354Y-88372894D01*
X143932012Y-88370716D01*
X143919181Y-88362272D01*
X143910812Y-88359815D01*
X143901409Y-88353135D01*
X143895489Y-88348500D01*
X143858747Y-88311758D01*
X143717333Y-88209015D01*
X143715570Y-88207635D01*
X143696488Y-88180960D01*
X143676461Y-88154989D01*
X143676263Y-88152687D01*
X143674919Y-88150808D01*
X143673287Y-88118045D01*
X143670482Y-88085375D01*
X143671559Y-88083332D01*
X143671445Y-88081025D01*
X143687777Y-88052595D01*
X143703087Y-88023580D01*
X143705794Y-88021234D01*
X143706250Y-88020441D01*
X143707394Y-88019848D01*
X143719127Y-88009682D01*
X143858740Y-87908247D01*
X143858738Y-87908247D01*
X143858747Y-87908242D01*
X144014624Y-87752365D01*
X144144197Y-87574022D01*
X144244277Y-87377606D01*
X144312397Y-87167951D01*
X144346882Y-86950222D01*
X144346882Y-86729778D01*
X144312397Y-86512049D01*
X144244277Y-86302394D01*
X144244277Y-86302393D01*
X144209619Y-86234375D01*
X144144197Y-86105978D01*
X144095098Y-86038399D01*
X144014629Y-85927641D01*
X144014625Y-85927636D01*
X143858745Y-85771756D01*
X143858740Y-85771752D01*
X143680407Y-85642187D01*
X143680406Y-85642186D01*
X143680404Y-85642185D01*
X143643400Y-85623330D01*
X143592605Y-85575356D01*
X143575810Y-85507535D01*
X143598348Y-85441400D01*
X143626811Y-85412528D01*
X143793271Y-85291587D01*
X143793277Y-85291582D01*
X143937964Y-85146895D01*
X143937964Y-85146894D01*
X144058241Y-84981349D01*
X144151137Y-84799029D01*
X144214372Y-84604413D01*
X144222991Y-84550000D01*
X142862068Y-84550000D01*
X142866462Y-84545606D01*
X142919123Y-84454394D01*
X142946382Y-84352661D01*
X142946382Y-84247339D01*
X142919123Y-84145606D01*
X142866462Y-84054394D01*
X142862068Y-84050000D01*
X144222991Y-84050000D01*
X144214372Y-83995586D01*
X144151137Y-83800970D01*
X144058241Y-83618650D01*
X143937964Y-83453105D01*
X143937964Y-83453104D01*
X143793277Y-83308417D01*
X143626810Y-83187471D01*
X143584145Y-83132141D01*
X143578166Y-83062527D01*
X143610772Y-83000732D01*
X143643397Y-82976670D01*
X143680404Y-82957815D01*
X143858747Y-82828242D01*
X143890170Y-82796819D01*
X143951493Y-82763334D01*
X143977851Y-82760500D01*
X144925890Y-82760500D01*
X144992929Y-82780185D01*
X145038684Y-82832989D01*
X145040451Y-82837047D01*
X145069450Y-82907058D01*
X145071846Y-82912841D01*
X145168100Y-83038282D01*
X145293541Y-83134536D01*
X145439620Y-83195044D01*
X145557021Y-83210500D01*
X147335742Y-83210499D01*
X147335745Y-83210499D01*
X147453135Y-83195046D01*
X147453139Y-83195044D01*
X147453144Y-83195044D01*
X147599223Y-83134536D01*
X147724664Y-83038282D01*
X147820918Y-82912841D01*
X147881426Y-82766762D01*
X147896882Y-82649361D01*
X147896881Y-80870640D01*
X147896881Y-80870636D01*
X147881428Y-80753246D01*
X147881426Y-80753241D01*
X147881426Y-80753238D01*
X147820918Y-80607159D01*
X147724664Y-80481718D01*
X147599223Y-80385464D01*
X147599221Y-80385463D01*
X147581883Y-80378281D01*
X147527481Y-80334438D01*
X147505418Y-80268143D01*
X147522699Y-80200444D01*
X147541661Y-80176037D01*
X147552756Y-80164942D01*
X147552756Y-80164941D01*
X147552761Y-80164937D01*
X147686961Y-79980228D01*
X147790613Y-79776799D01*
X147861166Y-79559660D01*
X147869401Y-79507666D01*
X147896882Y-79334162D01*
X147896882Y-79105837D01*
X147861166Y-78880339D01*
X147790611Y-78663196D01*
X147729189Y-78542649D01*
X147686961Y-78459772D01*
X147552761Y-78275063D01*
X147391319Y-78113621D01*
X147206610Y-77979421D01*
X147178600Y-77965149D01*
X147003185Y-77875770D01*
X146786042Y-77805215D01*
X146560544Y-77769500D01*
X146560539Y-77769500D01*
X146332225Y-77769500D01*
X146332220Y-77769500D01*
X146106721Y-77805215D01*
X145889578Y-77875770D01*
X145686153Y-77979421D01*
X145501443Y-78113622D01*
X145501442Y-78113623D01*
X145431885Y-78183181D01*
X145370562Y-78216666D01*
X145344204Y-78219500D01*
X143977851Y-78219500D01*
X143955354Y-78212894D01*
X143932012Y-78210716D01*
X143919181Y-78202272D01*
X143910812Y-78199815D01*
X143901409Y-78193135D01*
X143895489Y-78188500D01*
X143858747Y-78151758D01*
X143717333Y-78049015D01*
X143715570Y-78047635D01*
X143696488Y-78020960D01*
X143676461Y-77994989D01*
X143676263Y-77992687D01*
X143674919Y-77990808D01*
X143673287Y-77958045D01*
X143670482Y-77925375D01*
X143671559Y-77923332D01*
X143671445Y-77921025D01*
X143687777Y-77892595D01*
X143703087Y-77863580D01*
X143705794Y-77861234D01*
X143706250Y-77860441D01*
X143707394Y-77859848D01*
X143719127Y-77849682D01*
X143858740Y-77748247D01*
X143858738Y-77748247D01*
X143858747Y-77748242D01*
X144014624Y-77592365D01*
X144144197Y-77414022D01*
X144244277Y-77217606D01*
X144312397Y-77007951D01*
X144313195Y-77002914D01*
X144343122Y-76939778D01*
X144347970Y-76934644D01*
X146925521Y-74357096D01*
X146952027Y-74317427D01*
X146979650Y-74276087D01*
X146979650Y-74276086D01*
X146996932Y-74250221D01*
X147035014Y-74193228D01*
X147104434Y-74025632D01*
X147110433Y-74011150D01*
X147145754Y-73833580D01*
X147148882Y-73817855D01*
X147148882Y-68337782D01*
X147168567Y-68270743D01*
X147221371Y-68224988D01*
X147290529Y-68215044D01*
X147354085Y-68244069D01*
G37*
%TD.AperFunction*%
%TA.AperFunction,Conductor*%
G36*
X129744031Y-80240185D02*
G01*
X129789786Y-80292989D01*
X129799730Y-80362147D01*
X129770705Y-80425703D01*
X129749877Y-80444818D01*
X129633732Y-80529201D01*
X129633727Y-80529205D01*
X129455587Y-80707345D01*
X129455583Y-80707350D01*
X129307514Y-80911151D01*
X129193142Y-81135616D01*
X129115292Y-81375214D01*
X129075882Y-81624038D01*
X129075882Y-81875961D01*
X129115292Y-82124785D01*
X129193142Y-82364383D01*
X129307514Y-82588848D01*
X129455583Y-82792649D01*
X129455587Y-82792654D01*
X129633727Y-82970794D01*
X129633732Y-82970798D01*
X129771556Y-83070932D01*
X129837537Y-83118870D01*
X129965407Y-83184023D01*
X130061998Y-83233239D01*
X130062000Y-83233239D01*
X130062003Y-83233241D01*
X130301597Y-83311090D01*
X130550420Y-83350500D01*
X130550421Y-83350500D01*
X130802343Y-83350500D01*
X130802344Y-83350500D01*
X131051167Y-83311090D01*
X131290761Y-83233241D01*
X131293676Y-83231756D01*
X131296430Y-83230352D01*
X131515227Y-83118870D01*
X131719038Y-82970793D01*
X131893012Y-82796819D01*
X131954335Y-82763334D01*
X131980693Y-82760500D01*
X133494913Y-82760500D01*
X133517409Y-82767105D01*
X133540752Y-82769284D01*
X133553582Y-82777727D01*
X133561952Y-82780185D01*
X133571355Y-82786865D01*
X133577275Y-82791500D01*
X133614017Y-82828242D01*
X133755417Y-82930974D01*
X133757193Y-82932365D01*
X133776279Y-82959046D01*
X133796302Y-82985012D01*
X133796499Y-82987312D01*
X133797844Y-82989192D01*
X133799475Y-83021955D01*
X133802281Y-83054625D01*
X133801203Y-83056667D01*
X133801318Y-83058975D01*
X133784979Y-83087415D01*
X133769675Y-83116420D01*
X133766969Y-83118764D01*
X133766513Y-83119559D01*
X133765367Y-83120152D01*
X133753636Y-83130318D01*
X133614023Y-83231752D01*
X133614018Y-83231756D01*
X133458138Y-83387636D01*
X133458134Y-83387641D01*
X133328569Y-83565974D01*
X133228486Y-83762393D01*
X133228485Y-83762396D01*
X133160367Y-83972047D01*
X133125882Y-84189778D01*
X133125882Y-84410221D01*
X133160367Y-84627952D01*
X133228485Y-84837603D01*
X133228486Y-84837606D01*
X133289710Y-84957762D01*
X133316393Y-85010130D01*
X133328569Y-85034025D01*
X133458134Y-85212358D01*
X133458138Y-85212363D01*
X133614018Y-85368243D01*
X133614023Y-85368247D01*
X133792358Y-85497814D01*
X133792360Y-85497815D01*
X133811436Y-85507535D01*
X133829361Y-85516668D01*
X133880157Y-85564642D01*
X133896953Y-85632463D01*
X133874416Y-85698598D01*
X133845953Y-85727471D01*
X133679487Y-85848416D01*
X133534799Y-85993104D01*
X133534799Y-85993105D01*
X133414522Y-86158650D01*
X133321626Y-86340970D01*
X133258391Y-86535586D01*
X133249773Y-86590000D01*
X134610696Y-86590000D01*
X134606302Y-86594394D01*
X134553641Y-86685606D01*
X134526382Y-86787339D01*
X134526382Y-86892661D01*
X134553641Y-86994394D01*
X134606302Y-87085606D01*
X134610696Y-87090000D01*
X133249773Y-87090000D01*
X133258391Y-87144413D01*
X133321626Y-87339029D01*
X133414522Y-87521349D01*
X133534799Y-87686894D01*
X133534799Y-87686895D01*
X133679486Y-87831582D01*
X133845953Y-87952528D01*
X133888618Y-88007858D01*
X133894597Y-88077471D01*
X133861991Y-88139266D01*
X133829363Y-88163330D01*
X133792358Y-88182185D01*
X133614023Y-88311752D01*
X133614017Y-88311757D01*
X133596217Y-88329557D01*
X133534893Y-88363041D01*
X133465202Y-88358055D01*
X133420857Y-88329555D01*
X130457861Y-85366559D01*
X130457841Y-85366537D01*
X130314167Y-85222863D01*
X130314163Y-85222860D01*
X130150302Y-85113371D01*
X130150289Y-85113364D01*
X130007255Y-85054118D01*
X130007249Y-85054116D01*
X129998518Y-85050500D01*
X129968218Y-85037949D01*
X129828363Y-85010130D01*
X129825691Y-85009598D01*
X129825689Y-85009598D01*
X129774924Y-84999500D01*
X129774923Y-84999500D01*
X124258873Y-84999500D01*
X124191834Y-84979815D01*
X124146079Y-84927011D01*
X124136135Y-84857853D01*
X124153147Y-84810708D01*
X124155247Y-84807279D01*
X124155252Y-84807273D01*
X124269623Y-84582807D01*
X124347472Y-84343213D01*
X124386882Y-84094390D01*
X124386882Y-83842466D01*
X124386882Y-83837594D01*
X124388410Y-83837594D01*
X124401361Y-83775843D01*
X124422950Y-83746778D01*
X127912912Y-80256819D01*
X127974235Y-80223334D01*
X128000593Y-80220500D01*
X129676992Y-80220500D01*
X129744031Y-80240185D01*
G37*
%TD.AperFunction*%
%TD*%
M02*
