M48
; DRILL file {KiCad 9.0.2+dfsg-1} date 2026-01-07T10:29:21+0100
; FORMAT={-:-/ absolute / metric / decimal}
; #@! TF.CreationDate,2026-01-07T10:29:21+01:00
; #@! TF.GenerationSoftware,Kicad,Pcbnew,9.0.2+dfsg-1
; #@! TF.FileFunction,Plated,1,2,PTH
FMAT,2
METRIC
; #@! TA.AperFunction,Plated,PTH,ComponentDrill
T1C0.500
; #@! TA.AperFunction,Plated,PTH,ComponentDrill
T2C0.800
; #@! TA.AperFunction,Plated,PTH,ViaDrill
T3C0.900
; #@! TA.AperFunction,Plated,PTH,ComponentDrill
T4C0.900
; #@! TA.AperFunction,Plated,PTH,ComponentDrill
T5C1.000
; #@! TA.AperFunction,Plated,PTH,ComponentDrill
T6C1.100
; #@! TA.AperFunction,Plated,PTH,ComponentDrill
T7C1.500
%
G90
G05
T1
X148.37Y-78.61
X148.37Y-80.51
T2
X136.25Y-68.06
X136.25Y-70.6
X136.25Y-73.14
X136.25Y-75.68
X136.25Y-78.22
X136.25Y-80.76
X136.25Y-83.3
X136.25Y-85.84
X136.25Y-88.38
X136.25Y-90.92
X136.25Y-93.46
X136.25Y-96.0
X136.25Y-98.54
X136.25Y-101.08
X143.87Y-68.06
X143.87Y-70.6
X143.87Y-73.14
X143.87Y-75.68
X143.87Y-78.22
X143.87Y-80.76
X143.87Y-83.3
X143.87Y-85.84
X143.87Y-88.38
X143.87Y-90.92
X143.87Y-93.46
X143.87Y-96.0
X143.87Y-98.54
X143.87Y-101.08
T3
X73.0Y-97.75
X73.817Y-73.75
X76.0Y-97.75
X76.417Y-73.75
X79.0Y-97.75
X79.017Y-73.75
X81.617Y-73.75
X81.92Y-97.75
X84.217Y-73.75
X84.52Y-97.75
X87.5Y-97.75
X110.072Y-67.92
X113.5Y-76.5
X117.5Y-52.632
X120.25Y-116.75
X121.25Y-83.0
X124.11Y-82.968
X124.25Y-103.25
X127.129Y-73.14
X130.0Y-114.75
X132.0Y-80.75
X133.0Y-83.25
X141.5Y-104.25
X147.25Y-83.0
X147.25Y-93.5
T4
X64.287Y-82.901
X64.957Y-64.401
X66.827Y-82.901
X67.497Y-64.401
X70.037Y-82.901
X70.727Y-64.401
X72.577Y-82.901
X73.267Y-64.401
X75.767Y-82.901
X76.477Y-64.401
X78.307Y-82.901
X79.017Y-64.401
X81.497Y-82.901
X82.247Y-64.401
X84.037Y-82.901
X84.787Y-64.401
X87.267Y-82.901
X87.997Y-64.401
X89.807Y-82.901
X90.537Y-64.401
X93.017Y-82.901
X95.557Y-82.901
T5
X139.0Y-109.25
X139.0Y-111.79
X141.54Y-109.25
X141.54Y-111.79
X144.08Y-109.25
X144.08Y-111.79
X151.25Y-93.42
X151.25Y-95.96
X151.25Y-98.5
T6
X63.25Y-105.75
X63.25Y-112.25
X67.75Y-105.75
X67.75Y-112.25
X74.5Y-105.75
X74.5Y-112.25
X79.0Y-105.75
X79.0Y-112.25
X85.75Y-105.75
X85.75Y-112.25
X90.25Y-105.75
X90.25Y-112.25
T7
X125.25Y-52.75
X145.74Y-52.75
M30
